G04*
G04 #@! TF.GenerationSoftware,Altium Limited,Altium Designer,24.1.2 (44)*
G04*
G04 Layer_Color=32768*
%FSLAX44Y44*%
%MOMM*%
G71*
G04*
G04 #@! TF.SameCoordinates,FF60899B-E9A6-4C8F-AFAD-FD19F3B54CA5*
G04*
G04*
G04 #@! TF.FilePolarity,Positive*
G04*
G01*
G75*
%ADD14C,0.1524*%
%ADD15C,0.1000*%
%ADD76C,0.0500*%
D14*
X712916Y167307D02*
Y258493D01*
X772479D02*
X787084D01*
X772479D02*
Y265351D01*
X727521D02*
X772479D01*
X727521Y258493D02*
Y265351D01*
X712916Y258493D02*
X727521D01*
X712916Y167307D02*
X727521D01*
Y160449D02*
Y167307D01*
Y160449D02*
X772479D01*
Y167307D01*
X787084D01*
Y258493D01*
X608944Y54117D02*
Y112283D01*
X625581D01*
Y113172D01*
X675619D01*
Y112283D02*
Y113172D01*
Y112283D02*
X692256D01*
Y54117D02*
Y112283D01*
X675619Y54117D02*
X692256D01*
X675619Y53228D02*
Y54117D01*
X625581Y53228D02*
X675619D01*
X625581D02*
Y54117D01*
X608944D02*
X625581D01*
X112916Y166631D02*
Y257817D01*
X127521D01*
Y264675D01*
X172479D01*
Y257817D02*
Y264675D01*
Y257817D02*
X187084D01*
X172479Y166631D02*
X187084D01*
X172479Y159773D02*
Y166631D01*
X127521Y159773D02*
X172479D01*
X127521D02*
Y166631D01*
X112916D02*
X127521D01*
X187084D02*
Y257817D01*
D15*
X771400Y240332D02*
X781400D01*
X776400Y235332D02*
Y245332D01*
X771400Y385239D02*
X781400D01*
X776400Y380239D02*
Y390239D01*
X771400Y530706D02*
X781400D01*
X776400Y525706D02*
Y535706D01*
Y671172D02*
Y681172D01*
X771400Y676172D02*
X781400D01*
X553800Y240332D02*
X563800D01*
X558800Y235332D02*
Y245332D01*
X553800Y385239D02*
X563800D01*
X558800Y380239D02*
Y390239D01*
X553800Y530706D02*
X563800D01*
X558800Y525706D02*
Y535706D01*
X553800Y676172D02*
X563800D01*
X558800Y671172D02*
Y681172D01*
X336200Y240332D02*
X346200D01*
X341200Y235332D02*
Y245332D01*
X336200Y385239D02*
X346200D01*
X341200Y380239D02*
Y390239D01*
X336200Y530706D02*
X346200D01*
X341200Y525706D02*
Y535706D01*
X336200Y676172D02*
X346200D01*
X341200Y671172D02*
Y681172D01*
X55000Y146600D02*
X65000D01*
X60000Y141600D02*
Y151600D01*
X96000Y103100D02*
Y190100D01*
X24000Y103100D02*
Y190100D01*
Y103100D02*
X96000D01*
X24000Y190100D02*
X96000D01*
X118600Y240332D02*
X128600D01*
X123600Y235332D02*
Y245332D01*
X118600Y385239D02*
X128600D01*
X123600Y380239D02*
Y390239D01*
X118600Y530706D02*
X128600D01*
X123600Y525706D02*
Y535706D01*
X118600Y676172D02*
X128600D01*
X123600Y671172D02*
Y681172D01*
X335200Y88375D02*
X345200D01*
X340200Y83375D02*
Y93375D01*
X95500Y58400D02*
Y118000D01*
Y58400D02*
X256500D01*
Y118000D01*
X95500D02*
X256500D01*
D76*
X815770Y211832D02*
Y268832D01*
X737030Y211832D02*
Y268832D01*
X815770D01*
X737030Y211832D02*
X815770D01*
Y356739D02*
Y413739D01*
X737030Y356739D02*
Y413739D01*
X815770D01*
X737030Y356739D02*
X815770D01*
Y502206D02*
Y559206D01*
X737030Y502206D02*
Y559206D01*
X815770D01*
X737030Y502206D02*
X815770D01*
X737030Y647672D02*
X815770D01*
X737030Y704672D02*
X815770D01*
X737030Y647672D02*
Y704672D01*
X815770Y647672D02*
Y704672D01*
X598170Y211832D02*
Y268832D01*
X519430Y211832D02*
Y268832D01*
X598170D01*
X519430Y211832D02*
X598170D01*
Y356739D02*
Y413739D01*
X519430Y356739D02*
Y413739D01*
X598170D01*
X519430Y356739D02*
X598170D01*
Y502206D02*
Y559206D01*
X519430Y502206D02*
Y559206D01*
X598170D01*
X519430Y502206D02*
X598170D01*
Y647672D02*
Y704672D01*
X519430Y647672D02*
Y704672D01*
X598170D01*
X519430Y647672D02*
X598170D01*
X380570Y211832D02*
Y268832D01*
X301830Y211832D02*
Y268832D01*
X380570D01*
X301830Y211832D02*
X380570D01*
Y356739D02*
Y413739D01*
X301830Y356739D02*
Y413739D01*
X380570D01*
X301830Y356739D02*
X380570D01*
Y502206D02*
Y559206D01*
X301830Y502206D02*
Y559206D01*
X380570D01*
X301830Y502206D02*
X380570D01*
Y647672D02*
Y704672D01*
X301830Y647672D02*
Y704672D01*
X380570D01*
X301830Y647672D02*
X380570D01*
X134600Y20950D02*
X318600D01*
X134600D02*
Y137050D01*
X318600Y20950D02*
Y137050D01*
X134600D02*
X318600D01*
X162970Y211832D02*
Y268832D01*
X84230Y211832D02*
Y268832D01*
X162970D01*
X84230Y211832D02*
X162970D01*
Y356739D02*
Y413739D01*
X84230Y356739D02*
Y413739D01*
X162970D01*
X84230Y356739D02*
X162970D01*
Y502206D02*
Y559206D01*
X84230Y502206D02*
Y559206D01*
X162970D01*
X84230Y502206D02*
X162970D01*
Y647672D02*
Y704672D01*
X84230Y647672D02*
Y704672D01*
X162970D01*
X84230Y647672D02*
X162970D01*
X514350Y161900D02*
Y241900D01*
X420250Y161900D02*
Y241900D01*
Y161900D02*
X514350D01*
X420250Y241900D02*
X514350D01*
X300830Y59875D02*
Y116875D01*
X379570Y59875D02*
Y116875D01*
X300830D02*
X379570D01*
X300830Y59875D02*
X379570D01*
X801679Y734176D02*
X859979D01*
X801679D02*
Y779176D01*
X859979D01*
Y734176D02*
Y779176D01*
X424779Y297776D02*
Y342776D01*
X366479D02*
X424779D01*
X366479Y297776D02*
Y342776D01*
Y297776D02*
X424779D01*
X751179D02*
Y342776D01*
X692879D02*
X751179D01*
X692879Y297776D02*
Y342776D01*
Y297776D02*
X751179D01*
X642379D02*
Y342776D01*
X584079D02*
X642379D01*
X584079Y297776D02*
Y342776D01*
Y297776D02*
X642379D01*
X424750Y443243D02*
Y488243D01*
X366450D02*
X424750D01*
X366450Y443243D02*
Y488243D01*
Y443243D02*
X424750D01*
X642350D02*
Y488243D01*
X584050D02*
X642350D01*
X584050Y443243D02*
Y488243D01*
Y443243D02*
X642350D01*
X533579Y297776D02*
Y342776D01*
X475279D02*
X533579D01*
X475279Y297776D02*
Y342776D01*
Y297776D02*
X533579D01*
X751150Y443243D02*
Y488243D01*
X692850D02*
X751150D01*
X692850Y443243D02*
Y488243D01*
Y443243D02*
X751150D01*
X533550D02*
Y488243D01*
X475250D02*
X533550D01*
X475250Y443243D02*
Y488243D01*
Y443243D02*
X533550D01*
X315950D02*
Y488243D01*
X257650D02*
X315950D01*
X257650Y443243D02*
Y488243D01*
Y443243D02*
X315950D01*
X315979Y297776D02*
Y342776D01*
X257679D02*
X315979D01*
X257679Y297776D02*
Y342776D01*
Y297776D02*
X315979D01*
X98379Y734176D02*
Y779176D01*
X40079D02*
X98379D01*
X40079Y734176D02*
Y779176D01*
Y734176D02*
X98379D01*
X207150D02*
Y779176D01*
X148850D02*
X207150D01*
X148850Y734176D02*
Y779176D01*
Y734176D02*
X207150D01*
X315950Y588710D02*
Y633710D01*
X257650D02*
X315950D01*
X257650Y588710D02*
Y633710D01*
Y588710D02*
X315950D01*
X207150D02*
Y633710D01*
X148850D02*
X207150D01*
X148850Y588710D02*
Y633710D01*
Y588710D02*
X207150D01*
X98379D02*
Y633710D01*
X40079D02*
X98379D01*
X40079Y588710D02*
Y633710D01*
Y588710D02*
X98379D01*
X315950Y734176D02*
Y779176D01*
X257650D02*
X315950D01*
X257650Y734176D02*
Y779176D01*
Y734176D02*
X315950D01*
X207179Y297776D02*
Y342776D01*
X148879D02*
X207179D01*
X148879Y297776D02*
Y342776D01*
Y297776D02*
X207179D01*
X98379D02*
Y342776D01*
X40079D02*
X98379D01*
X40079Y297776D02*
Y342776D01*
Y297776D02*
X98379D01*
X207150Y443243D02*
Y488243D01*
X148850D02*
X207150D01*
X148850Y443243D02*
Y488243D01*
Y443243D02*
X207150D01*
X98379D02*
Y488243D01*
X40079D02*
X98379D01*
X40079Y443243D02*
Y488243D01*
Y443243D02*
X98379D01*
X859979Y297776D02*
Y342776D01*
X801679D02*
X859979D01*
X801679Y297776D02*
Y342776D01*
Y297776D02*
X859979D01*
Y443243D02*
Y488243D01*
X801679D02*
X859979D01*
X801679Y443243D02*
Y488243D01*
Y443243D02*
X859979D01*
X642350Y588710D02*
Y633710D01*
X584050D02*
X642350D01*
X584050Y588710D02*
Y633710D01*
Y588710D02*
X642350D01*
X751150D02*
Y633710D01*
X692850D02*
X751150D01*
X692850Y588710D02*
Y633710D01*
Y588710D02*
X751150D01*
X859979D02*
Y633710D01*
X801679D02*
X859979D01*
X801679Y588710D02*
Y633710D01*
Y588710D02*
X859979D01*
X533550D02*
Y633710D01*
X475250D02*
X533550D01*
X475250Y588710D02*
Y633710D01*
Y588710D02*
X533550D01*
X424750D02*
Y633710D01*
X366450D02*
X424750D01*
X366450Y588710D02*
Y633710D01*
Y588710D02*
X424750D01*
X533550Y734176D02*
Y779176D01*
X475250D02*
X533550D01*
X475250Y734176D02*
Y779176D01*
Y734176D02*
X533550D01*
X751150D02*
Y779176D01*
X692850D02*
X751150D01*
X692850Y734176D02*
Y779176D01*
Y734176D02*
X751150D01*
X642350D02*
Y779176D01*
X584050D02*
X642350D01*
X584050Y734176D02*
Y779176D01*
Y734176D02*
X642350D01*
X424750D02*
Y779176D01*
X366450D02*
X424750D01*
X366450Y734176D02*
Y779176D01*
Y734176D02*
X424750D01*
M02*
