G04*
G04 #@! TF.GenerationSoftware,Altium Limited,Altium Designer,24.1.2 (44)*
G04*
G04 Layer_Color=8388736*
%FSLAX44Y44*%
%MOMM*%
G71*
G04*
G04 #@! TF.SameCoordinates,FF60899B-E9A6-4C8F-AFAD-FD19F3B54CA5*
G04*
G04*
G04 #@! TF.FilePolarity,Negative*
G04*
G01*
G75*
%ADD17C,0.5000*%
%ADD19R,1.4605X0.3556*%
G04:AMPARAMS|DCode=21|XSize=1.505mm|YSize=0.38mm|CornerRadius=0.095mm|HoleSize=0mm|Usage=FLASHONLY|Rotation=0.000|XOffset=0mm|YOffset=0mm|HoleType=Round|Shape=RoundedRectangle|*
%AMROUNDEDRECTD21*
21,1,1.5050,0.1900,0,0,0.0*
21,1,1.3150,0.3800,0,0,0.0*
1,1,0.1900,0.6575,-0.0950*
1,1,0.1900,-0.6575,-0.0950*
1,1,0.1900,-0.6575,0.0950*
1,1,0.1900,0.6575,0.0950*
%
%ADD21ROUNDEDRECTD21*%
%ADD27R,1.1032X1.0032*%
%ADD28R,0.8032X1.1032*%
%ADD29R,1.0032X1.1032*%
%ADD30R,1.1032X0.8032*%
G04:AMPARAMS|DCode=31|XSize=2.1032mm|YSize=0.6032mm|CornerRadius=0.1516mm|HoleSize=0mm|Usage=FLASHONLY|Rotation=0.000|XOffset=0mm|YOffset=0mm|HoleType=Round|Shape=RoundedRectangle|*
%AMROUNDEDRECTD31*
21,1,2.1032,0.3000,0,0,0.0*
21,1,1.8000,0.6032,0,0,0.0*
1,1,0.3032,0.9000,-0.1500*
1,1,0.3032,-0.9000,-0.1500*
1,1,0.3032,-0.9000,0.1500*
1,1,0.3032,0.9000,0.1500*
%
%ADD31ROUNDEDRECTD31*%
%ADD32O,2.0032X0.8032*%
G04:AMPARAMS|DCode=33|XSize=1.2032mm|YSize=3.4032mm|CornerRadius=0.3516mm|HoleSize=0mm|Usage=FLASHONLY|Rotation=0.000|XOffset=0mm|YOffset=0mm|HoleType=Round|Shape=RoundedRectangle|*
%AMROUNDEDRECTD33*
21,1,1.2032,2.7000,0,0,0.0*
21,1,0.5000,3.4032,0,0,0.0*
1,1,0.7032,0.2500,-1.3500*
1,1,0.7032,-0.2500,-1.3500*
1,1,0.7032,-0.2500,1.3500*
1,1,0.7032,0.2500,1.3500*
%
%ADD33ROUNDEDRECTD33*%
%ADD34R,2.0000X3.9000*%
%ADD35C,0.7032*%
%ADD36C,1.6812*%
%ADD37C,6.5532*%
%ADD38C,1.7272*%
D17*
X894800Y5300D02*
X896265Y7209D01*
X897186Y9433D01*
X897500Y11818D01*
X811642Y15166D02*
X811633Y15174D01*
X83952Y4128D02*
X85084Y5821D01*
X85482Y7819D01*
X537931Y872959D02*
X539574Y874961D01*
X540794Y877245D01*
X541546Y879723D01*
X541800Y882300D01*
X14719Y348360D02*
X16734Y349771D01*
X18473Y351511D01*
X19884Y353526D01*
X20924Y355755D01*
X21560Y358131D01*
X21775Y360582D01*
X4900Y5600D02*
X7092Y3918D01*
X9645Y2861D01*
X12384Y2500D01*
X2600Y11153D02*
X3198Y8148D01*
X4900Y5600D01*
X80023Y2500D02*
X82149Y2923D01*
X83952Y4128D01*
X88637Y15437D02*
X86925Y13206D01*
X85849Y10608D01*
X85482Y7819D01*
X95791Y18400D02*
X93172Y18055D01*
X90732Y17045D01*
X88637Y15437D01*
X11436Y897500D02*
X9226Y897209D01*
X7168Y896356D01*
X5400Y895000D01*
X331161Y894484D02*
X329028Y896120D01*
X326544Y897149D01*
X323879Y897500D01*
X333600Y888596D02*
X333316Y890751D01*
X332484Y892759D01*
X331161Y894484D01*
X814500Y8253D02*
X814167Y10783D01*
X813193Y13140D01*
X811642Y15166D01*
X811633Y15174D02*
X809344Y16925D01*
X806680Y18025D01*
X803823Y18400D01*
X816235Y4065D02*
X818079Y2833D01*
X820255Y2400D01*
X814500Y8253D02*
X814951Y5987D01*
X816235Y4065D01*
X887799Y2400D02*
X890361Y2737D01*
X892749Y3726D01*
X894800Y5300D01*
X527536Y868200D02*
X530191Y868461D01*
X532743Y869236D01*
X535095Y870493D01*
X537157Y872185D01*
X337700Y872600D02*
X339492Y871069D01*
X341502Y869837D01*
X343680Y868935D01*
X345973Y868385D01*
X348323Y868200D01*
X333600Y882498D02*
X333869Y879767D01*
X334665Y877141D01*
X335959Y874721D01*
X337700Y872600D01*
X544600Y894800D02*
X543081Y892820D01*
X542126Y890514D01*
X541800Y888040D01*
X551118Y897500D02*
X548732Y897186D01*
X546509Y896265D01*
X544600Y894800D01*
X5400Y895000D02*
X3885Y893027D01*
X2930Y890729D01*
X2600Y888263D01*
Y561842D02*
X3167Y559509D01*
X4279Y557381D01*
X5868Y555583D01*
X7844Y554219D01*
X21700Y537611D02*
X21528Y540202D01*
X20998Y542744D01*
X20123Y545189D01*
X18917Y547489D01*
X17372Y549529D01*
X15468Y551239D01*
X13274Y552556D01*
X10870Y553433D01*
X5741Y344308D02*
X4035Y342084D01*
X2964Y339494D01*
X2600Y336715D01*
X7596Y345622D02*
X5741Y344308D01*
X11389Y346841D02*
X14719Y348360D01*
X885071Y551762D02*
X882761Y549861D01*
X880790Y547612D01*
Y547612D02*
X879691Y545401D01*
X878875Y543071D01*
X878354Y540657D01*
X878300Y539939D01*
X890200Y553700D02*
X887351Y552827D01*
X884680Y551507D01*
X889655Y553558D02*
X892332Y554464D01*
X894617Y556129D01*
X896300Y558400D01*
X897600Y888223D02*
X897298Y890520D01*
X896411Y892662D01*
X895000Y894500D01*
X892879Y896128D01*
X890408Y897151D01*
X887757Y897500D01*
X896252Y558235D02*
X897258Y560315D01*
X897600Y562600D01*
X888102Y347176D02*
X891012Y346242D01*
X897500Y337177D02*
X897167Y339703D01*
X896192Y342058D01*
X894641Y344080D01*
X892961Y345387D01*
X891012Y346242D01*
X878300Y362200D02*
X878317Y359790D01*
X878707Y357412D01*
X879462Y355123D01*
Y355123D02*
X880530Y352932D01*
X882059Y351034D01*
X882720Y350429D02*
X885220Y348486D01*
X888102Y347176D01*
X11389Y346841D02*
X7964Y345774D01*
D19*
X722758Y171625D02*
D03*
Y177975D02*
D03*
Y184325D02*
D03*
Y190675D02*
D03*
Y197025D02*
D03*
Y203375D02*
D03*
Y209725D02*
D03*
Y216075D02*
D03*
Y222425D02*
D03*
Y228775D02*
D03*
Y235125D02*
D03*
Y241475D02*
D03*
Y247825D02*
D03*
Y254175D02*
D03*
X777242D02*
D03*
Y247825D02*
D03*
Y241475D02*
D03*
Y235125D02*
D03*
Y228775D02*
D03*
Y222425D02*
D03*
Y216075D02*
D03*
Y209725D02*
D03*
Y203375D02*
D03*
Y197025D02*
D03*
Y190675D02*
D03*
Y184325D02*
D03*
Y177975D02*
D03*
Y171625D02*
D03*
X122759Y253499D02*
D03*
Y247149D02*
D03*
Y240799D02*
D03*
Y234449D02*
D03*
Y228099D02*
D03*
Y221749D02*
D03*
Y215399D02*
D03*
Y209049D02*
D03*
Y202699D02*
D03*
Y196349D02*
D03*
Y189999D02*
D03*
Y183649D02*
D03*
Y177299D02*
D03*
Y170949D02*
D03*
X177241D02*
D03*
Y177299D02*
D03*
Y183649D02*
D03*
Y189999D02*
D03*
Y196349D02*
D03*
Y202699D02*
D03*
Y209049D02*
D03*
Y215399D02*
D03*
Y221749D02*
D03*
Y228099D02*
D03*
Y234449D02*
D03*
Y240799D02*
D03*
Y247149D02*
D03*
Y253499D02*
D03*
D21*
X623549Y105425D02*
D03*
Y99075D02*
D03*
Y92725D02*
D03*
Y86375D02*
D03*
Y80025D02*
D03*
Y73675D02*
D03*
Y67325D02*
D03*
Y60975D02*
D03*
X677651D02*
D03*
Y67325D02*
D03*
Y73675D02*
D03*
Y80025D02*
D03*
Y86375D02*
D03*
Y92725D02*
D03*
Y99075D02*
D03*
Y105425D02*
D03*
D27*
X866488Y278900D02*
D03*
X848488D02*
D03*
X671500Y153500D02*
D03*
X689500D02*
D03*
X671500Y184786D02*
D03*
X689500D02*
D03*
X671500Y231714D02*
D03*
X689500D02*
D03*
X671500Y216071D02*
D03*
X689500D02*
D03*
X671500Y169143D02*
D03*
X689500D02*
D03*
X671500Y200428D02*
D03*
X689500D02*
D03*
X671500Y247357D02*
D03*
X689500D02*
D03*
X671500Y263000D02*
D03*
X689500D02*
D03*
X830000Y200429D02*
D03*
X812000D02*
D03*
X830000Y184786D02*
D03*
X812000D02*
D03*
X830000Y169143D02*
D03*
X812000D02*
D03*
X830000Y153500D02*
D03*
X812000D02*
D03*
X830000Y216071D02*
D03*
X812000D02*
D03*
X830000Y231714D02*
D03*
X812000D02*
D03*
X830000Y247357D02*
D03*
X812000D02*
D03*
X830000Y263000D02*
D03*
X812000D02*
D03*
X71200Y184465D02*
D03*
X89200D02*
D03*
X71200Y169792D02*
D03*
X89200D02*
D03*
X71200Y213810D02*
D03*
X89200D02*
D03*
X71200Y199137D02*
D03*
X89200D02*
D03*
X71200Y243155D02*
D03*
X89200D02*
D03*
X71200Y228482D02*
D03*
X89200D02*
D03*
X71200Y272500D02*
D03*
X89200D02*
D03*
X71200Y257827D02*
D03*
X89200D02*
D03*
X231800Y184465D02*
D03*
X213800D02*
D03*
X231800Y199137D02*
D03*
X213800D02*
D03*
X231800Y213810D02*
D03*
X213800D02*
D03*
X231800Y228482D02*
D03*
X213800D02*
D03*
X231800Y243155D02*
D03*
X213800D02*
D03*
Y169792D02*
D03*
X231800D02*
D03*
Y257827D02*
D03*
X213800D02*
D03*
X231800Y272500D02*
D03*
X213800D02*
D03*
X95793Y151592D02*
D03*
X113793D02*
D03*
X781900Y278900D02*
D03*
X763900D02*
D03*
X830000D02*
D03*
X812000D02*
D03*
X28599Y151592D02*
D03*
X46599D02*
D03*
X62196D02*
D03*
X80196D02*
D03*
D28*
X716932Y278899D02*
D03*
X735091Y278900D02*
D03*
X661437Y121399D02*
D03*
X679596Y121400D02*
D03*
X621225Y121399D02*
D03*
X639384Y121400D02*
D03*
X648168Y153493D02*
D03*
X630009Y153492D02*
D03*
X648168Y169137D02*
D03*
X630009Y169136D02*
D03*
X648168Y184781D02*
D03*
X630009Y184780D02*
D03*
X648168Y200425D02*
D03*
X630009Y200424D02*
D03*
X648168Y216069D02*
D03*
X630009Y216068D02*
D03*
X648168Y231713D02*
D03*
X630009Y231712D02*
D03*
X648168Y263001D02*
D03*
X630009Y263000D02*
D03*
X648168Y247357D02*
D03*
X630009Y247356D02*
D03*
X850132Y200432D02*
D03*
X868291Y200433D02*
D03*
X850132Y184790D02*
D03*
X868291Y184791D02*
D03*
X850132Y153507D02*
D03*
X868291Y153508D02*
D03*
X850132Y169149D02*
D03*
X868291Y169150D02*
D03*
X850132Y216073D02*
D03*
X868291Y216075D02*
D03*
X850132Y231715D02*
D03*
X868291Y231716D02*
D03*
X850132Y262999D02*
D03*
X868291Y263000D02*
D03*
X850132Y247357D02*
D03*
X868291Y247358D02*
D03*
X46868Y184467D02*
D03*
X28709Y184466D02*
D03*
X46868Y169793D02*
D03*
X28709Y169792D02*
D03*
X46868Y213814D02*
D03*
X28709Y213813D02*
D03*
X46868Y199141D02*
D03*
X28709Y199139D02*
D03*
X46868Y243162D02*
D03*
X28709Y243160D02*
D03*
X46868Y228488D02*
D03*
X28709Y228487D02*
D03*
X46868Y272509D02*
D03*
X28709Y272508D02*
D03*
X46868Y257835D02*
D03*
X28709Y257834D02*
D03*
X255000Y169791D02*
D03*
X273159Y169792D02*
D03*
X255000Y184463D02*
D03*
X273159Y184465D02*
D03*
X255000Y199136D02*
D03*
X273159Y199137D02*
D03*
X255000Y213808D02*
D03*
X273159Y213810D02*
D03*
X255000Y228481D02*
D03*
X273159Y228482D02*
D03*
X255000Y243154D02*
D03*
X273159Y243155D02*
D03*
X255000Y257826D02*
D03*
X273159Y257827D02*
D03*
X255000Y272499D02*
D03*
X273159Y272500D02*
D03*
X127587Y151600D02*
D03*
X145746Y151601D02*
D03*
X689390Y278900D02*
D03*
X671231Y278899D02*
D03*
X161184Y151600D02*
D03*
X179343Y151601D02*
D03*
D29*
X532200Y170600D02*
D03*
Y188600D02*
D03*
X532100Y214652D02*
D03*
Y232652D02*
D03*
D30*
X401700Y169345D02*
D03*
X401699Y187504D02*
D03*
X401700Y216675D02*
D03*
X401699Y234834D02*
D03*
X394000Y94509D02*
D03*
X393999Y112668D02*
D03*
X394000Y82559D02*
D03*
X394001Y64400D02*
D03*
X286200Y94509D02*
D03*
X286199Y112668D02*
D03*
X286200Y82559D02*
D03*
X286201Y64400D02*
D03*
D31*
X502350Y231150D02*
D03*
Y224650D02*
D03*
Y218150D02*
D03*
Y211650D02*
D03*
Y205150D02*
D03*
Y198650D02*
D03*
Y192150D02*
D03*
Y185650D02*
D03*
Y179150D02*
D03*
Y172650D02*
D03*
X432250D02*
D03*
Y179150D02*
D03*
Y185650D02*
D03*
Y192150D02*
D03*
Y198650D02*
D03*
Y205150D02*
D03*
Y211650D02*
D03*
Y218150D02*
D03*
Y224650D02*
D03*
Y231150D02*
D03*
D32*
X311950Y107425D02*
D03*
Y94725D02*
D03*
Y82025D02*
D03*
Y69325D02*
D03*
X368450Y107425D02*
D03*
Y94725D02*
D03*
Y82025D02*
D03*
Y69325D02*
D03*
D33*
X166000Y114000D02*
D03*
X146000D02*
D03*
X126000D02*
D03*
X186000D02*
D03*
X206000D02*
D03*
X226000D02*
D03*
Y66000D02*
D03*
X206000D02*
D03*
X126000D02*
D03*
X146000D02*
D03*
X166000D02*
D03*
X186000D02*
D03*
D34*
X854329Y756676D02*
D03*
X807329D02*
D03*
X372129Y320276D02*
D03*
X419129D02*
D03*
X698529D02*
D03*
X745529D02*
D03*
X589729D02*
D03*
X636729D02*
D03*
X372100Y465743D02*
D03*
X419100D02*
D03*
X589700D02*
D03*
X636700D02*
D03*
X480929Y320276D02*
D03*
X527929D02*
D03*
X698500Y465743D02*
D03*
X745500D02*
D03*
X480900D02*
D03*
X527900D02*
D03*
X263300D02*
D03*
X310300D02*
D03*
X263329Y320276D02*
D03*
X310329D02*
D03*
X45729Y756676D02*
D03*
X92729D02*
D03*
X154500D02*
D03*
X201500D02*
D03*
X263300Y611210D02*
D03*
X310300D02*
D03*
X154500D02*
D03*
X201500D02*
D03*
X45729D02*
D03*
X92729D02*
D03*
X263300Y756676D02*
D03*
X310300D02*
D03*
X154529Y320276D02*
D03*
X201529D02*
D03*
X45729D02*
D03*
X92729D02*
D03*
X154500Y465743D02*
D03*
X201500D02*
D03*
X45729D02*
D03*
X92729D02*
D03*
X807329Y320276D02*
D03*
X854329D02*
D03*
X807329Y465743D02*
D03*
X854329D02*
D03*
X589700Y611210D02*
D03*
X636700D02*
D03*
X698500D02*
D03*
X745500D02*
D03*
X807329D02*
D03*
X854329D02*
D03*
X480900D02*
D03*
X527900D02*
D03*
X372100D02*
D03*
X419100D02*
D03*
X480900Y756676D02*
D03*
X527900D02*
D03*
X698500D02*
D03*
X745500D02*
D03*
X589700D02*
D03*
X636700D02*
D03*
X372100D02*
D03*
X419100D02*
D03*
D35*
X537157Y872185D02*
X537931Y872959D01*
X12384Y2500D02*
X80023D01*
X95791Y18400D02*
X803823D01*
X11436Y897500D02*
X323879D01*
X820255Y2400D02*
X887799D01*
X348323Y868200D02*
X527536D01*
X333600Y882498D02*
Y888596D01*
X541800Y882300D02*
Y888040D01*
X551118Y897500D02*
X887757D01*
X21700Y362270D02*
X21751Y361407D01*
X2600Y561842D02*
Y888263D01*
X10846Y553440D02*
X10870Y553433D01*
X21700Y537611D02*
X21700Y362270D01*
X7844Y554219D02*
X10846Y553440D01*
X2600Y336715D02*
X2600Y11153D01*
X878300Y539939D02*
X878300Y539923D01*
X897600Y562600D02*
X897600Y888223D01*
X897500Y11818D02*
Y337177D01*
X878300Y362200D02*
Y539923D01*
D36*
X103500Y114000D02*
D03*
Y66200D02*
D03*
X248500Y113800D02*
D03*
Y66200D02*
D03*
D37*
X849200Y50800D02*
D03*
X49100D02*
D03*
X811100Y849200D02*
D03*
X76200D02*
D03*
D38*
X849200Y27940D02*
D03*
X872060Y50800D02*
D03*
X849200Y73660D02*
D03*
X826340Y50800D02*
D03*
X833036Y34636D02*
D03*
X865365D02*
D03*
Y66965D02*
D03*
X833036D02*
D03*
X49100Y27940D02*
D03*
X71960Y50800D02*
D03*
X49100Y73660D02*
D03*
X26240Y50800D02*
D03*
X32936Y34636D02*
D03*
X65265D02*
D03*
Y66965D02*
D03*
X32936D02*
D03*
X811100Y826340D02*
D03*
X833960Y849200D02*
D03*
X811100Y872060D02*
D03*
X788240Y849200D02*
D03*
X794936Y833036D02*
D03*
X827264D02*
D03*
Y865365D02*
D03*
X794936D02*
D03*
X76200Y826340D02*
D03*
X99060Y849200D02*
D03*
X76200Y872060D02*
D03*
X53340Y849200D02*
D03*
X60036Y833036D02*
D03*
X92365D02*
D03*
Y865365D02*
D03*
X60036D02*
D03*
M02*
