G04*
G04 #@! TF.GenerationSoftware,Altium Limited,Altium Designer,24.1.2 (44)*
G04*
G04 Layer_Color=0*
%FSLAX44Y44*%
%MOMM*%
G71*
G04*
G04 #@! TF.SameCoordinates,FF60899B-E9A6-4C8F-AFAD-FD19F3B54CA5*
G04*
G04*
G04 #@! TF.FilePolarity,Positive*
G04*
G01*
G75*
%ADD77C,0.0254*%
D77*
X12000Y-0D02*
G02*
X0Y12000I0J12000D01*
G01*
X-0Y337230D01*
X10Y337110D01*
D02*
G02*
X9926Y348928I12000J0D01*
G01*
X9284Y348832D01*
D02*
G03*
X19200Y360650I-2084J11818D01*
G01*
Y539350D01*
D02*
G03*
X9284Y551168I-12000J0D01*
G01*
X9926Y551052D01*
D02*
G02*
X10Y562870I2084J11818D01*
G01*
X0Y562660D01*
Y888000D01*
D02*
G02*
X12000Y900000I12000J0D01*
G01*
X324100Y900000D01*
D02*
G02*
X336100Y888000I0J-12000D01*
G01*
Y882700D01*
D02*
G03*
X348100Y870700I12000J0D01*
G01*
X527300D01*
D02*
G03*
X539300Y882700I0J12000D01*
G01*
Y888000D01*
D02*
G02*
X551300Y900000I12000J0D01*
G01*
X888000Y900000D01*
D02*
G02*
X900000Y888000I0J-12000D01*
G01*
X900000Y562910D01*
X900000Y562850D01*
D02*
G02*
X890084Y551032I-12000J-0D01*
G01*
X890716Y551168D01*
D02*
G03*
X880800Y539350I2084J-11818D01*
G01*
Y360650D01*
D02*
G03*
X890716Y348832I12000J0D01*
G01*
X890094Y348968D01*
D02*
G02*
X900010Y337150I-2084J-11818D01*
G01*
X900000Y337360D01*
X900000Y12000D01*
D02*
G02*
X888000Y-0I-12000J0D01*
G01*
X819700D01*
X820000Y0D01*
D02*
G02*
X812000Y8000I0J8000D01*
G01*
D02*
G03*
X804000Y16000I-8000J0D01*
G01*
X96000Y16000D01*
D02*
G03*
X88000Y8000I-0J-8000D01*
G01*
D02*
G02*
X80000Y0I-8000J0D01*
G01*
X80800Y-0D01*
X12000D01*
M02*
