G04*
G04 #@! TF.GenerationSoftware,Altium Limited,Altium Designer,24.1.2 (44)*
G04*
G04 Layer_Color=32768*
%FSLAX44Y44*%
%MOMM*%
G71*
G04*
G04 #@! TF.SameCoordinates,FF60899B-E9A6-4C8F-AFAD-FD19F3B54CA5*
G04*
G04*
G04 #@! TF.FilePolarity,Positive*
G04*
G01*
G75*
%ADD15C,0.1000*%
%ADD73R,0.6000X0.2500*%
G36*
X520179Y161562D02*
X520246Y161558D01*
X520371Y161532D01*
X520479Y161495D01*
X520525Y161474D01*
X520570Y161458D01*
X520608Y161437D01*
X520645Y161416D01*
X520675Y161395D01*
X520700Y161378D01*
X520720Y161366D01*
X520733Y161353D01*
X520741Y161349D01*
X520746Y161345D01*
X520791Y161303D01*
X520833Y161258D01*
X520904Y161158D01*
X520958Y161058D01*
X521004Y160962D01*
X521020Y160916D01*
X521033Y160874D01*
X521045Y160833D01*
X521054Y160804D01*
X521062Y160774D01*
X521066Y160753D01*
X521070Y160741D01*
Y160737D01*
X520679Y160666D01*
X520658Y160766D01*
X520633Y160854D01*
X520600Y160928D01*
X520566Y160987D01*
X520537Y161037D01*
X520512Y161070D01*
X520495Y161087D01*
X520487Y161095D01*
X520425Y161145D01*
X520362Y161178D01*
X520296Y161203D01*
X520237Y161224D01*
X520183Y161233D01*
X520137Y161237D01*
X520121Y161241D01*
X520100D01*
X520017Y161237D01*
X519946Y161220D01*
X519879Y161195D01*
X519825Y161170D01*
X519783Y161141D01*
X519750Y161120D01*
X519733Y161103D01*
X519725Y161095D01*
X519675Y161041D01*
X519637Y160979D01*
X519612Y160920D01*
X519592Y160866D01*
X519583Y160816D01*
X519579Y160779D01*
X519575Y160749D01*
Y160745D01*
Y160741D01*
X519579Y160691D01*
X519583Y160645D01*
X519608Y160562D01*
X519637Y160491D01*
X519675Y160433D01*
X519712Y160391D01*
X519746Y160358D01*
X519771Y160341D01*
X519775Y160333D01*
X519779D01*
X519854Y160291D01*
X519933Y160258D01*
X520008Y160237D01*
X520079Y160220D01*
X520137Y160212D01*
X520187Y160208D01*
X520204Y160204D01*
X520250D01*
X520271Y160208D01*
X520283Y160212D01*
X520291D01*
X520337Y159866D01*
X520279Y159879D01*
X520225Y159891D01*
X520175Y159900D01*
X520133Y159904D01*
X520104Y159908D01*
X520058D01*
X519958Y159900D01*
X519871Y159879D01*
X519796Y159854D01*
X519729Y159820D01*
X519679Y159787D01*
X519642Y159762D01*
X519617Y159741D01*
X519608Y159733D01*
X519575Y159700D01*
X519550Y159662D01*
X519504Y159591D01*
X519471Y159516D01*
X519450Y159445D01*
X519437Y159383D01*
X519433Y159354D01*
Y159333D01*
X519429Y159312D01*
Y159300D01*
Y159291D01*
Y159287D01*
Y159237D01*
X519437Y159187D01*
X519458Y159096D01*
X519492Y159012D01*
X519525Y158946D01*
X519558Y158887D01*
X519592Y158846D01*
X519604Y158833D01*
X519612Y158821D01*
X519617Y158816D01*
X519621Y158812D01*
X519658Y158779D01*
X519696Y158750D01*
X519775Y158700D01*
X519854Y158667D01*
X519929Y158646D01*
X519991Y158629D01*
X520021Y158625D01*
X520046D01*
X520062Y158621D01*
X520092D01*
X520175Y158629D01*
X520254Y158646D01*
X520321Y158667D01*
X520379Y158696D01*
X520429Y158721D01*
X520462Y158746D01*
X520483Y158762D01*
X520491Y158766D01*
X520521Y158796D01*
X520546Y158829D01*
X520591Y158908D01*
X520633Y158987D01*
X520662Y159066D01*
X520687Y159141D01*
X520695Y159171D01*
X520704Y159200D01*
X520708Y159221D01*
X520712Y159237D01*
X520716Y159250D01*
Y159254D01*
X521108Y159200D01*
X521100Y159125D01*
X521083Y159054D01*
X521066Y158991D01*
X521041Y158929D01*
X521016Y158871D01*
X520991Y158816D01*
X520962Y158766D01*
X520937Y158721D01*
X520908Y158683D01*
X520883Y158646D01*
X520858Y158617D01*
X520837Y158592D01*
X520816Y158571D01*
X520804Y158558D01*
X520796Y158550D01*
X520791Y158546D01*
X520737Y158500D01*
X520683Y158462D01*
X520625Y158429D01*
X520562Y158400D01*
X520504Y158379D01*
X520446Y158358D01*
X520337Y158329D01*
X520287Y158317D01*
X520237Y158308D01*
X520196Y158304D01*
X520162Y158300D01*
X520133Y158296D01*
X520092D01*
X520004Y158300D01*
X519925Y158308D01*
X519846Y158321D01*
X519775Y158342D01*
X519704Y158363D01*
X519642Y158387D01*
X519583Y158413D01*
X519529Y158442D01*
X519483Y158467D01*
X519442Y158492D01*
X519404Y158517D01*
X519375Y158537D01*
X519350Y158558D01*
X519333Y158571D01*
X519325Y158579D01*
X519321Y158583D01*
X519267Y158637D01*
X519221Y158696D01*
X519179Y158758D01*
X519142Y158816D01*
X519113Y158879D01*
X519088Y158937D01*
X519067Y158996D01*
X519050Y159050D01*
X519038Y159100D01*
X519029Y159146D01*
X519021Y159187D01*
X519017Y159225D01*
X519013Y159254D01*
Y159279D01*
Y159291D01*
Y159296D01*
X519021Y159408D01*
X519038Y159504D01*
X519063Y159591D01*
X519092Y159666D01*
X519121Y159729D01*
X519133Y159750D01*
X519146Y159770D01*
X519154Y159787D01*
X519162Y159800D01*
X519171Y159804D01*
Y159808D01*
X519233Y159879D01*
X519308Y159937D01*
X519379Y159987D01*
X519450Y160025D01*
X519512Y160049D01*
X519542Y160062D01*
X519567Y160070D01*
X519583Y160075D01*
X519600Y160079D01*
X519608Y160083D01*
X519612D01*
X519537Y160124D01*
X519471Y160166D01*
X519412Y160212D01*
X519367Y160258D01*
X519329Y160295D01*
X519304Y160324D01*
X519287Y160345D01*
X519283Y160354D01*
X519246Y160420D01*
X519217Y160487D01*
X519200Y160549D01*
X519183Y160608D01*
X519175Y160658D01*
X519171Y160699D01*
Y160724D01*
Y160728D01*
Y160733D01*
X519175Y160812D01*
X519188Y160887D01*
X519208Y160958D01*
X519229Y161020D01*
X519254Y161070D01*
X519271Y161112D01*
X519287Y161137D01*
X519292Y161141D01*
Y161145D01*
X519338Y161216D01*
X519392Y161274D01*
X519450Y161328D01*
X519504Y161374D01*
X519554Y161408D01*
X519592Y161432D01*
X519608Y161441D01*
X519621Y161449D01*
X519625Y161453D01*
X519629D01*
X519712Y161491D01*
X519796Y161520D01*
X519875Y161537D01*
X519950Y161553D01*
X520012Y161562D01*
X520042D01*
X520062Y161566D01*
X520108D01*
X520179Y161562D01*
D02*
G37*
G36*
X522624D02*
X522703Y161558D01*
X522778Y161545D01*
X522845Y161528D01*
X522912Y161512D01*
X522970Y161491D01*
X523024Y161470D01*
X523074Y161449D01*
X523120Y161424D01*
X523157Y161403D01*
X523191Y161383D01*
X523220Y161366D01*
X523241Y161349D01*
X523257Y161337D01*
X523266Y161332D01*
X523270Y161328D01*
X523320Y161283D01*
X523362Y161233D01*
X523399Y161178D01*
X523432Y161120D01*
X523461Y161066D01*
X523486Y161008D01*
X523524Y160895D01*
X523541Y160845D01*
X523553Y160795D01*
X523561Y160753D01*
X523570Y160716D01*
X523574Y160683D01*
Y160662D01*
X523578Y160645D01*
Y160641D01*
X523174Y160599D01*
X523166Y160708D01*
X523149Y160799D01*
X523120Y160879D01*
X523087Y160949D01*
X523057Y160999D01*
X523028Y161041D01*
X523012Y161062D01*
X523003Y161070D01*
X522937Y161128D01*
X522862Y161170D01*
X522782Y161199D01*
X522712Y161220D01*
X522649Y161233D01*
X522620Y161237D01*
X522595D01*
X522578Y161241D01*
X522549D01*
X522453Y161233D01*
X522366Y161216D01*
X522291Y161191D01*
X522228Y161162D01*
X522178Y161128D01*
X522141Y161103D01*
X522120Y161087D01*
X522112Y161078D01*
X522053Y161016D01*
X522012Y160949D01*
X521983Y160887D01*
X521962Y160824D01*
X521949Y160770D01*
X521945Y160724D01*
X521941Y160708D01*
Y160699D01*
Y160691D01*
Y160687D01*
Y160645D01*
X521949Y160604D01*
X521970Y160516D01*
X521999Y160437D01*
X522033Y160366D01*
X522070Y160304D01*
X522087Y160279D01*
X522099Y160254D01*
X522112Y160237D01*
X522120Y160224D01*
X522124Y160216D01*
X522128Y160212D01*
X522166Y160162D01*
X522212Y160112D01*
X522262Y160058D01*
X522316Y160000D01*
X522433Y159887D01*
X522549Y159779D01*
X522603Y159729D01*
X522658Y159683D01*
X522707Y159641D01*
X522749Y159604D01*
X522782Y159575D01*
X522812Y159554D01*
X522828Y159537D01*
X522832Y159533D01*
X522953Y159433D01*
X523057Y159341D01*
X523145Y159258D01*
X523216Y159187D01*
X523274Y159129D01*
X523316Y159083D01*
X523328Y159066D01*
X523341Y159054D01*
X523345Y159050D01*
X523349Y159046D01*
X523411Y158967D01*
X523466Y158891D01*
X523507Y158821D01*
X523545Y158754D01*
X523574Y158700D01*
X523591Y158658D01*
X523599Y158642D01*
X523603Y158629D01*
X523607Y158625D01*
Y158621D01*
X523624Y158571D01*
X523636Y158525D01*
X523645Y158479D01*
X523649Y158438D01*
X523653Y158400D01*
Y158375D01*
Y158358D01*
Y158350D01*
X521533D01*
Y158729D01*
X523107D01*
X523053Y158804D01*
X523024Y158841D01*
X522999Y158871D01*
X522974Y158900D01*
X522957Y158921D01*
X522945Y158933D01*
X522941Y158937D01*
X522920Y158958D01*
X522891Y158987D01*
X522862Y159017D01*
X522828Y159046D01*
X522753Y159112D01*
X522674Y159179D01*
X522603Y159241D01*
X522570Y159271D01*
X522545Y159296D01*
X522520Y159312D01*
X522503Y159329D01*
X522491Y159337D01*
X522487Y159341D01*
X522412Y159408D01*
X522337Y159471D01*
X522274Y159525D01*
X522212Y159579D01*
X522158Y159629D01*
X522108Y159679D01*
X522062Y159720D01*
X522024Y159758D01*
X521987Y159791D01*
X521958Y159820D01*
X521933Y159845D01*
X521912Y159866D01*
X521899Y159883D01*
X521887Y159895D01*
X521879Y159900D01*
Y159904D01*
X521816Y159979D01*
X521762Y160054D01*
X521716Y160120D01*
X521679Y160179D01*
X521649Y160224D01*
X521633Y160262D01*
X521620Y160287D01*
X521616Y160295D01*
X521591Y160366D01*
X521570Y160433D01*
X521558Y160499D01*
X521545Y160554D01*
X521541Y160604D01*
X521537Y160641D01*
Y160666D01*
Y160674D01*
X521541Y160745D01*
X521549Y160812D01*
X521562Y160874D01*
X521579Y160933D01*
X521624Y161041D01*
X521645Y161091D01*
X521670Y161133D01*
X521699Y161174D01*
X521720Y161208D01*
X521745Y161237D01*
X521766Y161262D01*
X521783Y161283D01*
X521795Y161295D01*
X521804Y161303D01*
X521808Y161308D01*
X521862Y161353D01*
X521916Y161391D01*
X521974Y161428D01*
X522037Y161458D01*
X522099Y161483D01*
X522158Y161503D01*
X522274Y161532D01*
X522328Y161545D01*
X522378Y161553D01*
X522424Y161558D01*
X522466Y161562D01*
X522495Y161566D01*
X522541D01*
X522624Y161562D01*
D02*
G37*
G36*
X516063Y159866D02*
X515693Y159812D01*
X515659Y159862D01*
X515622Y159904D01*
X515580Y159945D01*
X515543Y159975D01*
X515509Y160004D01*
X515484Y160020D01*
X515468Y160033D01*
X515459Y160037D01*
X515401Y160066D01*
X515339Y160091D01*
X515280Y160108D01*
X515230Y160116D01*
X515180Y160124D01*
X515147Y160129D01*
X515055D01*
X515005Y160120D01*
X514905Y160100D01*
X514822Y160066D01*
X514751Y160033D01*
X514693Y159995D01*
X514651Y159962D01*
X514639Y159950D01*
X514626Y159941D01*
X514618Y159937D01*
Y159933D01*
X514585Y159895D01*
X514555Y159854D01*
X514510Y159766D01*
X514476Y159679D01*
X514455Y159591D01*
X514439Y159516D01*
X514435Y159483D01*
Y159454D01*
X514430Y159433D01*
Y159416D01*
Y159404D01*
Y159400D01*
Y159333D01*
X514439Y159275D01*
X514460Y159162D01*
X514493Y159066D01*
X514526Y158983D01*
X514547Y158950D01*
X514564Y158921D01*
X514580Y158891D01*
X514597Y158871D01*
X514609Y158854D01*
X514618Y158841D01*
X514622Y158837D01*
X514626Y158833D01*
X514664Y158796D01*
X514701Y158762D01*
X514743Y158733D01*
X514785Y158712D01*
X514864Y158671D01*
X514943Y158646D01*
X515009Y158633D01*
X515039Y158629D01*
X515059Y158625D01*
X515080Y158621D01*
X515109D01*
X515197Y158629D01*
X515272Y158646D01*
X515343Y158667D01*
X515401Y158696D01*
X515447Y158721D01*
X515484Y158746D01*
X515505Y158762D01*
X515513Y158766D01*
X515568Y158829D01*
X515613Y158900D01*
X515651Y158975D01*
X515680Y159050D01*
X515697Y159112D01*
X515705Y159141D01*
X515713Y159166D01*
X515718Y159187D01*
Y159204D01*
X515722Y159212D01*
Y159216D01*
X516134Y159187D01*
X516126Y159112D01*
X516109Y159042D01*
X516092Y158979D01*
X516068Y158917D01*
X516047Y158858D01*
X516017Y158804D01*
X515993Y158754D01*
X515963Y158712D01*
X515938Y158671D01*
X515909Y158637D01*
X515888Y158608D01*
X515863Y158583D01*
X515847Y158562D01*
X515834Y158550D01*
X515826Y158542D01*
X515822Y158537D01*
X515768Y158496D01*
X515713Y158458D01*
X515655Y158425D01*
X515593Y158400D01*
X515534Y158375D01*
X515476Y158354D01*
X515364Y158325D01*
X515309Y158317D01*
X515263Y158308D01*
X515218Y158304D01*
X515180Y158300D01*
X515151Y158296D01*
X515109D01*
X515014Y158300D01*
X514922Y158313D01*
X514835Y158333D01*
X514751Y158358D01*
X514676Y158387D01*
X514609Y158417D01*
X514547Y158454D01*
X514489Y158492D01*
X514439Y158525D01*
X514393Y158562D01*
X514355Y158592D01*
X514326Y158625D01*
X514301Y158646D01*
X514281Y158667D01*
X514272Y158679D01*
X514268Y158683D01*
X514222Y158746D01*
X514185Y158808D01*
X514151Y158871D01*
X514122Y158933D01*
X514097Y158996D01*
X514076Y159058D01*
X514047Y159179D01*
X514035Y159229D01*
X514026Y159279D01*
X514022Y159325D01*
X514018Y159362D01*
X514014Y159391D01*
Y159412D01*
Y159429D01*
Y159433D01*
X514018Y159516D01*
X514026Y159595D01*
X514039Y159670D01*
X514060Y159746D01*
X514081Y159812D01*
X514105Y159870D01*
X514131Y159929D01*
X514160Y159979D01*
X514185Y160025D01*
X514214Y160066D01*
X514239Y160100D01*
X514260Y160129D01*
X514281Y160154D01*
X514293Y160170D01*
X514301Y160179D01*
X514305Y160183D01*
X514360Y160233D01*
X514418Y160279D01*
X514476Y160316D01*
X514535Y160354D01*
X514597Y160379D01*
X514655Y160404D01*
X514710Y160424D01*
X514764Y160437D01*
X514818Y160449D01*
X514864Y160458D01*
X514905Y160466D01*
X514939Y160470D01*
X514968Y160474D01*
X515009D01*
X515068Y160470D01*
X515126Y160466D01*
X515238Y160441D01*
X515339Y160412D01*
X515430Y160375D01*
X515472Y160354D01*
X515505Y160337D01*
X515538Y160316D01*
X515564Y160304D01*
X515584Y160291D01*
X515601Y160279D01*
X515609Y160275D01*
X515613Y160270D01*
X515443Y161137D01*
X514164D01*
Y161512D01*
X515755D01*
X516063Y159866D01*
D02*
G37*
G36*
X525432Y161603D02*
X525544Y161591D01*
X525644Y161570D01*
X525732Y161553D01*
X525769Y161541D01*
X525802Y161532D01*
X525832Y161520D01*
X525857Y161512D01*
X525877Y161507D01*
X525890Y161499D01*
X525898Y161495D01*
X525902D01*
X525994Y161449D01*
X526077Y161399D01*
X526144Y161345D01*
X526202Y161295D01*
X526244Y161249D01*
X526277Y161208D01*
X526294Y161183D01*
X526302Y161178D01*
Y161174D01*
X526348Y161095D01*
X526381Y161016D01*
X526407Y160941D01*
X526423Y160870D01*
X526432Y160808D01*
X526436Y160762D01*
X526440Y160745D01*
Y160733D01*
Y160724D01*
Y160720D01*
X526436Y160641D01*
X526423Y160566D01*
X526407Y160495D01*
X526386Y160437D01*
X526365Y160387D01*
X526348Y160354D01*
X526336Y160329D01*
X526331Y160324D01*
Y160320D01*
X526286Y160258D01*
X526232Y160200D01*
X526173Y160149D01*
X526119Y160108D01*
X526069Y160070D01*
X526027Y160045D01*
X526011Y160037D01*
X525998Y160029D01*
X525994Y160025D01*
X525990D01*
X525952Y160008D01*
X525911Y159987D01*
X525819Y159954D01*
X525715Y159916D01*
X525615Y159887D01*
X525519Y159858D01*
X525482Y159850D01*
X525444Y159837D01*
X525415Y159833D01*
X525394Y159825D01*
X525378Y159820D01*
X525373D01*
X525294Y159800D01*
X525224Y159783D01*
X525157Y159766D01*
X525098Y159754D01*
X525044Y159737D01*
X524999Y159725D01*
X524957Y159716D01*
X524924Y159704D01*
X524890Y159696D01*
X524865Y159687D01*
X524844Y159683D01*
X524828Y159675D01*
X524811Y159670D01*
X524803Y159666D01*
X524732Y159637D01*
X524674Y159604D01*
X524624Y159575D01*
X524582Y159545D01*
X524553Y159521D01*
X524532Y159500D01*
X524520Y159483D01*
X524515Y159479D01*
X524486Y159437D01*
X524461Y159391D01*
X524445Y159346D01*
X524436Y159304D01*
X524428Y159271D01*
X524424Y159241D01*
Y159225D01*
Y159216D01*
X524428Y159162D01*
X524436Y159112D01*
X524453Y159066D01*
X524469Y159025D01*
X524486Y158991D01*
X524503Y158962D01*
X524511Y158946D01*
X524515Y158941D01*
X524553Y158896D01*
X524599Y158858D01*
X524645Y158825D01*
X524690Y158796D01*
X524732Y158775D01*
X524765Y158758D01*
X524786Y158750D01*
X524790Y158746D01*
X524794D01*
X524865Y158721D01*
X524936Y158704D01*
X525011Y158692D01*
X525074Y158683D01*
X525132Y158679D01*
X525178Y158675D01*
X525219D01*
X525319Y158679D01*
X525411Y158687D01*
X525494Y158704D01*
X525565Y158721D01*
X525628Y158737D01*
X525653Y158746D01*
X525673Y158754D01*
X525690Y158758D01*
X525703Y158762D01*
X525707Y158766D01*
X525711D01*
X525786Y158804D01*
X525853Y158846D01*
X525907Y158887D01*
X525952Y158929D01*
X525986Y158962D01*
X526011Y158991D01*
X526027Y159008D01*
X526032Y159017D01*
X526065Y159079D01*
X526094Y159146D01*
X526119Y159212D01*
X526136Y159275D01*
X526148Y159333D01*
X526157Y159375D01*
Y159391D01*
X526161Y159404D01*
Y159412D01*
Y159416D01*
X526561Y159383D01*
X526552Y159266D01*
X526531Y159154D01*
X526502Y159058D01*
X526469Y158971D01*
X526452Y158933D01*
X526440Y158900D01*
X526423Y158875D01*
X526411Y158850D01*
X526402Y158829D01*
X526394Y158816D01*
X526386Y158808D01*
Y158804D01*
X526319Y158716D01*
X526244Y158637D01*
X526169Y158571D01*
X526094Y158517D01*
X526027Y158475D01*
X525998Y158458D01*
X525978Y158446D01*
X525957Y158433D01*
X525940Y158425D01*
X525932Y158421D01*
X525928D01*
X525811Y158379D01*
X525690Y158350D01*
X525565Y158325D01*
X525453Y158313D01*
X525398Y158308D01*
X525353Y158304D01*
X525307Y158300D01*
X525269D01*
X525240Y158296D01*
X525199D01*
X525074Y158300D01*
X524957Y158317D01*
X524853Y158337D01*
X524765Y158358D01*
X524724Y158371D01*
X524690Y158383D01*
X524661Y158392D01*
X524632Y158400D01*
X524615Y158408D01*
X524599Y158417D01*
X524590Y158421D01*
X524586D01*
X524490Y158471D01*
X524403Y158529D01*
X524332Y158587D01*
X524274Y158642D01*
X524228Y158692D01*
X524190Y158733D01*
X524182Y158750D01*
X524174Y158762D01*
X524165Y158766D01*
Y158771D01*
X524115Y158854D01*
X524078Y158941D01*
X524053Y159021D01*
X524032Y159096D01*
X524024Y159158D01*
X524020Y159183D01*
Y159208D01*
X524016Y159225D01*
Y159237D01*
Y159246D01*
Y159250D01*
X524020Y159346D01*
X524036Y159429D01*
X524057Y159508D01*
X524082Y159575D01*
X524111Y159629D01*
X524132Y159670D01*
X524140Y159683D01*
X524149Y159696D01*
X524153Y159700D01*
Y159704D01*
X524207Y159775D01*
X524274Y159841D01*
X524340Y159895D01*
X524407Y159945D01*
X524469Y159983D01*
X524520Y160008D01*
X524540Y160020D01*
X524553Y160029D01*
X524561Y160033D01*
X524565D01*
X524603Y160049D01*
X524649Y160066D01*
X524703Y160083D01*
X524757Y160104D01*
X524874Y160137D01*
X524990Y160166D01*
X525048Y160183D01*
X525098Y160195D01*
X525149Y160208D01*
X525190Y160216D01*
X525224Y160224D01*
X525253Y160233D01*
X525269Y160237D01*
X525274D01*
X525365Y160258D01*
X525448Y160279D01*
X525523Y160299D01*
X525590Y160320D01*
X525648Y160341D01*
X525698Y160358D01*
X525744Y160379D01*
X525786Y160395D01*
X525815Y160408D01*
X525844Y160420D01*
X525865Y160433D01*
X525882Y160445D01*
X525894Y160449D01*
X525902Y160458D01*
X525911Y160462D01*
X525952Y160508D01*
X525982Y160554D01*
X526003Y160599D01*
X526015Y160645D01*
X526023Y160687D01*
X526032Y160716D01*
Y160737D01*
Y160745D01*
X526023Y160816D01*
X526003Y160883D01*
X525978Y160941D01*
X525944Y160991D01*
X525911Y161033D01*
X525886Y161062D01*
X525865Y161078D01*
X525857Y161087D01*
X525823Y161112D01*
X525782Y161133D01*
X525694Y161170D01*
X525603Y161195D01*
X525511Y161212D01*
X525428Y161220D01*
X525394Y161224D01*
X525361Y161228D01*
X525232D01*
X525169Y161220D01*
X525111Y161216D01*
X525057Y161203D01*
X525007Y161191D01*
X524961Y161178D01*
X524919Y161166D01*
X524882Y161153D01*
X524853Y161137D01*
X524824Y161124D01*
X524799Y161112D01*
X524778Y161099D01*
X524765Y161087D01*
X524753Y161083D01*
X524744Y161074D01*
X524678Y161012D01*
X524628Y160937D01*
X524590Y160862D01*
X524561Y160791D01*
X524540Y160724D01*
X524532Y160695D01*
X524528Y160670D01*
X524524Y160649D01*
X524520Y160633D01*
Y160624D01*
Y160620D01*
X524111Y160649D01*
X524120Y160749D01*
X524140Y160845D01*
X524165Y160928D01*
X524195Y161003D01*
X524224Y161066D01*
X524236Y161091D01*
X524245Y161112D01*
X524257Y161128D01*
X524261Y161141D01*
X524270Y161145D01*
Y161149D01*
X524328Y161228D01*
X524399Y161299D01*
X524465Y161357D01*
X524536Y161403D01*
X524594Y161441D01*
X524645Y161470D01*
X524665Y161478D01*
X524678Y161487D01*
X524686Y161491D01*
X524690D01*
X524794Y161528D01*
X524903Y161558D01*
X525007Y161578D01*
X525103Y161595D01*
X525149Y161599D01*
X525190Y161603D01*
X525224D01*
X525257Y161607D01*
X525315D01*
X525432Y161603D01*
D02*
G37*
G36*
X517705Y161558D02*
X517817Y161537D01*
X517917Y161507D01*
X518000Y161474D01*
X518038Y161453D01*
X518067Y161437D01*
X518096Y161420D01*
X518117Y161408D01*
X518134Y161395D01*
X518146Y161387D01*
X518154Y161383D01*
X518159Y161378D01*
X518238Y161303D01*
X518309Y161216D01*
X518367Y161124D01*
X518417Y161041D01*
X518454Y160962D01*
X518471Y160928D01*
X518484Y160899D01*
X518492Y160874D01*
X518500Y160858D01*
X518504Y160845D01*
Y160841D01*
X518525Y160774D01*
X518542Y160704D01*
X518571Y160554D01*
X518592Y160399D01*
X518604Y160254D01*
X518613Y160187D01*
Y160124D01*
X518617Y160070D01*
X518621Y160025D01*
Y159983D01*
Y159954D01*
Y159937D01*
Y159929D01*
X518617Y159766D01*
X518609Y159612D01*
X518592Y159475D01*
X518571Y159346D01*
X518550Y159225D01*
X518521Y159121D01*
X518492Y159025D01*
X518463Y158937D01*
X518434Y158862D01*
X518409Y158800D01*
X518379Y158746D01*
X518359Y158700D01*
X518338Y158667D01*
X518321Y158646D01*
X518313Y158629D01*
X518309Y158625D01*
X518254Y158567D01*
X518200Y158517D01*
X518142Y158471D01*
X518084Y158433D01*
X518021Y158404D01*
X517959Y158375D01*
X517900Y158354D01*
X517842Y158337D01*
X517788Y158325D01*
X517738Y158313D01*
X517696Y158304D01*
X517655Y158300D01*
X517625D01*
X517600Y158296D01*
X517580D01*
X517517Y158300D01*
X517455Y158304D01*
X517342Y158325D01*
X517242Y158354D01*
X517159Y158392D01*
X517121Y158408D01*
X517092Y158425D01*
X517063Y158442D01*
X517042Y158454D01*
X517026Y158467D01*
X517009Y158475D01*
X517005Y158483D01*
X517001D01*
X516917Y158558D01*
X516847Y158646D01*
X516788Y158733D01*
X516738Y158821D01*
X516701Y158896D01*
X516684Y158929D01*
X516671Y158958D01*
X516663Y158983D01*
X516655Y159000D01*
X516651Y159012D01*
Y159017D01*
X516630Y159083D01*
X516613Y159154D01*
X516584Y159304D01*
X516563Y159458D01*
X516547Y159604D01*
X516542Y159670D01*
X516538Y159733D01*
Y159787D01*
X516534Y159833D01*
Y159875D01*
Y159904D01*
Y159920D01*
Y159929D01*
Y160016D01*
X516538Y160100D01*
X516542Y160175D01*
X516547Y160245D01*
X516551Y160316D01*
X516559Y160375D01*
X516563Y160433D01*
X516572Y160483D01*
X516580Y160529D01*
X516584Y160570D01*
X516592Y160604D01*
X516596Y160633D01*
X516601Y160654D01*
X516605Y160670D01*
X516609Y160679D01*
Y160683D01*
X516638Y160783D01*
X516667Y160879D01*
X516701Y160958D01*
X516734Y161028D01*
X516763Y161087D01*
X516784Y161128D01*
X516792Y161141D01*
X516801Y161153D01*
X516805Y161158D01*
Y161162D01*
X516855Y161233D01*
X516909Y161291D01*
X516963Y161341D01*
X517013Y161387D01*
X517059Y161420D01*
X517092Y161441D01*
X517117Y161458D01*
X517121Y161462D01*
X517126D01*
X517201Y161495D01*
X517280Y161520D01*
X517355Y161541D01*
X517425Y161553D01*
X517488Y161562D01*
X517513D01*
X517538Y161566D01*
X517642D01*
X517705Y161558D01*
D02*
G37*
G36*
X522674Y162600D02*
X522233D01*
X520983Y165803D01*
X521412D01*
X522278Y163475D01*
X522316Y163379D01*
X522349Y163283D01*
X522378Y163192D01*
X522403Y163112D01*
X522424Y163046D01*
X522433Y163021D01*
X522441Y162996D01*
X522445Y162975D01*
X522449Y162962D01*
X522453Y162954D01*
Y162950D01*
X522478Y163041D01*
X522508Y163137D01*
X522537Y163225D01*
X522562Y163304D01*
X522587Y163375D01*
X522595Y163404D01*
X522603Y163429D01*
X522612Y163446D01*
X522616Y163462D01*
X522620Y163471D01*
Y163475D01*
X523453Y165803D01*
X523915D01*
X522674Y162600D01*
D02*
G37*
G36*
X526561Y165424D02*
X525507D01*
Y162600D01*
X525082D01*
Y165424D01*
X524028D01*
Y165803D01*
X526561D01*
Y165424D01*
D02*
G37*
G36*
X517913Y163729D02*
Y163366D01*
X516521D01*
Y162600D01*
X516130D01*
Y163366D01*
X515697D01*
Y163729D01*
X516130D01*
Y165803D01*
X516451D01*
X517913Y163729D01*
D02*
G37*
G36*
X519617Y165853D02*
X519729Y165841D01*
X519829Y165820D01*
X519916Y165803D01*
X519954Y165791D01*
X519987Y165783D01*
X520017Y165770D01*
X520042Y165762D01*
X520062Y165758D01*
X520075Y165749D01*
X520083Y165745D01*
X520087D01*
X520179Y165699D01*
X520262Y165649D01*
X520329Y165595D01*
X520387Y165545D01*
X520429Y165499D01*
X520462Y165458D01*
X520479Y165433D01*
X520487Y165428D01*
Y165424D01*
X520533Y165345D01*
X520566Y165266D01*
X520591Y165191D01*
X520608Y165120D01*
X520616Y165058D01*
X520620Y165012D01*
X520625Y164995D01*
Y164983D01*
Y164974D01*
Y164970D01*
X520620Y164891D01*
X520608Y164816D01*
X520591Y164745D01*
X520570Y164687D01*
X520550Y164637D01*
X520533Y164604D01*
X520521Y164579D01*
X520516Y164575D01*
Y164570D01*
X520471Y164508D01*
X520416Y164450D01*
X520358Y164400D01*
X520304Y164358D01*
X520254Y164320D01*
X520212Y164295D01*
X520196Y164287D01*
X520183Y164279D01*
X520179Y164275D01*
X520175D01*
X520137Y164258D01*
X520096Y164237D01*
X520004Y164204D01*
X519900Y164166D01*
X519800Y164137D01*
X519704Y164108D01*
X519667Y164100D01*
X519629Y164087D01*
X519600Y164083D01*
X519579Y164075D01*
X519562Y164070D01*
X519558D01*
X519479Y164050D01*
X519408Y164033D01*
X519342Y164016D01*
X519283Y164004D01*
X519229Y163987D01*
X519183Y163975D01*
X519142Y163966D01*
X519108Y163954D01*
X519075Y163946D01*
X519050Y163937D01*
X519029Y163933D01*
X519013Y163925D01*
X518996Y163920D01*
X518988Y163916D01*
X518917Y163887D01*
X518858Y163854D01*
X518809Y163825D01*
X518767Y163796D01*
X518738Y163771D01*
X518717Y163750D01*
X518704Y163733D01*
X518700Y163729D01*
X518671Y163687D01*
X518646Y163641D01*
X518629Y163596D01*
X518621Y163554D01*
X518613Y163521D01*
X518609Y163491D01*
Y163475D01*
Y163466D01*
X518613Y163412D01*
X518621Y163362D01*
X518638Y163316D01*
X518654Y163275D01*
X518671Y163242D01*
X518688Y163212D01*
X518696Y163196D01*
X518700Y163192D01*
X518738Y163146D01*
X518783Y163108D01*
X518829Y163075D01*
X518875Y163046D01*
X518917Y163025D01*
X518950Y163008D01*
X518971Y163000D01*
X518975Y162996D01*
X518979D01*
X519050Y162971D01*
X519121Y162954D01*
X519196Y162942D01*
X519258Y162933D01*
X519317Y162929D01*
X519362Y162925D01*
X519404D01*
X519504Y162929D01*
X519596Y162937D01*
X519679Y162954D01*
X519750Y162971D01*
X519812Y162987D01*
X519837Y162996D01*
X519858Y163004D01*
X519875Y163008D01*
X519887Y163012D01*
X519892Y163016D01*
X519896D01*
X519971Y163054D01*
X520037Y163096D01*
X520092Y163137D01*
X520137Y163179D01*
X520171Y163212D01*
X520196Y163242D01*
X520212Y163258D01*
X520216Y163267D01*
X520250Y163329D01*
X520279Y163396D01*
X520304Y163462D01*
X520321Y163525D01*
X520333Y163583D01*
X520341Y163625D01*
Y163641D01*
X520346Y163654D01*
Y163662D01*
Y163666D01*
X520746Y163633D01*
X520737Y163516D01*
X520716Y163404D01*
X520687Y163308D01*
X520654Y163221D01*
X520637Y163183D01*
X520625Y163150D01*
X520608Y163125D01*
X520596Y163100D01*
X520587Y163079D01*
X520579Y163067D01*
X520570Y163058D01*
Y163054D01*
X520504Y162967D01*
X520429Y162887D01*
X520354Y162821D01*
X520279Y162767D01*
X520212Y162725D01*
X520183Y162708D01*
X520162Y162696D01*
X520141Y162683D01*
X520125Y162675D01*
X520117Y162671D01*
X520112D01*
X519996Y162629D01*
X519875Y162600D01*
X519750Y162575D01*
X519637Y162563D01*
X519583Y162558D01*
X519537Y162554D01*
X519492Y162550D01*
X519454D01*
X519425Y162546D01*
X519383D01*
X519258Y162550D01*
X519142Y162567D01*
X519038Y162588D01*
X518950Y162608D01*
X518908Y162621D01*
X518875Y162633D01*
X518846Y162642D01*
X518817Y162650D01*
X518800Y162658D01*
X518783Y162667D01*
X518775Y162671D01*
X518771D01*
X518675Y162721D01*
X518588Y162779D01*
X518517Y162837D01*
X518459Y162892D01*
X518413Y162942D01*
X518375Y162983D01*
X518367Y163000D01*
X518359Y163012D01*
X518350Y163016D01*
Y163021D01*
X518300Y163104D01*
X518263Y163192D01*
X518238Y163271D01*
X518217Y163346D01*
X518209Y163408D01*
X518204Y163433D01*
Y163458D01*
X518200Y163475D01*
Y163487D01*
Y163496D01*
Y163500D01*
X518204Y163596D01*
X518221Y163679D01*
X518242Y163758D01*
X518267Y163825D01*
X518296Y163879D01*
X518317Y163920D01*
X518325Y163933D01*
X518334Y163946D01*
X518338Y163950D01*
Y163954D01*
X518392Y164025D01*
X518459Y164091D01*
X518525Y164145D01*
X518592Y164195D01*
X518654Y164233D01*
X518704Y164258D01*
X518725Y164270D01*
X518738Y164279D01*
X518746Y164283D01*
X518750D01*
X518788Y164300D01*
X518834Y164316D01*
X518888Y164333D01*
X518942Y164354D01*
X519058Y164387D01*
X519175Y164416D01*
X519233Y164433D01*
X519283Y164445D01*
X519333Y164458D01*
X519375Y164466D01*
X519408Y164475D01*
X519437Y164483D01*
X519454Y164487D01*
X519458D01*
X519550Y164508D01*
X519633Y164529D01*
X519708Y164550D01*
X519775Y164570D01*
X519833Y164591D01*
X519883Y164608D01*
X519929Y164629D01*
X519971Y164645D01*
X520000Y164658D01*
X520029Y164670D01*
X520050Y164683D01*
X520066Y164695D01*
X520079Y164699D01*
X520087Y164708D01*
X520096Y164712D01*
X520137Y164758D01*
X520166Y164804D01*
X520187Y164849D01*
X520200Y164895D01*
X520208Y164937D01*
X520216Y164966D01*
Y164987D01*
Y164995D01*
X520208Y165066D01*
X520187Y165133D01*
X520162Y165191D01*
X520129Y165241D01*
X520096Y165283D01*
X520071Y165312D01*
X520050Y165328D01*
X520042Y165337D01*
X520008Y165362D01*
X519967Y165383D01*
X519879Y165420D01*
X519787Y165445D01*
X519696Y165462D01*
X519612Y165470D01*
X519579Y165474D01*
X519546Y165478D01*
X519417D01*
X519354Y165470D01*
X519296Y165466D01*
X519242Y165453D01*
X519192Y165441D01*
X519146Y165428D01*
X519104Y165416D01*
X519067Y165403D01*
X519038Y165387D01*
X519008Y165374D01*
X518983Y165362D01*
X518963Y165349D01*
X518950Y165337D01*
X518938Y165333D01*
X518929Y165324D01*
X518863Y165262D01*
X518813Y165187D01*
X518775Y165112D01*
X518746Y165041D01*
X518725Y164974D01*
X518717Y164945D01*
X518713Y164920D01*
X518708Y164899D01*
X518704Y164883D01*
Y164874D01*
Y164870D01*
X518296Y164899D01*
X518304Y164999D01*
X518325Y165095D01*
X518350Y165179D01*
X518379Y165254D01*
X518409Y165316D01*
X518421Y165341D01*
X518429Y165362D01*
X518442Y165378D01*
X518446Y165391D01*
X518454Y165395D01*
Y165399D01*
X518513Y165478D01*
X518583Y165549D01*
X518650Y165607D01*
X518721Y165653D01*
X518779Y165691D01*
X518829Y165720D01*
X518850Y165728D01*
X518863Y165737D01*
X518871Y165741D01*
X518875D01*
X518979Y165778D01*
X519088Y165807D01*
X519192Y165828D01*
X519287Y165845D01*
X519333Y165849D01*
X519375Y165853D01*
X519408D01*
X519442Y165858D01*
X519500D01*
X519617Y165853D01*
D02*
G37*
G36*
X384601Y165737D02*
X384655Y165662D01*
X384713Y165587D01*
X384767Y165524D01*
X384822Y165466D01*
X384863Y165424D01*
X384880Y165408D01*
X384892Y165395D01*
X384901Y165391D01*
X384905Y165387D01*
X385001Y165308D01*
X385096Y165237D01*
X385196Y165170D01*
X385284Y165116D01*
X385363Y165074D01*
X385396Y165054D01*
X385425Y165041D01*
X385446Y165028D01*
X385463Y165020D01*
X385476Y165012D01*
X385480D01*
Y164629D01*
X385409Y164658D01*
X385338Y164691D01*
X385267Y164724D01*
X385205Y164758D01*
X385151Y164787D01*
X385105Y164812D01*
X385088Y164820D01*
X385076Y164829D01*
X385071Y164833D01*
X385067D01*
X384984Y164883D01*
X384913Y164933D01*
X384846Y164979D01*
X384792Y165020D01*
X384751Y165054D01*
X384717Y165083D01*
X384701Y165099D01*
X384692Y165103D01*
Y162600D01*
X384301D01*
Y165816D01*
X384555D01*
X384601Y165737D01*
D02*
G37*
G36*
X390674Y162600D02*
X390233D01*
X388983Y165803D01*
X389412D01*
X390278Y163475D01*
X390316Y163379D01*
X390349Y163283D01*
X390378Y163192D01*
X390403Y163112D01*
X390424Y163046D01*
X390433Y163021D01*
X390441Y162996D01*
X390445Y162975D01*
X390449Y162962D01*
X390453Y162954D01*
Y162950D01*
X390478Y163041D01*
X390508Y163137D01*
X390537Y163225D01*
X390562Y163304D01*
X390587Y163375D01*
X390595Y163404D01*
X390603Y163429D01*
X390612Y163446D01*
X390616Y163462D01*
X390620Y163471D01*
Y163475D01*
X391453Y165803D01*
X391916D01*
X390674Y162600D01*
D02*
G37*
G36*
X394561Y165424D02*
X393507D01*
Y162600D01*
X393082D01*
Y165424D01*
X392028D01*
Y165803D01*
X394561D01*
Y165424D01*
D02*
G37*
G36*
X387617Y165853D02*
X387729Y165841D01*
X387829Y165820D01*
X387916Y165803D01*
X387954Y165791D01*
X387987Y165783D01*
X388017Y165770D01*
X388041Y165762D01*
X388062Y165758D01*
X388075Y165749D01*
X388083Y165745D01*
X388087D01*
X388179Y165699D01*
X388262Y165649D01*
X388329Y165595D01*
X388387Y165545D01*
X388429Y165499D01*
X388462Y165458D01*
X388479Y165433D01*
X388487Y165428D01*
Y165424D01*
X388533Y165345D01*
X388566Y165266D01*
X388591Y165191D01*
X388608Y165120D01*
X388616Y165058D01*
X388620Y165012D01*
X388625Y164995D01*
Y164983D01*
Y164974D01*
Y164970D01*
X388620Y164891D01*
X388608Y164816D01*
X388591Y164745D01*
X388571Y164687D01*
X388550Y164637D01*
X388533Y164604D01*
X388521Y164579D01*
X388516Y164575D01*
Y164570D01*
X388471Y164508D01*
X388416Y164450D01*
X388358Y164400D01*
X388304Y164358D01*
X388254Y164320D01*
X388212Y164295D01*
X388196Y164287D01*
X388183Y164279D01*
X388179Y164275D01*
X388175D01*
X388137Y164258D01*
X388096Y164237D01*
X388004Y164204D01*
X387900Y164166D01*
X387800Y164137D01*
X387704Y164108D01*
X387667Y164100D01*
X387629Y164087D01*
X387600Y164083D01*
X387579Y164075D01*
X387562Y164070D01*
X387558D01*
X387479Y164050D01*
X387408Y164033D01*
X387342Y164016D01*
X387283Y164004D01*
X387229Y163987D01*
X387183Y163975D01*
X387142Y163966D01*
X387108Y163954D01*
X387075Y163946D01*
X387050Y163937D01*
X387029Y163933D01*
X387013Y163925D01*
X386996Y163920D01*
X386988Y163916D01*
X386917Y163887D01*
X386858Y163854D01*
X386809Y163825D01*
X386767Y163796D01*
X386738Y163771D01*
X386717Y163750D01*
X386704Y163733D01*
X386700Y163729D01*
X386671Y163687D01*
X386646Y163641D01*
X386629Y163596D01*
X386621Y163554D01*
X386613Y163521D01*
X386609Y163491D01*
Y163475D01*
Y163466D01*
X386613Y163412D01*
X386621Y163362D01*
X386638Y163316D01*
X386654Y163275D01*
X386671Y163242D01*
X386688Y163212D01*
X386696Y163196D01*
X386700Y163192D01*
X386738Y163146D01*
X386783Y163108D01*
X386829Y163075D01*
X386875Y163046D01*
X386917Y163025D01*
X386950Y163008D01*
X386971Y163000D01*
X386975Y162996D01*
X386979D01*
X387050Y162971D01*
X387121Y162954D01*
X387196Y162942D01*
X387258Y162933D01*
X387317Y162929D01*
X387363Y162925D01*
X387404D01*
X387504Y162929D01*
X387596Y162937D01*
X387679Y162954D01*
X387750Y162971D01*
X387812Y162987D01*
X387837Y162996D01*
X387858Y163004D01*
X387875Y163008D01*
X387887Y163012D01*
X387892Y163016D01*
X387896D01*
X387971Y163054D01*
X388037Y163096D01*
X388092Y163137D01*
X388137Y163179D01*
X388171Y163212D01*
X388196Y163242D01*
X388212Y163258D01*
X388217Y163267D01*
X388250Y163329D01*
X388279Y163396D01*
X388304Y163462D01*
X388321Y163525D01*
X388333Y163583D01*
X388341Y163625D01*
Y163641D01*
X388346Y163654D01*
Y163662D01*
Y163666D01*
X388745Y163633D01*
X388737Y163516D01*
X388716Y163404D01*
X388687Y163308D01*
X388654Y163221D01*
X388637Y163183D01*
X388625Y163150D01*
X388608Y163125D01*
X388596Y163100D01*
X388587Y163079D01*
X388579Y163067D01*
X388571Y163058D01*
Y163054D01*
X388504Y162967D01*
X388429Y162887D01*
X388354Y162821D01*
X388279Y162767D01*
X388212Y162725D01*
X388183Y162708D01*
X388162Y162696D01*
X388142Y162683D01*
X388125Y162675D01*
X388116Y162671D01*
X388112D01*
X387996Y162629D01*
X387875Y162600D01*
X387750Y162575D01*
X387637Y162563D01*
X387583Y162558D01*
X387537Y162554D01*
X387492Y162550D01*
X387454D01*
X387425Y162546D01*
X387383D01*
X387258Y162550D01*
X387142Y162567D01*
X387038Y162588D01*
X386950Y162608D01*
X386908Y162621D01*
X386875Y162633D01*
X386846Y162642D01*
X386817Y162650D01*
X386800Y162658D01*
X386783Y162667D01*
X386775Y162671D01*
X386771D01*
X386675Y162721D01*
X386588Y162779D01*
X386517Y162837D01*
X386459Y162892D01*
X386413Y162942D01*
X386375Y162983D01*
X386367Y163000D01*
X386359Y163012D01*
X386350Y163016D01*
Y163021D01*
X386300Y163104D01*
X386263Y163192D01*
X386238Y163271D01*
X386217Y163346D01*
X386209Y163408D01*
X386204Y163433D01*
Y163458D01*
X386200Y163475D01*
Y163487D01*
Y163496D01*
Y163500D01*
X386204Y163596D01*
X386221Y163679D01*
X386242Y163758D01*
X386267Y163825D01*
X386296Y163879D01*
X386317Y163920D01*
X386325Y163933D01*
X386334Y163946D01*
X386338Y163950D01*
Y163954D01*
X386392Y164025D01*
X386459Y164091D01*
X386525Y164145D01*
X386592Y164195D01*
X386654Y164233D01*
X386704Y164258D01*
X386725Y164270D01*
X386738Y164279D01*
X386746Y164283D01*
X386750D01*
X386788Y164300D01*
X386833Y164316D01*
X386888Y164333D01*
X386942Y164354D01*
X387058Y164387D01*
X387175Y164416D01*
X387233Y164433D01*
X387283Y164445D01*
X387333Y164458D01*
X387375Y164466D01*
X387408Y164475D01*
X387438Y164483D01*
X387454Y164487D01*
X387458D01*
X387550Y164508D01*
X387633Y164529D01*
X387708Y164550D01*
X387775Y164570D01*
X387833Y164591D01*
X387883Y164608D01*
X387929Y164629D01*
X387971Y164645D01*
X388000Y164658D01*
X388029Y164670D01*
X388050Y164683D01*
X388066Y164695D01*
X388079Y164699D01*
X388087Y164708D01*
X388096Y164712D01*
X388137Y164758D01*
X388167Y164804D01*
X388187Y164849D01*
X388200Y164895D01*
X388208Y164937D01*
X388217Y164966D01*
Y164987D01*
Y164995D01*
X388208Y165066D01*
X388187Y165133D01*
X388162Y165191D01*
X388129Y165241D01*
X388096Y165283D01*
X388071Y165312D01*
X388050Y165328D01*
X388041Y165337D01*
X388008Y165362D01*
X387966Y165383D01*
X387879Y165420D01*
X387787Y165445D01*
X387696Y165462D01*
X387612Y165470D01*
X387579Y165474D01*
X387546Y165478D01*
X387417D01*
X387354Y165470D01*
X387296Y165466D01*
X387242Y165453D01*
X387192Y165441D01*
X387146Y165428D01*
X387104Y165416D01*
X387067Y165403D01*
X387038Y165387D01*
X387008Y165374D01*
X386983Y165362D01*
X386963Y165349D01*
X386950Y165337D01*
X386938Y165333D01*
X386929Y165324D01*
X386863Y165262D01*
X386813Y165187D01*
X386775Y165112D01*
X386746Y165041D01*
X386725Y164974D01*
X386717Y164945D01*
X386713Y164920D01*
X386708Y164899D01*
X386704Y164883D01*
Y164874D01*
Y164870D01*
X386296Y164899D01*
X386305Y164999D01*
X386325Y165095D01*
X386350Y165179D01*
X386379Y165254D01*
X386409Y165316D01*
X386421Y165341D01*
X386429Y165362D01*
X386442Y165378D01*
X386446Y165391D01*
X386454Y165395D01*
Y165399D01*
X386513Y165478D01*
X386584Y165549D01*
X386650Y165607D01*
X386721Y165653D01*
X386779Y165691D01*
X386829Y165720D01*
X386850Y165728D01*
X386863Y165737D01*
X386871Y165741D01*
X386875D01*
X386979Y165778D01*
X387088Y165807D01*
X387192Y165828D01*
X387287Y165845D01*
X387333Y165849D01*
X387375Y165853D01*
X387408D01*
X387442Y165858D01*
X387500D01*
X387617Y165853D01*
D02*
G37*
G36*
X388179Y161562D02*
X388246Y161558D01*
X388371Y161532D01*
X388479Y161495D01*
X388525Y161474D01*
X388571Y161458D01*
X388608Y161437D01*
X388646Y161416D01*
X388675Y161395D01*
X388700Y161378D01*
X388721Y161366D01*
X388733Y161353D01*
X388741Y161349D01*
X388745Y161345D01*
X388791Y161303D01*
X388833Y161258D01*
X388904Y161158D01*
X388958Y161058D01*
X389004Y160962D01*
X389020Y160916D01*
X389033Y160874D01*
X389045Y160833D01*
X389054Y160804D01*
X389062Y160774D01*
X389066Y160753D01*
X389070Y160741D01*
Y160737D01*
X388679Y160666D01*
X388658Y160766D01*
X388633Y160854D01*
X388600Y160928D01*
X388566Y160987D01*
X388537Y161037D01*
X388512Y161070D01*
X388496Y161087D01*
X388487Y161095D01*
X388425Y161145D01*
X388362Y161178D01*
X388296Y161203D01*
X388237Y161224D01*
X388183Y161233D01*
X388137Y161237D01*
X388121Y161241D01*
X388100D01*
X388017Y161237D01*
X387946Y161220D01*
X387879Y161195D01*
X387825Y161170D01*
X387783Y161141D01*
X387750Y161120D01*
X387733Y161103D01*
X387725Y161095D01*
X387675Y161041D01*
X387637Y160979D01*
X387612Y160920D01*
X387592Y160866D01*
X387583Y160816D01*
X387579Y160779D01*
X387575Y160749D01*
Y160745D01*
Y160741D01*
X387579Y160691D01*
X387583Y160645D01*
X387608Y160562D01*
X387637Y160491D01*
X387675Y160433D01*
X387712Y160391D01*
X387746Y160358D01*
X387771Y160341D01*
X387775Y160333D01*
X387779D01*
X387854Y160291D01*
X387933Y160258D01*
X388008Y160237D01*
X388079Y160220D01*
X388137Y160212D01*
X388187Y160208D01*
X388204Y160204D01*
X388250D01*
X388271Y160208D01*
X388283Y160212D01*
X388292D01*
X388337Y159866D01*
X388279Y159879D01*
X388225Y159891D01*
X388175Y159900D01*
X388133Y159904D01*
X388104Y159908D01*
X388058D01*
X387958Y159900D01*
X387871Y159879D01*
X387796Y159854D01*
X387729Y159820D01*
X387679Y159787D01*
X387642Y159762D01*
X387617Y159741D01*
X387608Y159733D01*
X387575Y159700D01*
X387550Y159662D01*
X387504Y159591D01*
X387471Y159516D01*
X387450Y159445D01*
X387438Y159383D01*
X387433Y159354D01*
Y159333D01*
X387429Y159312D01*
Y159300D01*
Y159291D01*
Y159287D01*
Y159237D01*
X387438Y159187D01*
X387458Y159096D01*
X387492Y159012D01*
X387525Y158946D01*
X387558Y158887D01*
X387592Y158846D01*
X387604Y158833D01*
X387612Y158821D01*
X387617Y158816D01*
X387621Y158812D01*
X387658Y158779D01*
X387696Y158750D01*
X387775Y158700D01*
X387854Y158667D01*
X387929Y158646D01*
X387991Y158629D01*
X388021Y158625D01*
X388046D01*
X388062Y158621D01*
X388092D01*
X388175Y158629D01*
X388254Y158646D01*
X388321Y158667D01*
X388379Y158696D01*
X388429Y158721D01*
X388462Y158746D01*
X388483Y158762D01*
X388491Y158766D01*
X388521Y158796D01*
X388546Y158829D01*
X388591Y158908D01*
X388633Y158987D01*
X388662Y159066D01*
X388687Y159141D01*
X388695Y159171D01*
X388704Y159200D01*
X388708Y159221D01*
X388712Y159237D01*
X388716Y159250D01*
Y159254D01*
X389108Y159200D01*
X389100Y159125D01*
X389083Y159054D01*
X389066Y158991D01*
X389041Y158929D01*
X389016Y158871D01*
X388991Y158816D01*
X388962Y158766D01*
X388937Y158721D01*
X388908Y158683D01*
X388883Y158646D01*
X388858Y158617D01*
X388837Y158592D01*
X388816Y158571D01*
X388804Y158558D01*
X388796Y158550D01*
X388791Y158546D01*
X388737Y158500D01*
X388683Y158462D01*
X388625Y158429D01*
X388562Y158400D01*
X388504Y158379D01*
X388446Y158358D01*
X388337Y158329D01*
X388287Y158317D01*
X388237Y158308D01*
X388196Y158304D01*
X388162Y158300D01*
X388133Y158296D01*
X388092D01*
X388004Y158300D01*
X387925Y158308D01*
X387846Y158321D01*
X387775Y158342D01*
X387704Y158363D01*
X387642Y158387D01*
X387583Y158413D01*
X387529Y158442D01*
X387483Y158467D01*
X387442Y158492D01*
X387404Y158517D01*
X387375Y158537D01*
X387350Y158558D01*
X387333Y158571D01*
X387325Y158579D01*
X387321Y158583D01*
X387267Y158637D01*
X387221Y158696D01*
X387179Y158758D01*
X387142Y158816D01*
X387113Y158879D01*
X387088Y158937D01*
X387067Y158996D01*
X387050Y159050D01*
X387038Y159100D01*
X387029Y159146D01*
X387021Y159187D01*
X387017Y159225D01*
X387013Y159254D01*
Y159279D01*
Y159291D01*
Y159296D01*
X387021Y159408D01*
X387038Y159504D01*
X387063Y159591D01*
X387092Y159666D01*
X387121Y159729D01*
X387133Y159750D01*
X387146Y159770D01*
X387154Y159787D01*
X387163Y159800D01*
X387171Y159804D01*
Y159808D01*
X387233Y159879D01*
X387308Y159937D01*
X387379Y159987D01*
X387450Y160025D01*
X387513Y160049D01*
X387542Y160062D01*
X387567Y160070D01*
X387583Y160075D01*
X387600Y160079D01*
X387608Y160083D01*
X387612D01*
X387537Y160124D01*
X387471Y160166D01*
X387412Y160212D01*
X387367Y160258D01*
X387329Y160295D01*
X387304Y160324D01*
X387287Y160345D01*
X387283Y160354D01*
X387246Y160420D01*
X387217Y160487D01*
X387200Y160549D01*
X387183Y160608D01*
X387175Y160658D01*
X387171Y160699D01*
Y160724D01*
Y160728D01*
Y160733D01*
X387175Y160812D01*
X387188Y160887D01*
X387208Y160958D01*
X387229Y161020D01*
X387254Y161070D01*
X387271Y161112D01*
X387287Y161137D01*
X387292Y161141D01*
Y161145D01*
X387337Y161216D01*
X387392Y161274D01*
X387450Y161328D01*
X387504Y161374D01*
X387554Y161408D01*
X387592Y161432D01*
X387608Y161441D01*
X387621Y161449D01*
X387625Y161453D01*
X387629D01*
X387712Y161491D01*
X387796Y161520D01*
X387875Y161537D01*
X387950Y161553D01*
X388012Y161562D01*
X388041D01*
X388062Y161566D01*
X388108D01*
X388179Y161562D01*
D02*
G37*
G36*
X390624D02*
X390703Y161558D01*
X390778Y161545D01*
X390845Y161528D01*
X390912Y161512D01*
X390970Y161491D01*
X391024Y161470D01*
X391074Y161449D01*
X391120Y161424D01*
X391157Y161403D01*
X391191Y161383D01*
X391220Y161366D01*
X391241Y161349D01*
X391257Y161337D01*
X391266Y161332D01*
X391270Y161328D01*
X391320Y161283D01*
X391362Y161233D01*
X391399Y161178D01*
X391432Y161120D01*
X391461Y161066D01*
X391487Y161008D01*
X391524Y160895D01*
X391541Y160845D01*
X391553Y160795D01*
X391561Y160753D01*
X391570Y160716D01*
X391574Y160683D01*
Y160662D01*
X391578Y160645D01*
Y160641D01*
X391174Y160599D01*
X391166Y160708D01*
X391149Y160799D01*
X391120Y160879D01*
X391087Y160949D01*
X391057Y160999D01*
X391028Y161041D01*
X391012Y161062D01*
X391003Y161070D01*
X390937Y161128D01*
X390862Y161170D01*
X390783Y161199D01*
X390712Y161220D01*
X390649Y161233D01*
X390620Y161237D01*
X390595D01*
X390578Y161241D01*
X390549D01*
X390453Y161233D01*
X390366Y161216D01*
X390291Y161191D01*
X390229Y161162D01*
X390178Y161128D01*
X390141Y161103D01*
X390120Y161087D01*
X390112Y161078D01*
X390053Y161016D01*
X390012Y160949D01*
X389983Y160887D01*
X389962Y160824D01*
X389949Y160770D01*
X389945Y160724D01*
X389941Y160708D01*
Y160699D01*
Y160691D01*
Y160687D01*
Y160645D01*
X389949Y160604D01*
X389970Y160516D01*
X389999Y160437D01*
X390033Y160366D01*
X390070Y160304D01*
X390087Y160279D01*
X390099Y160254D01*
X390112Y160237D01*
X390120Y160224D01*
X390124Y160216D01*
X390129Y160212D01*
X390166Y160162D01*
X390212Y160112D01*
X390262Y160058D01*
X390316Y160000D01*
X390433Y159887D01*
X390549Y159779D01*
X390603Y159729D01*
X390658Y159683D01*
X390708Y159641D01*
X390749Y159604D01*
X390783Y159575D01*
X390812Y159554D01*
X390828Y159537D01*
X390832Y159533D01*
X390953Y159433D01*
X391057Y159341D01*
X391145Y159258D01*
X391216Y159187D01*
X391274Y159129D01*
X391316Y159083D01*
X391328Y159066D01*
X391341Y159054D01*
X391345Y159050D01*
X391349Y159046D01*
X391412Y158967D01*
X391466Y158891D01*
X391507Y158821D01*
X391545Y158754D01*
X391574Y158700D01*
X391591Y158658D01*
X391599Y158642D01*
X391603Y158629D01*
X391607Y158625D01*
Y158621D01*
X391624Y158571D01*
X391636Y158525D01*
X391645Y158479D01*
X391649Y158438D01*
X391653Y158400D01*
Y158375D01*
Y158358D01*
Y158350D01*
X389533D01*
Y158729D01*
X391107D01*
X391053Y158804D01*
X391024Y158841D01*
X390999Y158871D01*
X390974Y158900D01*
X390957Y158921D01*
X390945Y158933D01*
X390941Y158937D01*
X390920Y158958D01*
X390891Y158987D01*
X390862Y159017D01*
X390828Y159046D01*
X390753Y159112D01*
X390674Y159179D01*
X390603Y159241D01*
X390570Y159271D01*
X390545Y159296D01*
X390520Y159312D01*
X390503Y159329D01*
X390491Y159337D01*
X390487Y159341D01*
X390412Y159408D01*
X390337Y159471D01*
X390274Y159525D01*
X390212Y159579D01*
X390158Y159629D01*
X390108Y159679D01*
X390062Y159720D01*
X390024Y159758D01*
X389987Y159791D01*
X389958Y159820D01*
X389933Y159845D01*
X389912Y159866D01*
X389899Y159883D01*
X389887Y159895D01*
X389879Y159900D01*
Y159904D01*
X389816Y159979D01*
X389762Y160054D01*
X389716Y160120D01*
X389679Y160179D01*
X389649Y160224D01*
X389633Y160262D01*
X389620Y160287D01*
X389616Y160295D01*
X389591Y160366D01*
X389570Y160433D01*
X389558Y160499D01*
X389545Y160554D01*
X389541Y160604D01*
X389537Y160641D01*
Y160666D01*
Y160674D01*
X389541Y160745D01*
X389549Y160812D01*
X389562Y160874D01*
X389579Y160933D01*
X389624Y161041D01*
X389645Y161091D01*
X389670Y161133D01*
X389699Y161174D01*
X389720Y161208D01*
X389745Y161237D01*
X389766Y161262D01*
X389783Y161283D01*
X389795Y161295D01*
X389804Y161303D01*
X389808Y161308D01*
X389862Y161353D01*
X389916Y161391D01*
X389974Y161428D01*
X390037Y161458D01*
X390099Y161483D01*
X390158Y161503D01*
X390274Y161532D01*
X390328Y161545D01*
X390378Y161553D01*
X390424Y161558D01*
X390466Y161562D01*
X390495Y161566D01*
X390541D01*
X390624Y161562D01*
D02*
G37*
G36*
X383164D02*
X383243Y161558D01*
X383318Y161545D01*
X383384Y161528D01*
X383451Y161512D01*
X383509Y161491D01*
X383563Y161470D01*
X383614Y161449D01*
X383659Y161424D01*
X383697Y161403D01*
X383730Y161383D01*
X383759Y161366D01*
X383780Y161349D01*
X383797Y161337D01*
X383805Y161332D01*
X383809Y161328D01*
X383859Y161283D01*
X383901Y161233D01*
X383938Y161178D01*
X383972Y161120D01*
X384001Y161066D01*
X384026Y161008D01*
X384063Y160895D01*
X384080Y160845D01*
X384092Y160795D01*
X384101Y160753D01*
X384109Y160716D01*
X384113Y160683D01*
Y160662D01*
X384118Y160645D01*
Y160641D01*
X383713Y160599D01*
X383705Y160708D01*
X383689Y160799D01*
X383659Y160879D01*
X383626Y160949D01*
X383597Y160999D01*
X383568Y161041D01*
X383551Y161062D01*
X383543Y161070D01*
X383476Y161128D01*
X383401Y161170D01*
X383322Y161199D01*
X383251Y161220D01*
X383189Y161233D01*
X383159Y161237D01*
X383134D01*
X383118Y161241D01*
X383089D01*
X382993Y161233D01*
X382905Y161216D01*
X382830Y161191D01*
X382768Y161162D01*
X382718Y161128D01*
X382680Y161103D01*
X382660Y161087D01*
X382651Y161078D01*
X382593Y161016D01*
X382551Y160949D01*
X382522Y160887D01*
X382501Y160824D01*
X382489Y160770D01*
X382485Y160724D01*
X382480Y160708D01*
Y160699D01*
Y160691D01*
Y160687D01*
Y160645D01*
X382489Y160604D01*
X382510Y160516D01*
X382539Y160437D01*
X382572Y160366D01*
X382610Y160304D01*
X382626Y160279D01*
X382639Y160254D01*
X382651Y160237D01*
X382660Y160224D01*
X382664Y160216D01*
X382668Y160212D01*
X382705Y160162D01*
X382751Y160112D01*
X382801Y160058D01*
X382855Y160000D01*
X382972Y159887D01*
X383089Y159779D01*
X383143Y159729D01*
X383197Y159683D01*
X383247Y159641D01*
X383289Y159604D01*
X383322Y159575D01*
X383351Y159554D01*
X383368Y159537D01*
X383372Y159533D01*
X383493Y159433D01*
X383597Y159341D01*
X383684Y159258D01*
X383755Y159187D01*
X383813Y159129D01*
X383855Y159083D01*
X383868Y159066D01*
X383880Y159054D01*
X383884Y159050D01*
X383888Y159046D01*
X383951Y158967D01*
X384005Y158891D01*
X384047Y158821D01*
X384084Y158754D01*
X384113Y158700D01*
X384130Y158658D01*
X384138Y158642D01*
X384142Y158629D01*
X384147Y158625D01*
Y158621D01*
X384163Y158571D01*
X384176Y158525D01*
X384184Y158479D01*
X384188Y158438D01*
X384193Y158400D01*
Y158375D01*
Y158358D01*
Y158350D01*
X382072D01*
Y158729D01*
X383647D01*
X383593Y158804D01*
X383563Y158841D01*
X383539Y158871D01*
X383513Y158900D01*
X383497Y158921D01*
X383484Y158933D01*
X383480Y158937D01*
X383459Y158958D01*
X383430Y158987D01*
X383401Y159017D01*
X383368Y159046D01*
X383293Y159112D01*
X383214Y159179D01*
X383143Y159241D01*
X383109Y159271D01*
X383084Y159296D01*
X383060Y159312D01*
X383043Y159329D01*
X383030Y159337D01*
X383026Y159341D01*
X382951Y159408D01*
X382876Y159471D01*
X382814Y159525D01*
X382751Y159579D01*
X382697Y159629D01*
X382647Y159679D01*
X382601Y159720D01*
X382564Y159758D01*
X382526Y159791D01*
X382497Y159820D01*
X382472Y159845D01*
X382451Y159866D01*
X382439Y159883D01*
X382426Y159895D01*
X382418Y159900D01*
Y159904D01*
X382355Y159979D01*
X382301Y160054D01*
X382256Y160120D01*
X382218Y160179D01*
X382189Y160224D01*
X382172Y160262D01*
X382160Y160287D01*
X382155Y160295D01*
X382131Y160366D01*
X382110Y160433D01*
X382097Y160499D01*
X382085Y160554D01*
X382080Y160604D01*
X382076Y160641D01*
Y160666D01*
Y160674D01*
X382080Y160745D01*
X382089Y160812D01*
X382101Y160874D01*
X382118Y160933D01*
X382164Y161041D01*
X382185Y161091D01*
X382210Y161133D01*
X382239Y161174D01*
X382260Y161208D01*
X382285Y161237D01*
X382305Y161262D01*
X382322Y161283D01*
X382335Y161295D01*
X382343Y161303D01*
X382347Y161308D01*
X382401Y161353D01*
X382455Y161391D01*
X382514Y161428D01*
X382576Y161458D01*
X382639Y161483D01*
X382697Y161503D01*
X382814Y161532D01*
X382868Y161545D01*
X382918Y161553D01*
X382964Y161558D01*
X383005Y161562D01*
X383035Y161566D01*
X383080D01*
X383164Y161562D01*
D02*
G37*
G36*
X385442Y161487D02*
X385496Y161412D01*
X385555Y161337D01*
X385609Y161274D01*
X385663Y161216D01*
X385705Y161174D01*
X385721Y161158D01*
X385734Y161145D01*
X385742Y161141D01*
X385746Y161137D01*
X385842Y161058D01*
X385938Y160987D01*
X386038Y160920D01*
X386125Y160866D01*
X386204Y160824D01*
X386238Y160804D01*
X386267Y160791D01*
X386288Y160779D01*
X386305Y160770D01*
X386317Y160762D01*
X386321D01*
Y160379D01*
X386250Y160408D01*
X386180Y160441D01*
X386109Y160474D01*
X386046Y160508D01*
X385992Y160537D01*
X385946Y160562D01*
X385930Y160570D01*
X385917Y160579D01*
X385913Y160583D01*
X385909D01*
X385825Y160633D01*
X385755Y160683D01*
X385688Y160728D01*
X385634Y160770D01*
X385592Y160804D01*
X385559Y160833D01*
X385542Y160849D01*
X385534Y160854D01*
Y158350D01*
X385142D01*
Y161566D01*
X385396D01*
X385442Y161487D01*
D02*
G37*
G36*
X393432Y161603D02*
X393544Y161591D01*
X393644Y161570D01*
X393732Y161553D01*
X393769Y161541D01*
X393802Y161532D01*
X393832Y161520D01*
X393857Y161512D01*
X393877Y161507D01*
X393890Y161499D01*
X393898Y161495D01*
X393903D01*
X393994Y161449D01*
X394077Y161399D01*
X394144Y161345D01*
X394202Y161295D01*
X394244Y161249D01*
X394277Y161208D01*
X394294Y161183D01*
X394302Y161178D01*
Y161174D01*
X394348Y161095D01*
X394382Y161016D01*
X394407Y160941D01*
X394423Y160870D01*
X394431Y160808D01*
X394436Y160762D01*
X394440Y160745D01*
Y160733D01*
Y160724D01*
Y160720D01*
X394436Y160641D01*
X394423Y160566D01*
X394407Y160495D01*
X394386Y160437D01*
X394365Y160387D01*
X394348Y160354D01*
X394336Y160329D01*
X394332Y160324D01*
Y160320D01*
X394286Y160258D01*
X394232Y160200D01*
X394173Y160149D01*
X394119Y160108D01*
X394069Y160070D01*
X394027Y160045D01*
X394011Y160037D01*
X393998Y160029D01*
X393994Y160025D01*
X393990D01*
X393952Y160008D01*
X393911Y159987D01*
X393819Y159954D01*
X393715Y159916D01*
X393615Y159887D01*
X393519Y159858D01*
X393482Y159850D01*
X393444Y159837D01*
X393415Y159833D01*
X393394Y159825D01*
X393378Y159820D01*
X393373D01*
X393294Y159800D01*
X393223Y159783D01*
X393157Y159766D01*
X393099Y159754D01*
X393044Y159737D01*
X392999Y159725D01*
X392957Y159716D01*
X392924Y159704D01*
X392890Y159696D01*
X392865Y159687D01*
X392845Y159683D01*
X392828Y159675D01*
X392811Y159670D01*
X392803Y159666D01*
X392732Y159637D01*
X392674Y159604D01*
X392624Y159575D01*
X392582Y159545D01*
X392553Y159521D01*
X392532Y159500D01*
X392519Y159483D01*
X392515Y159479D01*
X392486Y159437D01*
X392461Y159391D01*
X392445Y159346D01*
X392436Y159304D01*
X392428Y159271D01*
X392424Y159241D01*
Y159225D01*
Y159216D01*
X392428Y159162D01*
X392436Y159112D01*
X392453Y159066D01*
X392469Y159025D01*
X392486Y158991D01*
X392503Y158962D01*
X392511Y158946D01*
X392515Y158941D01*
X392553Y158896D01*
X392599Y158858D01*
X392645Y158825D01*
X392690Y158796D01*
X392732Y158775D01*
X392765Y158758D01*
X392786Y158750D01*
X392790Y158746D01*
X392794D01*
X392865Y158721D01*
X392936Y158704D01*
X393011Y158692D01*
X393074Y158683D01*
X393132Y158679D01*
X393178Y158675D01*
X393219D01*
X393319Y158679D01*
X393411Y158687D01*
X393494Y158704D01*
X393565Y158721D01*
X393628Y158737D01*
X393653Y158746D01*
X393673Y158754D01*
X393690Y158758D01*
X393703Y158762D01*
X393707Y158766D01*
X393711D01*
X393786Y158804D01*
X393853Y158846D01*
X393907Y158887D01*
X393952Y158929D01*
X393986Y158962D01*
X394011Y158991D01*
X394027Y159008D01*
X394032Y159017D01*
X394065Y159079D01*
X394094Y159146D01*
X394119Y159212D01*
X394136Y159275D01*
X394148Y159333D01*
X394157Y159375D01*
Y159391D01*
X394161Y159404D01*
Y159412D01*
Y159416D01*
X394561Y159383D01*
X394552Y159266D01*
X394532Y159154D01*
X394502Y159058D01*
X394469Y158971D01*
X394452Y158933D01*
X394440Y158900D01*
X394423Y158875D01*
X394411Y158850D01*
X394402Y158829D01*
X394394Y158816D01*
X394386Y158808D01*
Y158804D01*
X394319Y158716D01*
X394244Y158637D01*
X394169Y158571D01*
X394094Y158517D01*
X394027Y158475D01*
X393998Y158458D01*
X393978Y158446D01*
X393957Y158433D01*
X393940Y158425D01*
X393932Y158421D01*
X393927D01*
X393811Y158379D01*
X393690Y158350D01*
X393565Y158325D01*
X393453Y158313D01*
X393399Y158308D01*
X393353Y158304D01*
X393307Y158300D01*
X393269D01*
X393240Y158296D01*
X393199D01*
X393074Y158300D01*
X392957Y158317D01*
X392853Y158337D01*
X392765Y158358D01*
X392724Y158371D01*
X392690Y158383D01*
X392661Y158392D01*
X392632Y158400D01*
X392615Y158408D01*
X392599Y158417D01*
X392590Y158421D01*
X392586D01*
X392490Y158471D01*
X392403Y158529D01*
X392332Y158587D01*
X392274Y158642D01*
X392228Y158692D01*
X392191Y158733D01*
X392182Y158750D01*
X392174Y158762D01*
X392165Y158766D01*
Y158771D01*
X392116Y158854D01*
X392078Y158941D01*
X392053Y159021D01*
X392032Y159096D01*
X392024Y159158D01*
X392020Y159183D01*
Y159208D01*
X392015Y159225D01*
Y159237D01*
Y159246D01*
Y159250D01*
X392020Y159346D01*
X392036Y159429D01*
X392057Y159508D01*
X392082Y159575D01*
X392111Y159629D01*
X392132Y159670D01*
X392141Y159683D01*
X392149Y159696D01*
X392153Y159700D01*
Y159704D01*
X392207Y159775D01*
X392274Y159841D01*
X392340Y159895D01*
X392407Y159945D01*
X392469Y159983D01*
X392519Y160008D01*
X392540Y160020D01*
X392553Y160029D01*
X392561Y160033D01*
X392565D01*
X392603Y160049D01*
X392649Y160066D01*
X392703Y160083D01*
X392757Y160104D01*
X392874Y160137D01*
X392990Y160166D01*
X393049Y160183D01*
X393099Y160195D01*
X393148Y160208D01*
X393190Y160216D01*
X393223Y160224D01*
X393253Y160233D01*
X393269Y160237D01*
X393274D01*
X393365Y160258D01*
X393448Y160279D01*
X393523Y160299D01*
X393590Y160320D01*
X393648Y160341D01*
X393698Y160358D01*
X393744Y160379D01*
X393786Y160395D01*
X393815Y160408D01*
X393844Y160420D01*
X393865Y160433D01*
X393882Y160445D01*
X393894Y160449D01*
X393903Y160458D01*
X393911Y160462D01*
X393952Y160508D01*
X393982Y160554D01*
X394002Y160599D01*
X394015Y160645D01*
X394023Y160687D01*
X394032Y160716D01*
Y160737D01*
Y160745D01*
X394023Y160816D01*
X394002Y160883D01*
X393978Y160941D01*
X393944Y160991D01*
X393911Y161033D01*
X393886Y161062D01*
X393865Y161078D01*
X393857Y161087D01*
X393823Y161112D01*
X393782Y161133D01*
X393694Y161170D01*
X393603Y161195D01*
X393511Y161212D01*
X393428Y161220D01*
X393394Y161224D01*
X393361Y161228D01*
X393232D01*
X393169Y161220D01*
X393111Y161216D01*
X393057Y161203D01*
X393007Y161191D01*
X392961Y161178D01*
X392919Y161166D01*
X392882Y161153D01*
X392853Y161137D01*
X392824Y161124D01*
X392799Y161112D01*
X392778Y161099D01*
X392765Y161087D01*
X392753Y161083D01*
X392744Y161074D01*
X392678Y161012D01*
X392628Y160937D01*
X392590Y160862D01*
X392561Y160791D01*
X392540Y160724D01*
X392532Y160695D01*
X392528Y160670D01*
X392524Y160649D01*
X392519Y160633D01*
Y160624D01*
Y160620D01*
X392111Y160649D01*
X392120Y160749D01*
X392141Y160845D01*
X392165Y160928D01*
X392195Y161003D01*
X392224Y161066D01*
X392236Y161091D01*
X392245Y161112D01*
X392257Y161128D01*
X392261Y161141D01*
X392270Y161145D01*
Y161149D01*
X392328Y161228D01*
X392399Y161299D01*
X392465Y161357D01*
X392536Y161403D01*
X392594Y161441D01*
X392645Y161470D01*
X392665Y161478D01*
X392678Y161487D01*
X392686Y161491D01*
X392690D01*
X392794Y161528D01*
X392903Y161558D01*
X393007Y161578D01*
X393103Y161595D01*
X393148Y161599D01*
X393190Y161603D01*
X393223D01*
X393257Y161607D01*
X393315D01*
X393432Y161603D01*
D02*
G37*
G36*
X476179Y161562D02*
X476246Y161558D01*
X476371Y161532D01*
X476479Y161495D01*
X476525Y161474D01*
X476571Y161458D01*
X476608Y161437D01*
X476646Y161416D01*
X476675Y161395D01*
X476700Y161378D01*
X476721Y161366D01*
X476733Y161353D01*
X476741Y161349D01*
X476745Y161345D01*
X476791Y161303D01*
X476833Y161258D01*
X476904Y161158D01*
X476958Y161058D01*
X477004Y160962D01*
X477020Y160916D01*
X477033Y160874D01*
X477045Y160833D01*
X477054Y160804D01*
X477062Y160774D01*
X477066Y160753D01*
X477070Y160741D01*
Y160737D01*
X476679Y160666D01*
X476658Y160766D01*
X476633Y160854D01*
X476600Y160928D01*
X476566Y160987D01*
X476537Y161037D01*
X476512Y161070D01*
X476496Y161087D01*
X476487Y161095D01*
X476425Y161145D01*
X476362Y161178D01*
X476296Y161203D01*
X476237Y161224D01*
X476183Y161233D01*
X476137Y161237D01*
X476121Y161241D01*
X476100D01*
X476017Y161237D01*
X475946Y161220D01*
X475879Y161195D01*
X475825Y161170D01*
X475783Y161141D01*
X475750Y161120D01*
X475733Y161103D01*
X475725Y161095D01*
X475675Y161041D01*
X475637Y160979D01*
X475612Y160920D01*
X475592Y160866D01*
X475583Y160816D01*
X475579Y160779D01*
X475575Y160749D01*
Y160745D01*
Y160741D01*
X475579Y160691D01*
X475583Y160645D01*
X475608Y160562D01*
X475637Y160491D01*
X475675Y160433D01*
X475712Y160391D01*
X475746Y160358D01*
X475771Y160341D01*
X475775Y160333D01*
X475779D01*
X475854Y160291D01*
X475933Y160258D01*
X476008Y160237D01*
X476079Y160220D01*
X476137Y160212D01*
X476187Y160208D01*
X476204Y160204D01*
X476250D01*
X476271Y160208D01*
X476283Y160212D01*
X476291D01*
X476337Y159866D01*
X476279Y159879D01*
X476225Y159891D01*
X476175Y159900D01*
X476133Y159904D01*
X476104Y159908D01*
X476058D01*
X475958Y159900D01*
X475871Y159879D01*
X475796Y159854D01*
X475729Y159820D01*
X475679Y159787D01*
X475642Y159762D01*
X475617Y159741D01*
X475608Y159733D01*
X475575Y159700D01*
X475550Y159662D01*
X475504Y159591D01*
X475471Y159516D01*
X475450Y159445D01*
X475438Y159383D01*
X475433Y159354D01*
Y159333D01*
X475429Y159312D01*
Y159300D01*
Y159291D01*
Y159287D01*
Y159237D01*
X475438Y159187D01*
X475458Y159096D01*
X475492Y159012D01*
X475525Y158946D01*
X475558Y158887D01*
X475592Y158846D01*
X475604Y158833D01*
X475612Y158821D01*
X475617Y158816D01*
X475621Y158812D01*
X475658Y158779D01*
X475696Y158750D01*
X475775Y158700D01*
X475854Y158667D01*
X475929Y158646D01*
X475992Y158629D01*
X476021Y158625D01*
X476046D01*
X476062Y158621D01*
X476091D01*
X476175Y158629D01*
X476254Y158646D01*
X476321Y158667D01*
X476379Y158696D01*
X476429Y158721D01*
X476462Y158746D01*
X476483Y158762D01*
X476491Y158766D01*
X476521Y158796D01*
X476545Y158829D01*
X476591Y158908D01*
X476633Y158987D01*
X476662Y159066D01*
X476687Y159141D01*
X476696Y159171D01*
X476704Y159200D01*
X476708Y159221D01*
X476712Y159237D01*
X476716Y159250D01*
Y159254D01*
X477108Y159200D01*
X477100Y159125D01*
X477083Y159054D01*
X477066Y158991D01*
X477041Y158929D01*
X477016Y158871D01*
X476991Y158816D01*
X476962Y158766D01*
X476937Y158721D01*
X476908Y158683D01*
X476883Y158646D01*
X476858Y158617D01*
X476837Y158592D01*
X476816Y158571D01*
X476804Y158558D01*
X476796Y158550D01*
X476791Y158546D01*
X476737Y158500D01*
X476683Y158462D01*
X476625Y158429D01*
X476562Y158400D01*
X476504Y158379D01*
X476446Y158358D01*
X476337Y158329D01*
X476287Y158317D01*
X476237Y158308D01*
X476196Y158304D01*
X476162Y158300D01*
X476133Y158296D01*
X476091D01*
X476004Y158300D01*
X475925Y158308D01*
X475846Y158321D01*
X475775Y158342D01*
X475704Y158363D01*
X475642Y158387D01*
X475583Y158413D01*
X475529Y158442D01*
X475483Y158467D01*
X475442Y158492D01*
X475404Y158517D01*
X475375Y158537D01*
X475350Y158558D01*
X475333Y158571D01*
X475325Y158579D01*
X475321Y158583D01*
X475267Y158637D01*
X475221Y158696D01*
X475179Y158758D01*
X475142Y158816D01*
X475113Y158879D01*
X475088Y158937D01*
X475067Y158996D01*
X475050Y159050D01*
X475038Y159100D01*
X475029Y159146D01*
X475021Y159187D01*
X475017Y159225D01*
X475013Y159254D01*
Y159279D01*
Y159291D01*
Y159296D01*
X475021Y159408D01*
X475038Y159504D01*
X475063Y159591D01*
X475092Y159666D01*
X475121Y159729D01*
X475133Y159750D01*
X475146Y159770D01*
X475154Y159787D01*
X475163Y159800D01*
X475171Y159804D01*
Y159808D01*
X475233Y159879D01*
X475308Y159937D01*
X475379Y159987D01*
X475450Y160025D01*
X475513Y160049D01*
X475542Y160062D01*
X475567Y160070D01*
X475583Y160075D01*
X475600Y160079D01*
X475608Y160083D01*
X475612D01*
X475537Y160124D01*
X475471Y160166D01*
X475412Y160212D01*
X475367Y160258D01*
X475329Y160295D01*
X475304Y160324D01*
X475288Y160345D01*
X475283Y160354D01*
X475246Y160420D01*
X475217Y160487D01*
X475200Y160549D01*
X475183Y160608D01*
X475175Y160658D01*
X475171Y160699D01*
Y160724D01*
Y160728D01*
Y160733D01*
X475175Y160812D01*
X475187Y160887D01*
X475208Y160958D01*
X475229Y161020D01*
X475254Y161070D01*
X475271Y161112D01*
X475288Y161137D01*
X475292Y161141D01*
Y161145D01*
X475337Y161216D01*
X475392Y161274D01*
X475450Y161328D01*
X475504Y161374D01*
X475554Y161408D01*
X475592Y161432D01*
X475608Y161441D01*
X475621Y161449D01*
X475625Y161453D01*
X475629D01*
X475712Y161491D01*
X475796Y161520D01*
X475875Y161537D01*
X475950Y161553D01*
X476012Y161562D01*
X476041D01*
X476062Y161566D01*
X476108D01*
X476179Y161562D01*
D02*
G37*
G36*
X478624D02*
X478703Y161558D01*
X478778Y161545D01*
X478845Y161528D01*
X478912Y161512D01*
X478970Y161491D01*
X479024Y161470D01*
X479074Y161449D01*
X479120Y161424D01*
X479157Y161403D01*
X479191Y161383D01*
X479220Y161366D01*
X479241Y161349D01*
X479257Y161337D01*
X479266Y161332D01*
X479270Y161328D01*
X479320Y161283D01*
X479361Y161233D01*
X479399Y161178D01*
X479432Y161120D01*
X479461Y161066D01*
X479486Y161008D01*
X479524Y160895D01*
X479541Y160845D01*
X479553Y160795D01*
X479561Y160753D01*
X479570Y160716D01*
X479574Y160683D01*
Y160662D01*
X479578Y160645D01*
Y160641D01*
X479174Y160599D01*
X479166Y160708D01*
X479149Y160799D01*
X479120Y160879D01*
X479086Y160949D01*
X479057Y160999D01*
X479028Y161041D01*
X479012Y161062D01*
X479003Y161070D01*
X478937Y161128D01*
X478862Y161170D01*
X478783Y161199D01*
X478712Y161220D01*
X478649Y161233D01*
X478620Y161237D01*
X478595D01*
X478578Y161241D01*
X478549D01*
X478453Y161233D01*
X478366Y161216D01*
X478291Y161191D01*
X478228Y161162D01*
X478178Y161128D01*
X478141Y161103D01*
X478120Y161087D01*
X478112Y161078D01*
X478054Y161016D01*
X478012Y160949D01*
X477983Y160887D01*
X477962Y160824D01*
X477949Y160770D01*
X477945Y160724D01*
X477941Y160708D01*
Y160699D01*
Y160691D01*
Y160687D01*
Y160645D01*
X477949Y160604D01*
X477970Y160516D01*
X477999Y160437D01*
X478033Y160366D01*
X478070Y160304D01*
X478087Y160279D01*
X478099Y160254D01*
X478112Y160237D01*
X478120Y160224D01*
X478124Y160216D01*
X478129Y160212D01*
X478166Y160162D01*
X478212Y160112D01*
X478262Y160058D01*
X478316Y160000D01*
X478433Y159887D01*
X478549Y159779D01*
X478603Y159729D01*
X478657Y159683D01*
X478708Y159641D01*
X478749Y159604D01*
X478783Y159575D01*
X478812Y159554D01*
X478828Y159537D01*
X478832Y159533D01*
X478953Y159433D01*
X479057Y159341D01*
X479145Y159258D01*
X479216Y159187D01*
X479274Y159129D01*
X479316Y159083D01*
X479328Y159066D01*
X479341Y159054D01*
X479345Y159050D01*
X479349Y159046D01*
X479412Y158967D01*
X479466Y158891D01*
X479507Y158821D01*
X479545Y158754D01*
X479574Y158700D01*
X479591Y158658D01*
X479599Y158642D01*
X479603Y158629D01*
X479607Y158625D01*
Y158621D01*
X479624Y158571D01*
X479636Y158525D01*
X479645Y158479D01*
X479649Y158438D01*
X479653Y158400D01*
Y158375D01*
Y158358D01*
Y158350D01*
X477533D01*
Y158729D01*
X479107D01*
X479053Y158804D01*
X479024Y158841D01*
X478999Y158871D01*
X478974Y158900D01*
X478957Y158921D01*
X478945Y158933D01*
X478941Y158937D01*
X478920Y158958D01*
X478891Y158987D01*
X478862Y159017D01*
X478828Y159046D01*
X478753Y159112D01*
X478674Y159179D01*
X478603Y159241D01*
X478570Y159271D01*
X478545Y159296D01*
X478520Y159312D01*
X478503Y159329D01*
X478491Y159337D01*
X478487Y159341D01*
X478412Y159408D01*
X478337Y159471D01*
X478274Y159525D01*
X478212Y159579D01*
X478158Y159629D01*
X478108Y159679D01*
X478062Y159720D01*
X478024Y159758D01*
X477987Y159791D01*
X477958Y159820D01*
X477933Y159845D01*
X477912Y159866D01*
X477899Y159883D01*
X477887Y159895D01*
X477878Y159900D01*
Y159904D01*
X477816Y159979D01*
X477762Y160054D01*
X477716Y160120D01*
X477679Y160179D01*
X477649Y160224D01*
X477633Y160262D01*
X477620Y160287D01*
X477616Y160295D01*
X477591Y160366D01*
X477570Y160433D01*
X477558Y160499D01*
X477545Y160554D01*
X477541Y160604D01*
X477537Y160641D01*
Y160666D01*
Y160674D01*
X477541Y160745D01*
X477549Y160812D01*
X477562Y160874D01*
X477579Y160933D01*
X477624Y161041D01*
X477645Y161091D01*
X477670Y161133D01*
X477699Y161174D01*
X477720Y161208D01*
X477745Y161237D01*
X477766Y161262D01*
X477783Y161283D01*
X477795Y161295D01*
X477803Y161303D01*
X477808Y161308D01*
X477862Y161353D01*
X477916Y161391D01*
X477974Y161428D01*
X478037Y161458D01*
X478099Y161483D01*
X478158Y161503D01*
X478274Y161532D01*
X478328Y161545D01*
X478378Y161553D01*
X478424Y161558D01*
X478466Y161562D01*
X478495Y161566D01*
X478541D01*
X478624Y161562D01*
D02*
G37*
G36*
X472063Y159866D02*
X471693Y159812D01*
X471659Y159862D01*
X471622Y159904D01*
X471580Y159945D01*
X471543Y159975D01*
X471509Y160004D01*
X471484Y160020D01*
X471468Y160033D01*
X471459Y160037D01*
X471401Y160066D01*
X471339Y160091D01*
X471280Y160108D01*
X471230Y160116D01*
X471180Y160124D01*
X471147Y160129D01*
X471055D01*
X471005Y160120D01*
X470905Y160100D01*
X470822Y160066D01*
X470751Y160033D01*
X470693Y159995D01*
X470651Y159962D01*
X470639Y159950D01*
X470626Y159941D01*
X470618Y159937D01*
Y159933D01*
X470585Y159895D01*
X470555Y159854D01*
X470510Y159766D01*
X470476Y159679D01*
X470455Y159591D01*
X470439Y159516D01*
X470435Y159483D01*
Y159454D01*
X470430Y159433D01*
Y159416D01*
Y159404D01*
Y159400D01*
Y159333D01*
X470439Y159275D01*
X470460Y159162D01*
X470493Y159066D01*
X470526Y158983D01*
X470547Y158950D01*
X470564Y158921D01*
X470580Y158891D01*
X470597Y158871D01*
X470610Y158854D01*
X470618Y158841D01*
X470622Y158837D01*
X470626Y158833D01*
X470664Y158796D01*
X470701Y158762D01*
X470743Y158733D01*
X470784Y158712D01*
X470864Y158671D01*
X470943Y158646D01*
X471009Y158633D01*
X471039Y158629D01*
X471059Y158625D01*
X471080Y158621D01*
X471109D01*
X471197Y158629D01*
X471272Y158646D01*
X471343Y158667D01*
X471401Y158696D01*
X471447Y158721D01*
X471484Y158746D01*
X471505Y158762D01*
X471513Y158766D01*
X471568Y158829D01*
X471614Y158900D01*
X471651Y158975D01*
X471680Y159050D01*
X471697Y159112D01*
X471705Y159141D01*
X471713Y159166D01*
X471718Y159187D01*
Y159204D01*
X471722Y159212D01*
Y159216D01*
X472134Y159187D01*
X472126Y159112D01*
X472109Y159042D01*
X472093Y158979D01*
X472067Y158917D01*
X472047Y158858D01*
X472018Y158804D01*
X471992Y158754D01*
X471963Y158712D01*
X471938Y158671D01*
X471909Y158637D01*
X471888Y158608D01*
X471863Y158583D01*
X471847Y158562D01*
X471834Y158550D01*
X471826Y158542D01*
X471822Y158537D01*
X471768Y158496D01*
X471713Y158458D01*
X471655Y158425D01*
X471593Y158400D01*
X471534Y158375D01*
X471476Y158354D01*
X471363Y158325D01*
X471309Y158317D01*
X471264Y158308D01*
X471218Y158304D01*
X471180Y158300D01*
X471151Y158296D01*
X471109D01*
X471014Y158300D01*
X470922Y158313D01*
X470835Y158333D01*
X470751Y158358D01*
X470676Y158387D01*
X470610Y158417D01*
X470547Y158454D01*
X470489Y158492D01*
X470439Y158525D01*
X470393Y158562D01*
X470355Y158592D01*
X470326Y158625D01*
X470301Y158646D01*
X470280Y158667D01*
X470272Y158679D01*
X470268Y158683D01*
X470222Y158746D01*
X470185Y158808D01*
X470151Y158871D01*
X470122Y158933D01*
X470097Y158996D01*
X470076Y159058D01*
X470047Y159179D01*
X470035Y159229D01*
X470026Y159279D01*
X470022Y159325D01*
X470018Y159362D01*
X470014Y159391D01*
Y159412D01*
Y159429D01*
Y159433D01*
X470018Y159516D01*
X470026Y159595D01*
X470039Y159670D01*
X470060Y159746D01*
X470080Y159812D01*
X470106Y159870D01*
X470131Y159929D01*
X470160Y159979D01*
X470185Y160025D01*
X470214Y160066D01*
X470239Y160100D01*
X470260Y160129D01*
X470280Y160154D01*
X470293Y160170D01*
X470301Y160179D01*
X470305Y160183D01*
X470360Y160233D01*
X470418Y160279D01*
X470476Y160316D01*
X470535Y160354D01*
X470597Y160379D01*
X470655Y160404D01*
X470709Y160424D01*
X470764Y160437D01*
X470818Y160449D01*
X470864Y160458D01*
X470905Y160466D01*
X470939Y160470D01*
X470968Y160474D01*
X471009D01*
X471068Y160470D01*
X471126Y160466D01*
X471239Y160441D01*
X471339Y160412D01*
X471430Y160375D01*
X471472Y160354D01*
X471505Y160337D01*
X471539Y160316D01*
X471563Y160304D01*
X471584Y160291D01*
X471601Y160279D01*
X471609Y160275D01*
X471614Y160270D01*
X471443Y161137D01*
X470164D01*
Y161512D01*
X471755D01*
X472063Y159866D01*
D02*
G37*
G36*
X481432Y161603D02*
X481544Y161591D01*
X481644Y161570D01*
X481732Y161553D01*
X481769Y161541D01*
X481802Y161532D01*
X481832Y161520D01*
X481857Y161512D01*
X481878Y161507D01*
X481890Y161499D01*
X481898Y161495D01*
X481903D01*
X481994Y161449D01*
X482077Y161399D01*
X482144Y161345D01*
X482202Y161295D01*
X482244Y161249D01*
X482277Y161208D01*
X482294Y161183D01*
X482302Y161178D01*
Y161174D01*
X482348Y161095D01*
X482382Y161016D01*
X482407Y160941D01*
X482423Y160870D01*
X482431Y160808D01*
X482436Y160762D01*
X482440Y160745D01*
Y160733D01*
Y160724D01*
Y160720D01*
X482436Y160641D01*
X482423Y160566D01*
X482407Y160495D01*
X482386Y160437D01*
X482365Y160387D01*
X482348Y160354D01*
X482336Y160329D01*
X482332Y160324D01*
Y160320D01*
X482286Y160258D01*
X482232Y160200D01*
X482173Y160149D01*
X482119Y160108D01*
X482069Y160070D01*
X482028Y160045D01*
X482011Y160037D01*
X481998Y160029D01*
X481994Y160025D01*
X481990D01*
X481953Y160008D01*
X481911Y159987D01*
X481819Y159954D01*
X481715Y159916D01*
X481615Y159887D01*
X481519Y159858D01*
X481482Y159850D01*
X481444Y159837D01*
X481415Y159833D01*
X481394Y159825D01*
X481378Y159820D01*
X481373D01*
X481294Y159800D01*
X481223Y159783D01*
X481157Y159766D01*
X481099Y159754D01*
X481044Y159737D01*
X480999Y159725D01*
X480957Y159716D01*
X480924Y159704D01*
X480890Y159696D01*
X480865Y159687D01*
X480844Y159683D01*
X480828Y159675D01*
X480811Y159670D01*
X480803Y159666D01*
X480732Y159637D01*
X480674Y159604D01*
X480624Y159575D01*
X480582Y159545D01*
X480553Y159521D01*
X480532Y159500D01*
X480519Y159483D01*
X480515Y159479D01*
X480486Y159437D01*
X480461Y159391D01*
X480444Y159346D01*
X480436Y159304D01*
X480428Y159271D01*
X480424Y159241D01*
Y159225D01*
Y159216D01*
X480428Y159162D01*
X480436Y159112D01*
X480453Y159066D01*
X480470Y159025D01*
X480486Y158991D01*
X480503Y158962D01*
X480511Y158946D01*
X480515Y158941D01*
X480553Y158896D01*
X480599Y158858D01*
X480644Y158825D01*
X480690Y158796D01*
X480732Y158775D01*
X480765Y158758D01*
X480786Y158750D01*
X480790Y158746D01*
X480794D01*
X480865Y158721D01*
X480936Y158704D01*
X481011Y158692D01*
X481073Y158683D01*
X481132Y158679D01*
X481178Y158675D01*
X481219D01*
X481319Y158679D01*
X481411Y158687D01*
X481494Y158704D01*
X481565Y158721D01*
X481628Y158737D01*
X481653Y158746D01*
X481673Y158754D01*
X481690Y158758D01*
X481702Y158762D01*
X481707Y158766D01*
X481711D01*
X481786Y158804D01*
X481852Y158846D01*
X481907Y158887D01*
X481953Y158929D01*
X481986Y158962D01*
X482011Y158991D01*
X482028Y159008D01*
X482032Y159017D01*
X482065Y159079D01*
X482094Y159146D01*
X482119Y159212D01*
X482136Y159275D01*
X482148Y159333D01*
X482157Y159375D01*
Y159391D01*
X482161Y159404D01*
Y159412D01*
Y159416D01*
X482561Y159383D01*
X482552Y159266D01*
X482532Y159154D01*
X482502Y159058D01*
X482469Y158971D01*
X482452Y158933D01*
X482440Y158900D01*
X482423Y158875D01*
X482411Y158850D01*
X482402Y158829D01*
X482394Y158816D01*
X482386Y158808D01*
Y158804D01*
X482319Y158716D01*
X482244Y158637D01*
X482169Y158571D01*
X482094Y158517D01*
X482028Y158475D01*
X481998Y158458D01*
X481978Y158446D01*
X481957Y158433D01*
X481940Y158425D01*
X481932Y158421D01*
X481927D01*
X481811Y158379D01*
X481690Y158350D01*
X481565Y158325D01*
X481453Y158313D01*
X481399Y158308D01*
X481353Y158304D01*
X481307Y158300D01*
X481269D01*
X481240Y158296D01*
X481199D01*
X481073Y158300D01*
X480957Y158317D01*
X480853Y158337D01*
X480765Y158358D01*
X480724Y158371D01*
X480690Y158383D01*
X480661Y158392D01*
X480632Y158400D01*
X480615Y158408D01*
X480599Y158417D01*
X480590Y158421D01*
X480586D01*
X480490Y158471D01*
X480403Y158529D01*
X480332Y158587D01*
X480274Y158642D01*
X480228Y158692D01*
X480190Y158733D01*
X480182Y158750D01*
X480174Y158762D01*
X480165Y158766D01*
Y158771D01*
X480115Y158854D01*
X480078Y158941D01*
X480053Y159021D01*
X480032Y159096D01*
X480024Y159158D01*
X480020Y159183D01*
Y159208D01*
X480015Y159225D01*
Y159237D01*
Y159246D01*
Y159250D01*
X480020Y159346D01*
X480036Y159429D01*
X480057Y159508D01*
X480082Y159575D01*
X480111Y159629D01*
X480132Y159670D01*
X480140Y159683D01*
X480149Y159696D01*
X480153Y159700D01*
Y159704D01*
X480207Y159775D01*
X480274Y159841D01*
X480340Y159895D01*
X480407Y159945D01*
X480470Y159983D01*
X480519Y160008D01*
X480540Y160020D01*
X480553Y160029D01*
X480561Y160033D01*
X480565D01*
X480603Y160049D01*
X480649Y160066D01*
X480703Y160083D01*
X480757Y160104D01*
X480874Y160137D01*
X480990Y160166D01*
X481049Y160183D01*
X481099Y160195D01*
X481148Y160208D01*
X481190Y160216D01*
X481223Y160224D01*
X481253Y160233D01*
X481269Y160237D01*
X481273D01*
X481365Y160258D01*
X481448Y160279D01*
X481523Y160299D01*
X481590Y160320D01*
X481648Y160341D01*
X481698Y160358D01*
X481744Y160379D01*
X481786Y160395D01*
X481815Y160408D01*
X481844Y160420D01*
X481865Y160433D01*
X481882Y160445D01*
X481894Y160449D01*
X481903Y160458D01*
X481911Y160462D01*
X481953Y160508D01*
X481982Y160554D01*
X482002Y160599D01*
X482015Y160645D01*
X482023Y160687D01*
X482032Y160716D01*
Y160737D01*
Y160745D01*
X482023Y160816D01*
X482002Y160883D01*
X481978Y160941D01*
X481944Y160991D01*
X481911Y161033D01*
X481886Y161062D01*
X481865Y161078D01*
X481857Y161087D01*
X481823Y161112D01*
X481782Y161133D01*
X481694Y161170D01*
X481603Y161195D01*
X481511Y161212D01*
X481428Y161220D01*
X481394Y161224D01*
X481361Y161228D01*
X481232D01*
X481169Y161220D01*
X481111Y161216D01*
X481057Y161203D01*
X481007Y161191D01*
X480961Y161178D01*
X480919Y161166D01*
X480882Y161153D01*
X480853Y161137D01*
X480824Y161124D01*
X480799Y161112D01*
X480778Y161099D01*
X480765Y161087D01*
X480753Y161083D01*
X480745Y161074D01*
X480678Y161012D01*
X480628Y160937D01*
X480590Y160862D01*
X480561Y160791D01*
X480540Y160724D01*
X480532Y160695D01*
X480528Y160670D01*
X480524Y160649D01*
X480519Y160633D01*
Y160624D01*
Y160620D01*
X480111Y160649D01*
X480120Y160749D01*
X480140Y160845D01*
X480165Y160928D01*
X480195Y161003D01*
X480224Y161066D01*
X480236Y161091D01*
X480245Y161112D01*
X480257Y161128D01*
X480261Y161141D01*
X480270Y161145D01*
Y161149D01*
X480328Y161228D01*
X480399Y161299D01*
X480465Y161357D01*
X480536Y161403D01*
X480594Y161441D01*
X480644Y161470D01*
X480665Y161478D01*
X480678Y161487D01*
X480686Y161491D01*
X480690D01*
X480794Y161528D01*
X480903Y161558D01*
X481007Y161578D01*
X481103Y161595D01*
X481148Y161599D01*
X481190Y161603D01*
X481223D01*
X481257Y161607D01*
X481315D01*
X481432Y161603D01*
D02*
G37*
G36*
X473705Y161558D02*
X473817Y161537D01*
X473917Y161507D01*
X474000Y161474D01*
X474038Y161453D01*
X474067Y161437D01*
X474096Y161420D01*
X474117Y161408D01*
X474134Y161395D01*
X474146Y161387D01*
X474155Y161383D01*
X474159Y161378D01*
X474238Y161303D01*
X474309Y161216D01*
X474367Y161124D01*
X474417Y161041D01*
X474454Y160962D01*
X474471Y160928D01*
X474484Y160899D01*
X474492Y160874D01*
X474500Y160858D01*
X474504Y160845D01*
Y160841D01*
X474525Y160774D01*
X474542Y160704D01*
X474571Y160554D01*
X474592Y160399D01*
X474604Y160254D01*
X474613Y160187D01*
Y160124D01*
X474617Y160070D01*
X474621Y160025D01*
Y159983D01*
Y159954D01*
Y159937D01*
Y159929D01*
X474617Y159766D01*
X474608Y159612D01*
X474592Y159475D01*
X474571Y159346D01*
X474550Y159225D01*
X474521Y159121D01*
X474492Y159025D01*
X474463Y158937D01*
X474434Y158862D01*
X474409Y158800D01*
X474379Y158746D01*
X474359Y158700D01*
X474338Y158667D01*
X474321Y158646D01*
X474313Y158629D01*
X474309Y158625D01*
X474254Y158567D01*
X474200Y158517D01*
X474142Y158471D01*
X474084Y158433D01*
X474021Y158404D01*
X473959Y158375D01*
X473900Y158354D01*
X473842Y158337D01*
X473788Y158325D01*
X473738Y158313D01*
X473696Y158304D01*
X473655Y158300D01*
X473625D01*
X473600Y158296D01*
X473580D01*
X473517Y158300D01*
X473455Y158304D01*
X473342Y158325D01*
X473242Y158354D01*
X473159Y158392D01*
X473121Y158408D01*
X473092Y158425D01*
X473063Y158442D01*
X473042Y158454D01*
X473026Y158467D01*
X473009Y158475D01*
X473005Y158483D01*
X473001D01*
X472917Y158558D01*
X472846Y158646D01*
X472788Y158733D01*
X472738Y158821D01*
X472701Y158896D01*
X472684Y158929D01*
X472672Y158958D01*
X472663Y158983D01*
X472655Y159000D01*
X472651Y159012D01*
Y159017D01*
X472630Y159083D01*
X472613Y159154D01*
X472584Y159304D01*
X472563Y159458D01*
X472547Y159604D01*
X472542Y159670D01*
X472538Y159733D01*
Y159787D01*
X472534Y159833D01*
Y159875D01*
Y159904D01*
Y159920D01*
Y159929D01*
Y160016D01*
X472538Y160100D01*
X472542Y160175D01*
X472547Y160245D01*
X472551Y160316D01*
X472559Y160375D01*
X472563Y160433D01*
X472571Y160483D01*
X472580Y160529D01*
X472584Y160570D01*
X472592Y160604D01*
X472597Y160633D01*
X472601Y160654D01*
X472605Y160670D01*
X472609Y160679D01*
Y160683D01*
X472638Y160783D01*
X472667Y160879D01*
X472701Y160958D01*
X472734Y161028D01*
X472763Y161087D01*
X472784Y161128D01*
X472792Y161141D01*
X472801Y161153D01*
X472805Y161158D01*
Y161162D01*
X472855Y161233D01*
X472909Y161291D01*
X472963Y161341D01*
X473013Y161387D01*
X473059Y161420D01*
X473092Y161441D01*
X473117Y161458D01*
X473121Y161462D01*
X473126D01*
X473201Y161495D01*
X473280Y161520D01*
X473355Y161541D01*
X473425Y161553D01*
X473488Y161562D01*
X473513D01*
X473538Y161566D01*
X473642D01*
X473705Y161558D01*
D02*
G37*
G36*
X472851Y165812D02*
X472917Y165807D01*
X473042Y165783D01*
X473151Y165745D01*
X473196Y165724D01*
X473242Y165707D01*
X473280Y165687D01*
X473317Y165666D01*
X473346Y165645D01*
X473371Y165628D01*
X473392Y165616D01*
X473405Y165603D01*
X473413Y165599D01*
X473417Y165595D01*
X473463Y165553D01*
X473505Y165508D01*
X473576Y165408D01*
X473630Y165308D01*
X473675Y165212D01*
X473692Y165166D01*
X473705Y165124D01*
X473717Y165083D01*
X473725Y165054D01*
X473734Y165024D01*
X473738Y165004D01*
X473742Y164991D01*
Y164987D01*
X473350Y164916D01*
X473330Y165016D01*
X473305Y165103D01*
X473271Y165179D01*
X473238Y165237D01*
X473209Y165287D01*
X473184Y165320D01*
X473167Y165337D01*
X473159Y165345D01*
X473096Y165395D01*
X473034Y165428D01*
X472967Y165453D01*
X472909Y165474D01*
X472855Y165483D01*
X472809Y165487D01*
X472792Y165491D01*
X472771D01*
X472688Y165487D01*
X472617Y165470D01*
X472551Y165445D01*
X472497Y165420D01*
X472455Y165391D01*
X472422Y165370D01*
X472405Y165353D01*
X472397Y165345D01*
X472347Y165291D01*
X472309Y165229D01*
X472284Y165170D01*
X472263Y165116D01*
X472255Y165066D01*
X472251Y165028D01*
X472247Y164999D01*
Y164995D01*
Y164991D01*
X472251Y164941D01*
X472255Y164895D01*
X472280Y164812D01*
X472309Y164741D01*
X472347Y164683D01*
X472384Y164641D01*
X472417Y164608D01*
X472442Y164591D01*
X472447Y164583D01*
X472451D01*
X472526Y164541D01*
X472605Y164508D01*
X472680Y164487D01*
X472751Y164470D01*
X472809Y164462D01*
X472859Y164458D01*
X472876Y164454D01*
X472921D01*
X472942Y164458D01*
X472955Y164462D01*
X472963D01*
X473009Y164116D01*
X472951Y164129D01*
X472896Y164141D01*
X472846Y164150D01*
X472805Y164154D01*
X472776Y164158D01*
X472730D01*
X472630Y164150D01*
X472542Y164129D01*
X472467Y164104D01*
X472401Y164070D01*
X472351Y164037D01*
X472313Y164012D01*
X472288Y163991D01*
X472280Y163983D01*
X472247Y163950D01*
X472222Y163912D01*
X472176Y163841D01*
X472142Y163766D01*
X472122Y163696D01*
X472109Y163633D01*
X472105Y163604D01*
Y163583D01*
X472101Y163562D01*
Y163550D01*
Y163541D01*
Y163537D01*
Y163487D01*
X472109Y163437D01*
X472130Y163346D01*
X472163Y163262D01*
X472197Y163196D01*
X472230Y163137D01*
X472263Y163096D01*
X472276Y163083D01*
X472284Y163071D01*
X472288Y163067D01*
X472293Y163062D01*
X472330Y163029D01*
X472367Y163000D01*
X472447Y162950D01*
X472526Y162917D01*
X472601Y162896D01*
X472663Y162879D01*
X472692Y162875D01*
X472717D01*
X472734Y162871D01*
X472763D01*
X472846Y162879D01*
X472926Y162896D01*
X472992Y162917D01*
X473051Y162946D01*
X473101Y162971D01*
X473134Y162996D01*
X473155Y163012D01*
X473163Y163016D01*
X473192Y163046D01*
X473217Y163079D01*
X473263Y163158D01*
X473305Y163237D01*
X473334Y163316D01*
X473359Y163391D01*
X473367Y163421D01*
X473376Y163450D01*
X473380Y163471D01*
X473384Y163487D01*
X473388Y163500D01*
Y163504D01*
X473780Y163450D01*
X473771Y163375D01*
X473755Y163304D01*
X473738Y163242D01*
X473713Y163179D01*
X473688Y163121D01*
X473663Y163067D01*
X473634Y163016D01*
X473609Y162971D01*
X473580Y162933D01*
X473555Y162896D01*
X473530Y162867D01*
X473509Y162842D01*
X473488Y162821D01*
X473475Y162808D01*
X473467Y162800D01*
X473463Y162796D01*
X473409Y162750D01*
X473355Y162712D01*
X473296Y162679D01*
X473234Y162650D01*
X473176Y162629D01*
X473117Y162608D01*
X473009Y162579D01*
X472959Y162567D01*
X472909Y162558D01*
X472867Y162554D01*
X472834Y162550D01*
X472805Y162546D01*
X472763D01*
X472676Y162550D01*
X472597Y162558D01*
X472517Y162571D01*
X472447Y162592D01*
X472376Y162612D01*
X472313Y162638D01*
X472255Y162663D01*
X472201Y162692D01*
X472155Y162717D01*
X472113Y162742D01*
X472076Y162767D01*
X472047Y162787D01*
X472022Y162808D01*
X472005Y162821D01*
X471997Y162829D01*
X471992Y162833D01*
X471938Y162887D01*
X471893Y162946D01*
X471851Y163008D01*
X471813Y163067D01*
X471784Y163129D01*
X471759Y163187D01*
X471738Y163246D01*
X471722Y163300D01*
X471709Y163350D01*
X471701Y163396D01*
X471693Y163437D01*
X471688Y163475D01*
X471684Y163504D01*
Y163529D01*
Y163541D01*
Y163546D01*
X471693Y163658D01*
X471709Y163754D01*
X471734Y163841D01*
X471763Y163916D01*
X471793Y163979D01*
X471805Y164000D01*
X471818Y164020D01*
X471826Y164037D01*
X471834Y164050D01*
X471843Y164054D01*
Y164058D01*
X471905Y164129D01*
X471980Y164187D01*
X472051Y164237D01*
X472122Y164275D01*
X472184Y164300D01*
X472213Y164312D01*
X472238Y164320D01*
X472255Y164324D01*
X472272Y164329D01*
X472280Y164333D01*
X472284D01*
X472209Y164375D01*
X472142Y164416D01*
X472084Y164462D01*
X472038Y164508D01*
X472001Y164545D01*
X471976Y164575D01*
X471959Y164595D01*
X471955Y164604D01*
X471917Y164670D01*
X471888Y164737D01*
X471872Y164799D01*
X471855Y164858D01*
X471847Y164908D01*
X471843Y164949D01*
Y164974D01*
Y164979D01*
Y164983D01*
X471847Y165062D01*
X471859Y165137D01*
X471880Y165208D01*
X471901Y165270D01*
X471926Y165320D01*
X471942Y165362D01*
X471959Y165387D01*
X471963Y165391D01*
Y165395D01*
X472009Y165466D01*
X472063Y165524D01*
X472122Y165578D01*
X472176Y165624D01*
X472226Y165658D01*
X472263Y165683D01*
X472280Y165691D01*
X472293Y165699D01*
X472297Y165703D01*
X472301D01*
X472384Y165741D01*
X472467Y165770D01*
X472547Y165787D01*
X472621Y165803D01*
X472684Y165812D01*
X472713D01*
X472734Y165816D01*
X472780D01*
X472851Y165812D01*
D02*
G37*
G36*
X478674Y162600D02*
X478233D01*
X476983Y165803D01*
X477412D01*
X478278Y163475D01*
X478316Y163379D01*
X478349Y163283D01*
X478378Y163192D01*
X478403Y163112D01*
X478424Y163046D01*
X478433Y163021D01*
X478441Y162996D01*
X478445Y162975D01*
X478449Y162962D01*
X478453Y162954D01*
Y162950D01*
X478478Y163041D01*
X478507Y163137D01*
X478537Y163225D01*
X478562Y163304D01*
X478587Y163375D01*
X478595Y163404D01*
X478603Y163429D01*
X478612Y163446D01*
X478616Y163462D01*
X478620Y163471D01*
Y163475D01*
X479453Y165803D01*
X479916D01*
X478674Y162600D01*
D02*
G37*
G36*
X482561Y165424D02*
X481507D01*
Y162600D01*
X481082D01*
Y165424D01*
X480028D01*
Y165803D01*
X482561D01*
Y165424D01*
D02*
G37*
G36*
X475617Y165853D02*
X475729Y165841D01*
X475829Y165820D01*
X475916Y165803D01*
X475954Y165791D01*
X475987Y165783D01*
X476017Y165770D01*
X476041Y165762D01*
X476062Y165758D01*
X476075Y165749D01*
X476083Y165745D01*
X476087D01*
X476179Y165699D01*
X476262Y165649D01*
X476329Y165595D01*
X476387Y165545D01*
X476429Y165499D01*
X476462Y165458D01*
X476479Y165433D01*
X476487Y165428D01*
Y165424D01*
X476533Y165345D01*
X476566Y165266D01*
X476591Y165191D01*
X476608Y165120D01*
X476616Y165058D01*
X476620Y165012D01*
X476625Y164995D01*
Y164983D01*
Y164974D01*
Y164970D01*
X476620Y164891D01*
X476608Y164816D01*
X476591Y164745D01*
X476571Y164687D01*
X476550Y164637D01*
X476533Y164604D01*
X476521Y164579D01*
X476516Y164575D01*
Y164570D01*
X476470Y164508D01*
X476416Y164450D01*
X476358Y164400D01*
X476304Y164358D01*
X476254Y164320D01*
X476212Y164295D01*
X476196Y164287D01*
X476183Y164279D01*
X476179Y164275D01*
X476175D01*
X476137Y164258D01*
X476096Y164237D01*
X476004Y164204D01*
X475900Y164166D01*
X475800Y164137D01*
X475704Y164108D01*
X475667Y164100D01*
X475629Y164087D01*
X475600Y164083D01*
X475579Y164075D01*
X475562Y164070D01*
X475558D01*
X475479Y164050D01*
X475408Y164033D01*
X475342Y164016D01*
X475283Y164004D01*
X475229Y163987D01*
X475183Y163975D01*
X475142Y163966D01*
X475108Y163954D01*
X475075Y163946D01*
X475050Y163937D01*
X475029Y163933D01*
X475013Y163925D01*
X474996Y163920D01*
X474988Y163916D01*
X474917Y163887D01*
X474859Y163854D01*
X474809Y163825D01*
X474767Y163796D01*
X474738Y163771D01*
X474717Y163750D01*
X474704Y163733D01*
X474700Y163729D01*
X474671Y163687D01*
X474646Y163641D01*
X474629Y163596D01*
X474621Y163554D01*
X474613Y163521D01*
X474608Y163491D01*
Y163475D01*
Y163466D01*
X474613Y163412D01*
X474621Y163362D01*
X474638Y163316D01*
X474654Y163275D01*
X474671Y163242D01*
X474688Y163212D01*
X474696Y163196D01*
X474700Y163192D01*
X474738Y163146D01*
X474784Y163108D01*
X474829Y163075D01*
X474875Y163046D01*
X474917Y163025D01*
X474950Y163008D01*
X474971Y163000D01*
X474975Y162996D01*
X474979D01*
X475050Y162971D01*
X475121Y162954D01*
X475196Y162942D01*
X475258Y162933D01*
X475317Y162929D01*
X475363Y162925D01*
X475404D01*
X475504Y162929D01*
X475596Y162937D01*
X475679Y162954D01*
X475750Y162971D01*
X475812Y162987D01*
X475837Y162996D01*
X475858Y163004D01*
X475875Y163008D01*
X475887Y163012D01*
X475891Y163016D01*
X475896D01*
X475971Y163054D01*
X476037Y163096D01*
X476091Y163137D01*
X476137Y163179D01*
X476171Y163212D01*
X476196Y163242D01*
X476212Y163258D01*
X476216Y163267D01*
X476250Y163329D01*
X476279Y163396D01*
X476304Y163462D01*
X476321Y163525D01*
X476333Y163583D01*
X476341Y163625D01*
Y163641D01*
X476346Y163654D01*
Y163662D01*
Y163666D01*
X476745Y163633D01*
X476737Y163516D01*
X476716Y163404D01*
X476687Y163308D01*
X476654Y163221D01*
X476637Y163183D01*
X476625Y163150D01*
X476608Y163125D01*
X476595Y163100D01*
X476587Y163079D01*
X476579Y163067D01*
X476571Y163058D01*
Y163054D01*
X476504Y162967D01*
X476429Y162887D01*
X476354Y162821D01*
X476279Y162767D01*
X476212Y162725D01*
X476183Y162708D01*
X476162Y162696D01*
X476142Y162683D01*
X476125Y162675D01*
X476116Y162671D01*
X476112D01*
X475996Y162629D01*
X475875Y162600D01*
X475750Y162575D01*
X475637Y162563D01*
X475583Y162558D01*
X475537Y162554D01*
X475492Y162550D01*
X475454D01*
X475425Y162546D01*
X475383D01*
X475258Y162550D01*
X475142Y162567D01*
X475038Y162588D01*
X474950Y162608D01*
X474908Y162621D01*
X474875Y162633D01*
X474846Y162642D01*
X474817Y162650D01*
X474800Y162658D01*
X474784Y162667D01*
X474775Y162671D01*
X474771D01*
X474675Y162721D01*
X474588Y162779D01*
X474517Y162837D01*
X474459Y162892D01*
X474413Y162942D01*
X474375Y162983D01*
X474367Y163000D01*
X474359Y163012D01*
X474350Y163016D01*
Y163021D01*
X474300Y163104D01*
X474263Y163192D01*
X474238Y163271D01*
X474217Y163346D01*
X474209Y163408D01*
X474204Y163433D01*
Y163458D01*
X474200Y163475D01*
Y163487D01*
Y163496D01*
Y163500D01*
X474204Y163596D01*
X474221Y163679D01*
X474242Y163758D01*
X474267Y163825D01*
X474296Y163879D01*
X474317Y163920D01*
X474325Y163933D01*
X474334Y163946D01*
X474338Y163950D01*
Y163954D01*
X474392Y164025D01*
X474459Y164091D01*
X474525Y164145D01*
X474592Y164195D01*
X474654Y164233D01*
X474704Y164258D01*
X474725Y164270D01*
X474738Y164279D01*
X474746Y164283D01*
X474750D01*
X474788Y164300D01*
X474833Y164316D01*
X474888Y164333D01*
X474942Y164354D01*
X475058Y164387D01*
X475175Y164416D01*
X475233Y164433D01*
X475283Y164445D01*
X475333Y164458D01*
X475375Y164466D01*
X475408Y164475D01*
X475438Y164483D01*
X475454Y164487D01*
X475458D01*
X475550Y164508D01*
X475633Y164529D01*
X475708Y164550D01*
X475775Y164570D01*
X475833Y164591D01*
X475883Y164608D01*
X475929Y164629D01*
X475971Y164645D01*
X476000Y164658D01*
X476029Y164670D01*
X476050Y164683D01*
X476067Y164695D01*
X476079Y164699D01*
X476087Y164708D01*
X476096Y164712D01*
X476137Y164758D01*
X476166Y164804D01*
X476187Y164849D01*
X476200Y164895D01*
X476208Y164937D01*
X476216Y164966D01*
Y164987D01*
Y164995D01*
X476208Y165066D01*
X476187Y165133D01*
X476162Y165191D01*
X476129Y165241D01*
X476096Y165283D01*
X476071Y165312D01*
X476050Y165328D01*
X476041Y165337D01*
X476008Y165362D01*
X475966Y165383D01*
X475879Y165420D01*
X475787Y165445D01*
X475696Y165462D01*
X475612Y165470D01*
X475579Y165474D01*
X475546Y165478D01*
X475417D01*
X475354Y165470D01*
X475296Y165466D01*
X475242Y165453D01*
X475192Y165441D01*
X475146Y165428D01*
X475104Y165416D01*
X475067Y165403D01*
X475038Y165387D01*
X475008Y165374D01*
X474983Y165362D01*
X474963Y165349D01*
X474950Y165337D01*
X474938Y165333D01*
X474929Y165324D01*
X474863Y165262D01*
X474813Y165187D01*
X474775Y165112D01*
X474746Y165041D01*
X474725Y164974D01*
X474717Y164945D01*
X474713Y164920D01*
X474709Y164899D01*
X474704Y164883D01*
Y164874D01*
Y164870D01*
X474296Y164899D01*
X474304Y164999D01*
X474325Y165095D01*
X474350Y165179D01*
X474379Y165254D01*
X474409Y165316D01*
X474421Y165341D01*
X474429Y165362D01*
X474442Y165378D01*
X474446Y165391D01*
X474454Y165395D01*
Y165399D01*
X474513Y165478D01*
X474584Y165549D01*
X474650Y165607D01*
X474721Y165653D01*
X474779Y165691D01*
X474829Y165720D01*
X474850Y165728D01*
X474863Y165737D01*
X474871Y165741D01*
X474875D01*
X474979Y165778D01*
X475088Y165807D01*
X475192Y165828D01*
X475288Y165845D01*
X475333Y165849D01*
X475375Y165853D01*
X475408D01*
X475442Y165858D01*
X475500D01*
X475617Y165853D01*
D02*
G37*
G36*
X428809Y165812D02*
X428888Y165807D01*
X428963Y165795D01*
X429030Y165778D01*
X429096Y165762D01*
X429155Y165741D01*
X429209Y165720D01*
X429259Y165699D01*
X429305Y165674D01*
X429342Y165653D01*
X429375Y165632D01*
X429405Y165616D01*
X429426Y165599D01*
X429442Y165587D01*
X429450Y165583D01*
X429455Y165578D01*
X429505Y165533D01*
X429546Y165483D01*
X429584Y165428D01*
X429617Y165370D01*
X429646Y165316D01*
X429671Y165258D01*
X429709Y165145D01*
X429725Y165095D01*
X429738Y165045D01*
X429746Y165004D01*
X429755Y164966D01*
X429759Y164933D01*
Y164912D01*
X429763Y164895D01*
Y164891D01*
X429359Y164849D01*
X429351Y164958D01*
X429334Y165049D01*
X429305Y165128D01*
X429271Y165199D01*
X429242Y165249D01*
X429213Y165291D01*
X429196Y165312D01*
X429188Y165320D01*
X429121Y165378D01*
X429046Y165420D01*
X428967Y165449D01*
X428896Y165470D01*
X428834Y165483D01*
X428805Y165487D01*
X428780D01*
X428763Y165491D01*
X428734D01*
X428638Y165483D01*
X428551Y165466D01*
X428476Y165441D01*
X428413Y165412D01*
X428363Y165378D01*
X428326Y165353D01*
X428305Y165337D01*
X428297Y165328D01*
X428238Y165266D01*
X428197Y165199D01*
X428167Y165137D01*
X428147Y165074D01*
X428134Y165020D01*
X428130Y164974D01*
X428126Y164958D01*
Y164949D01*
Y164941D01*
Y164937D01*
Y164895D01*
X428134Y164854D01*
X428155Y164766D01*
X428184Y164687D01*
X428218Y164616D01*
X428255Y164554D01*
X428272Y164529D01*
X428284Y164504D01*
X428297Y164487D01*
X428305Y164475D01*
X428309Y164466D01*
X428313Y164462D01*
X428351Y164412D01*
X428397Y164362D01*
X428447Y164308D01*
X428501Y164250D01*
X428617Y164137D01*
X428734Y164029D01*
X428788Y163979D01*
X428842Y163933D01*
X428892Y163891D01*
X428934Y163854D01*
X428967Y163825D01*
X428996Y163804D01*
X429013Y163787D01*
X429017Y163783D01*
X429138Y163683D01*
X429242Y163591D01*
X429330Y163508D01*
X429400Y163437D01*
X429459Y163379D01*
X429501Y163333D01*
X429513Y163316D01*
X429525Y163304D01*
X429530Y163300D01*
X429534Y163296D01*
X429596Y163216D01*
X429650Y163141D01*
X429692Y163071D01*
X429730Y163004D01*
X429759Y162950D01*
X429775Y162908D01*
X429784Y162892D01*
X429788Y162879D01*
X429792Y162875D01*
Y162871D01*
X429809Y162821D01*
X429821Y162775D01*
X429830Y162729D01*
X429834Y162687D01*
X429838Y162650D01*
Y162625D01*
Y162608D01*
Y162600D01*
X427718D01*
Y162979D01*
X429292D01*
X429238Y163054D01*
X429209Y163092D01*
X429184Y163121D01*
X429159Y163150D01*
X429142Y163171D01*
X429130Y163183D01*
X429126Y163187D01*
X429105Y163208D01*
X429076Y163237D01*
X429046Y163267D01*
X429013Y163296D01*
X428938Y163362D01*
X428859Y163429D01*
X428788Y163491D01*
X428755Y163521D01*
X428730Y163546D01*
X428705Y163562D01*
X428688Y163579D01*
X428676Y163587D01*
X428671Y163591D01*
X428597Y163658D01*
X428522Y163720D01*
X428459Y163775D01*
X428397Y163829D01*
X428343Y163879D01*
X428293Y163929D01*
X428247Y163971D01*
X428209Y164008D01*
X428172Y164041D01*
X428143Y164070D01*
X428117Y164095D01*
X428097Y164116D01*
X428084Y164133D01*
X428072Y164145D01*
X428063Y164150D01*
Y164154D01*
X428001Y164229D01*
X427947Y164304D01*
X427901Y164370D01*
X427863Y164429D01*
X427834Y164475D01*
X427818Y164512D01*
X427805Y164537D01*
X427801Y164545D01*
X427776Y164616D01*
X427755Y164683D01*
X427743Y164749D01*
X427730Y164804D01*
X427726Y164854D01*
X427722Y164891D01*
Y164916D01*
Y164924D01*
X427726Y164995D01*
X427734Y165062D01*
X427747Y165124D01*
X427763Y165183D01*
X427809Y165291D01*
X427830Y165341D01*
X427855Y165383D01*
X427884Y165424D01*
X427905Y165458D01*
X427930Y165487D01*
X427951Y165512D01*
X427967Y165533D01*
X427980Y165545D01*
X427988Y165553D01*
X427993Y165558D01*
X428047Y165603D01*
X428101Y165641D01*
X428159Y165678D01*
X428222Y165707D01*
X428284Y165732D01*
X428343Y165753D01*
X428459Y165783D01*
X428513Y165795D01*
X428563Y165803D01*
X428609Y165807D01*
X428651Y165812D01*
X428680Y165816D01*
X428726D01*
X428809Y165812D01*
D02*
G37*
G36*
X434674Y162600D02*
X434233D01*
X432983Y165803D01*
X433412D01*
X434278Y163475D01*
X434316Y163379D01*
X434349Y163283D01*
X434378Y163192D01*
X434403Y163112D01*
X434424Y163046D01*
X434433Y163021D01*
X434441Y162996D01*
X434445Y162975D01*
X434449Y162962D01*
X434453Y162954D01*
Y162950D01*
X434478Y163041D01*
X434507Y163137D01*
X434537Y163225D01*
X434562Y163304D01*
X434587Y163375D01*
X434595Y163404D01*
X434603Y163429D01*
X434612Y163446D01*
X434616Y163462D01*
X434620Y163471D01*
Y163475D01*
X435453Y165803D01*
X435915D01*
X434674Y162600D01*
D02*
G37*
G36*
X438561Y165424D02*
X437507D01*
Y162600D01*
X437082D01*
Y165424D01*
X436028D01*
Y165803D01*
X438561D01*
Y165424D01*
D02*
G37*
G36*
X431617Y165853D02*
X431729Y165841D01*
X431829Y165820D01*
X431917Y165803D01*
X431954Y165791D01*
X431987Y165783D01*
X432016Y165770D01*
X432042Y165762D01*
X432062Y165758D01*
X432075Y165749D01*
X432083Y165745D01*
X432087D01*
X432179Y165699D01*
X432262Y165649D01*
X432329Y165595D01*
X432387Y165545D01*
X432429Y165499D01*
X432462Y165458D01*
X432479Y165433D01*
X432487Y165428D01*
Y165424D01*
X432533Y165345D01*
X432566Y165266D01*
X432591Y165191D01*
X432608Y165120D01*
X432616Y165058D01*
X432621Y165012D01*
X432625Y164995D01*
Y164983D01*
Y164974D01*
Y164970D01*
X432621Y164891D01*
X432608Y164816D01*
X432591Y164745D01*
X432570Y164687D01*
X432550Y164637D01*
X432533Y164604D01*
X432520Y164579D01*
X432516Y164575D01*
Y164570D01*
X432471Y164508D01*
X432416Y164450D01*
X432358Y164400D01*
X432304Y164358D01*
X432254Y164320D01*
X432212Y164295D01*
X432196Y164287D01*
X432183Y164279D01*
X432179Y164275D01*
X432175D01*
X432137Y164258D01*
X432096Y164237D01*
X432004Y164204D01*
X431900Y164166D01*
X431800Y164137D01*
X431704Y164108D01*
X431667Y164100D01*
X431629Y164087D01*
X431600Y164083D01*
X431579Y164075D01*
X431562Y164070D01*
X431558D01*
X431479Y164050D01*
X431408Y164033D01*
X431342Y164016D01*
X431283Y164004D01*
X431229Y163987D01*
X431183Y163975D01*
X431142Y163966D01*
X431108Y163954D01*
X431075Y163946D01*
X431050Y163937D01*
X431029Y163933D01*
X431013Y163925D01*
X430996Y163920D01*
X430988Y163916D01*
X430917Y163887D01*
X430858Y163854D01*
X430808Y163825D01*
X430767Y163796D01*
X430738Y163771D01*
X430717Y163750D01*
X430704Y163733D01*
X430700Y163729D01*
X430671Y163687D01*
X430646Y163641D01*
X430629Y163596D01*
X430621Y163554D01*
X430613Y163521D01*
X430608Y163491D01*
Y163475D01*
Y163466D01*
X430613Y163412D01*
X430621Y163362D01*
X430638Y163316D01*
X430654Y163275D01*
X430671Y163242D01*
X430688Y163212D01*
X430696Y163196D01*
X430700Y163192D01*
X430738Y163146D01*
X430784Y163108D01*
X430829Y163075D01*
X430875Y163046D01*
X430917Y163025D01*
X430950Y163008D01*
X430971Y163000D01*
X430975Y162996D01*
X430979D01*
X431050Y162971D01*
X431121Y162954D01*
X431196Y162942D01*
X431258Y162933D01*
X431317Y162929D01*
X431362Y162925D01*
X431404D01*
X431504Y162929D01*
X431596Y162937D01*
X431679Y162954D01*
X431750Y162971D01*
X431812Y162987D01*
X431837Y162996D01*
X431858Y163004D01*
X431875Y163008D01*
X431887Y163012D01*
X431892Y163016D01*
X431896D01*
X431971Y163054D01*
X432037Y163096D01*
X432091Y163137D01*
X432137Y163179D01*
X432171Y163212D01*
X432196Y163242D01*
X432212Y163258D01*
X432216Y163267D01*
X432250Y163329D01*
X432279Y163396D01*
X432304Y163462D01*
X432321Y163525D01*
X432333Y163583D01*
X432341Y163625D01*
Y163641D01*
X432346Y163654D01*
Y163662D01*
Y163666D01*
X432746Y163633D01*
X432737Y163516D01*
X432716Y163404D01*
X432687Y163308D01*
X432654Y163221D01*
X432637Y163183D01*
X432625Y163150D01*
X432608Y163125D01*
X432595Y163100D01*
X432587Y163079D01*
X432579Y163067D01*
X432570Y163058D01*
Y163054D01*
X432504Y162967D01*
X432429Y162887D01*
X432354Y162821D01*
X432279Y162767D01*
X432212Y162725D01*
X432183Y162708D01*
X432162Y162696D01*
X432141Y162683D01*
X432125Y162675D01*
X432117Y162671D01*
X432112D01*
X431996Y162629D01*
X431875Y162600D01*
X431750Y162575D01*
X431637Y162563D01*
X431583Y162558D01*
X431538Y162554D01*
X431492Y162550D01*
X431454D01*
X431425Y162546D01*
X431383D01*
X431258Y162550D01*
X431142Y162567D01*
X431038Y162588D01*
X430950Y162608D01*
X430909Y162621D01*
X430875Y162633D01*
X430846Y162642D01*
X430817Y162650D01*
X430800Y162658D01*
X430784Y162667D01*
X430775Y162671D01*
X430771D01*
X430675Y162721D01*
X430588Y162779D01*
X430517Y162837D01*
X430459Y162892D01*
X430413Y162942D01*
X430375Y162983D01*
X430367Y163000D01*
X430359Y163012D01*
X430350Y163016D01*
Y163021D01*
X430300Y163104D01*
X430263Y163192D01*
X430238Y163271D01*
X430217Y163346D01*
X430209Y163408D01*
X430205Y163433D01*
Y163458D01*
X430200Y163475D01*
Y163487D01*
Y163496D01*
Y163500D01*
X430205Y163596D01*
X430221Y163679D01*
X430242Y163758D01*
X430267Y163825D01*
X430296Y163879D01*
X430317Y163920D01*
X430325Y163933D01*
X430334Y163946D01*
X430338Y163950D01*
Y163954D01*
X430392Y164025D01*
X430459Y164091D01*
X430525Y164145D01*
X430592Y164195D01*
X430654Y164233D01*
X430704Y164258D01*
X430725Y164270D01*
X430738Y164279D01*
X430746Y164283D01*
X430750D01*
X430788Y164300D01*
X430834Y164316D01*
X430888Y164333D01*
X430942Y164354D01*
X431058Y164387D01*
X431175Y164416D01*
X431233Y164433D01*
X431283Y164445D01*
X431333Y164458D01*
X431375Y164466D01*
X431408Y164475D01*
X431437Y164483D01*
X431454Y164487D01*
X431458D01*
X431550Y164508D01*
X431633Y164529D01*
X431708Y164550D01*
X431775Y164570D01*
X431833Y164591D01*
X431883Y164608D01*
X431929Y164629D01*
X431971Y164645D01*
X432000Y164658D01*
X432029Y164670D01*
X432050Y164683D01*
X432066Y164695D01*
X432079Y164699D01*
X432087Y164708D01*
X432096Y164712D01*
X432137Y164758D01*
X432166Y164804D01*
X432187Y164849D01*
X432200Y164895D01*
X432208Y164937D01*
X432216Y164966D01*
Y164987D01*
Y164995D01*
X432208Y165066D01*
X432187Y165133D01*
X432162Y165191D01*
X432129Y165241D01*
X432096Y165283D01*
X432071Y165312D01*
X432050Y165328D01*
X432042Y165337D01*
X432008Y165362D01*
X431967Y165383D01*
X431879Y165420D01*
X431787Y165445D01*
X431696Y165462D01*
X431612Y165470D01*
X431579Y165474D01*
X431546Y165478D01*
X431417D01*
X431354Y165470D01*
X431296Y165466D01*
X431242Y165453D01*
X431192Y165441D01*
X431146Y165428D01*
X431104Y165416D01*
X431067Y165403D01*
X431038Y165387D01*
X431008Y165374D01*
X430983Y165362D01*
X430963Y165349D01*
X430950Y165337D01*
X430938Y165333D01*
X430929Y165324D01*
X430863Y165262D01*
X430813Y165187D01*
X430775Y165112D01*
X430746Y165041D01*
X430725Y164974D01*
X430717Y164945D01*
X430713Y164920D01*
X430709Y164899D01*
X430704Y164883D01*
Y164874D01*
Y164870D01*
X430296Y164899D01*
X430304Y164999D01*
X430325Y165095D01*
X430350Y165179D01*
X430379Y165254D01*
X430409Y165316D01*
X430421Y165341D01*
X430429Y165362D01*
X430442Y165378D01*
X430446Y165391D01*
X430454Y165395D01*
Y165399D01*
X430513Y165478D01*
X430583Y165549D01*
X430650Y165607D01*
X430721Y165653D01*
X430779Y165691D01*
X430829Y165720D01*
X430850Y165728D01*
X430863Y165737D01*
X430871Y165741D01*
X430875D01*
X430979Y165778D01*
X431088Y165807D01*
X431192Y165828D01*
X431287Y165845D01*
X431333Y165849D01*
X431375Y165853D01*
X431408D01*
X431442Y165858D01*
X431500D01*
X431617Y165853D01*
D02*
G37*
G36*
X432179Y161562D02*
X432246Y161558D01*
X432371Y161532D01*
X432479Y161495D01*
X432525Y161474D01*
X432570Y161458D01*
X432608Y161437D01*
X432645Y161416D01*
X432675Y161395D01*
X432700Y161378D01*
X432720Y161366D01*
X432733Y161353D01*
X432741Y161349D01*
X432746Y161345D01*
X432791Y161303D01*
X432833Y161258D01*
X432904Y161158D01*
X432958Y161058D01*
X433004Y160962D01*
X433020Y160916D01*
X433033Y160874D01*
X433045Y160833D01*
X433054Y160804D01*
X433062Y160774D01*
X433066Y160753D01*
X433070Y160741D01*
Y160737D01*
X432679Y160666D01*
X432658Y160766D01*
X432633Y160854D01*
X432600Y160928D01*
X432566Y160987D01*
X432537Y161037D01*
X432512Y161070D01*
X432496Y161087D01*
X432487Y161095D01*
X432425Y161145D01*
X432362Y161178D01*
X432296Y161203D01*
X432237Y161224D01*
X432183Y161233D01*
X432137Y161237D01*
X432121Y161241D01*
X432100D01*
X432016Y161237D01*
X431946Y161220D01*
X431879Y161195D01*
X431825Y161170D01*
X431783Y161141D01*
X431750Y161120D01*
X431733Y161103D01*
X431725Y161095D01*
X431675Y161041D01*
X431637Y160979D01*
X431612Y160920D01*
X431592Y160866D01*
X431583Y160816D01*
X431579Y160779D01*
X431575Y160749D01*
Y160745D01*
Y160741D01*
X431579Y160691D01*
X431583Y160645D01*
X431608Y160562D01*
X431637Y160491D01*
X431675Y160433D01*
X431712Y160391D01*
X431746Y160358D01*
X431771Y160341D01*
X431775Y160333D01*
X431779D01*
X431854Y160291D01*
X431933Y160258D01*
X432008Y160237D01*
X432079Y160220D01*
X432137Y160212D01*
X432187Y160208D01*
X432204Y160204D01*
X432250D01*
X432271Y160208D01*
X432283Y160212D01*
X432291D01*
X432337Y159866D01*
X432279Y159879D01*
X432225Y159891D01*
X432175Y159900D01*
X432133Y159904D01*
X432104Y159908D01*
X432058D01*
X431958Y159900D01*
X431871Y159879D01*
X431796Y159854D01*
X431729Y159820D01*
X431679Y159787D01*
X431642Y159762D01*
X431617Y159741D01*
X431608Y159733D01*
X431575Y159700D01*
X431550Y159662D01*
X431504Y159591D01*
X431471Y159516D01*
X431450Y159445D01*
X431437Y159383D01*
X431433Y159354D01*
Y159333D01*
X431429Y159312D01*
Y159300D01*
Y159291D01*
Y159287D01*
Y159237D01*
X431437Y159187D01*
X431458Y159096D01*
X431492Y159012D01*
X431525Y158946D01*
X431558Y158887D01*
X431592Y158846D01*
X431604Y158833D01*
X431612Y158821D01*
X431617Y158816D01*
X431621Y158812D01*
X431658Y158779D01*
X431696Y158750D01*
X431775Y158700D01*
X431854Y158667D01*
X431929Y158646D01*
X431992Y158629D01*
X432021Y158625D01*
X432046D01*
X432062Y158621D01*
X432091D01*
X432175Y158629D01*
X432254Y158646D01*
X432321Y158667D01*
X432379Y158696D01*
X432429Y158721D01*
X432462Y158746D01*
X432483Y158762D01*
X432491Y158766D01*
X432520Y158796D01*
X432546Y158829D01*
X432591Y158908D01*
X432633Y158987D01*
X432662Y159066D01*
X432687Y159141D01*
X432696Y159171D01*
X432704Y159200D01*
X432708Y159221D01*
X432712Y159237D01*
X432716Y159250D01*
Y159254D01*
X433108Y159200D01*
X433100Y159125D01*
X433083Y159054D01*
X433066Y158991D01*
X433041Y158929D01*
X433016Y158871D01*
X432991Y158816D01*
X432962Y158766D01*
X432937Y158721D01*
X432908Y158683D01*
X432883Y158646D01*
X432858Y158617D01*
X432837Y158592D01*
X432816Y158571D01*
X432804Y158558D01*
X432795Y158550D01*
X432791Y158546D01*
X432737Y158500D01*
X432683Y158462D01*
X432625Y158429D01*
X432562Y158400D01*
X432504Y158379D01*
X432446Y158358D01*
X432337Y158329D01*
X432287Y158317D01*
X432237Y158308D01*
X432196Y158304D01*
X432162Y158300D01*
X432133Y158296D01*
X432091D01*
X432004Y158300D01*
X431925Y158308D01*
X431846Y158321D01*
X431775Y158342D01*
X431704Y158363D01*
X431642Y158387D01*
X431583Y158413D01*
X431529Y158442D01*
X431483Y158467D01*
X431442Y158492D01*
X431404Y158517D01*
X431375Y158537D01*
X431350Y158558D01*
X431333Y158571D01*
X431325Y158579D01*
X431321Y158583D01*
X431267Y158637D01*
X431221Y158696D01*
X431179Y158758D01*
X431142Y158816D01*
X431113Y158879D01*
X431088Y158937D01*
X431067Y158996D01*
X431050Y159050D01*
X431038Y159100D01*
X431029Y159146D01*
X431021Y159187D01*
X431017Y159225D01*
X431013Y159254D01*
Y159279D01*
Y159291D01*
Y159296D01*
X431021Y159408D01*
X431038Y159504D01*
X431063Y159591D01*
X431092Y159666D01*
X431121Y159729D01*
X431133Y159750D01*
X431146Y159770D01*
X431154Y159787D01*
X431163Y159800D01*
X431171Y159804D01*
Y159808D01*
X431233Y159879D01*
X431308Y159937D01*
X431379Y159987D01*
X431450Y160025D01*
X431512Y160049D01*
X431542Y160062D01*
X431567Y160070D01*
X431583Y160075D01*
X431600Y160079D01*
X431608Y160083D01*
X431612D01*
X431538Y160124D01*
X431471Y160166D01*
X431413Y160212D01*
X431367Y160258D01*
X431329Y160295D01*
X431304Y160324D01*
X431287Y160345D01*
X431283Y160354D01*
X431246Y160420D01*
X431217Y160487D01*
X431200Y160549D01*
X431183Y160608D01*
X431175Y160658D01*
X431171Y160699D01*
Y160724D01*
Y160728D01*
Y160733D01*
X431175Y160812D01*
X431188Y160887D01*
X431208Y160958D01*
X431229Y161020D01*
X431254Y161070D01*
X431271Y161112D01*
X431287Y161137D01*
X431292Y161141D01*
Y161145D01*
X431338Y161216D01*
X431392Y161274D01*
X431450Y161328D01*
X431504Y161374D01*
X431554Y161408D01*
X431592Y161432D01*
X431608Y161441D01*
X431621Y161449D01*
X431625Y161453D01*
X431629D01*
X431712Y161491D01*
X431796Y161520D01*
X431875Y161537D01*
X431950Y161553D01*
X432012Y161562D01*
X432042D01*
X432062Y161566D01*
X432108D01*
X432179Y161562D01*
D02*
G37*
G36*
X434624D02*
X434703Y161558D01*
X434778Y161545D01*
X434845Y161528D01*
X434912Y161512D01*
X434970Y161491D01*
X435024Y161470D01*
X435074Y161449D01*
X435120Y161424D01*
X435157Y161403D01*
X435191Y161383D01*
X435220Y161366D01*
X435241Y161349D01*
X435257Y161337D01*
X435266Y161332D01*
X435270Y161328D01*
X435320Y161283D01*
X435362Y161233D01*
X435399Y161178D01*
X435432Y161120D01*
X435462Y161066D01*
X435486Y161008D01*
X435524Y160895D01*
X435541Y160845D01*
X435553Y160795D01*
X435561Y160753D01*
X435570Y160716D01*
X435574Y160683D01*
Y160662D01*
X435578Y160645D01*
Y160641D01*
X435174Y160599D01*
X435166Y160708D01*
X435149Y160799D01*
X435120Y160879D01*
X435087Y160949D01*
X435057Y160999D01*
X435028Y161041D01*
X435012Y161062D01*
X435003Y161070D01*
X434937Y161128D01*
X434862Y161170D01*
X434782Y161199D01*
X434712Y161220D01*
X434649Y161233D01*
X434620Y161237D01*
X434595D01*
X434578Y161241D01*
X434549D01*
X434453Y161233D01*
X434366Y161216D01*
X434291Y161191D01*
X434228Y161162D01*
X434179Y161128D01*
X434141Y161103D01*
X434120Y161087D01*
X434112Y161078D01*
X434053Y161016D01*
X434012Y160949D01*
X433983Y160887D01*
X433962Y160824D01*
X433949Y160770D01*
X433945Y160724D01*
X433941Y160708D01*
Y160699D01*
Y160691D01*
Y160687D01*
Y160645D01*
X433949Y160604D01*
X433970Y160516D01*
X433999Y160437D01*
X434033Y160366D01*
X434070Y160304D01*
X434087Y160279D01*
X434099Y160254D01*
X434112Y160237D01*
X434120Y160224D01*
X434124Y160216D01*
X434128Y160212D01*
X434166Y160162D01*
X434212Y160112D01*
X434262Y160058D01*
X434316Y160000D01*
X434433Y159887D01*
X434549Y159779D01*
X434603Y159729D01*
X434658Y159683D01*
X434707Y159641D01*
X434749Y159604D01*
X434782Y159575D01*
X434812Y159554D01*
X434828Y159537D01*
X434832Y159533D01*
X434953Y159433D01*
X435057Y159341D01*
X435145Y159258D01*
X435216Y159187D01*
X435274Y159129D01*
X435316Y159083D01*
X435328Y159066D01*
X435341Y159054D01*
X435345Y159050D01*
X435349Y159046D01*
X435411Y158967D01*
X435466Y158891D01*
X435507Y158821D01*
X435545Y158754D01*
X435574Y158700D01*
X435591Y158658D01*
X435599Y158642D01*
X435603Y158629D01*
X435607Y158625D01*
Y158621D01*
X435624Y158571D01*
X435636Y158525D01*
X435645Y158479D01*
X435649Y158438D01*
X435653Y158400D01*
Y158375D01*
Y158358D01*
Y158350D01*
X433533D01*
Y158729D01*
X435107D01*
X435053Y158804D01*
X435024Y158841D01*
X434999Y158871D01*
X434974Y158900D01*
X434957Y158921D01*
X434945Y158933D01*
X434941Y158937D01*
X434920Y158958D01*
X434891Y158987D01*
X434862Y159017D01*
X434828Y159046D01*
X434753Y159112D01*
X434674Y159179D01*
X434603Y159241D01*
X434570Y159271D01*
X434545Y159296D01*
X434520Y159312D01*
X434503Y159329D01*
X434491Y159337D01*
X434487Y159341D01*
X434412Y159408D01*
X434337Y159471D01*
X434274Y159525D01*
X434212Y159579D01*
X434158Y159629D01*
X434108Y159679D01*
X434062Y159720D01*
X434024Y159758D01*
X433987Y159791D01*
X433958Y159820D01*
X433933Y159845D01*
X433912Y159866D01*
X433899Y159883D01*
X433887Y159895D01*
X433879Y159900D01*
Y159904D01*
X433816Y159979D01*
X433762Y160054D01*
X433716Y160120D01*
X433679Y160179D01*
X433649Y160224D01*
X433633Y160262D01*
X433620Y160287D01*
X433616Y160295D01*
X433591Y160366D01*
X433570Y160433D01*
X433558Y160499D01*
X433545Y160554D01*
X433541Y160604D01*
X433537Y160641D01*
Y160666D01*
Y160674D01*
X433541Y160745D01*
X433549Y160812D01*
X433562Y160874D01*
X433579Y160933D01*
X433624Y161041D01*
X433645Y161091D01*
X433670Y161133D01*
X433699Y161174D01*
X433720Y161208D01*
X433745Y161237D01*
X433766Y161262D01*
X433783Y161283D01*
X433795Y161295D01*
X433804Y161303D01*
X433808Y161308D01*
X433862Y161353D01*
X433916Y161391D01*
X433974Y161428D01*
X434037Y161458D01*
X434099Y161483D01*
X434158Y161503D01*
X434274Y161532D01*
X434328Y161545D01*
X434378Y161553D01*
X434424Y161558D01*
X434466Y161562D01*
X434495Y161566D01*
X434541D01*
X434624Y161562D01*
D02*
G37*
G36*
X428063Y159866D02*
X427693Y159812D01*
X427659Y159862D01*
X427622Y159904D01*
X427580Y159945D01*
X427543Y159975D01*
X427509Y160004D01*
X427484Y160020D01*
X427468Y160033D01*
X427459Y160037D01*
X427401Y160066D01*
X427338Y160091D01*
X427280Y160108D01*
X427230Y160116D01*
X427180Y160124D01*
X427147Y160129D01*
X427055D01*
X427005Y160120D01*
X426905Y160100D01*
X426822Y160066D01*
X426751Y160033D01*
X426693Y159995D01*
X426651Y159962D01*
X426639Y159950D01*
X426626Y159941D01*
X426618Y159937D01*
Y159933D01*
X426585Y159895D01*
X426555Y159854D01*
X426510Y159766D01*
X426476Y159679D01*
X426455Y159591D01*
X426439Y159516D01*
X426435Y159483D01*
Y159454D01*
X426430Y159433D01*
Y159416D01*
Y159404D01*
Y159400D01*
Y159333D01*
X426439Y159275D01*
X426460Y159162D01*
X426493Y159066D01*
X426526Y158983D01*
X426547Y158950D01*
X426564Y158921D01*
X426580Y158891D01*
X426597Y158871D01*
X426610Y158854D01*
X426618Y158841D01*
X426622Y158837D01*
X426626Y158833D01*
X426664Y158796D01*
X426701Y158762D01*
X426743Y158733D01*
X426785Y158712D01*
X426864Y158671D01*
X426943Y158646D01*
X427010Y158633D01*
X427039Y158629D01*
X427059Y158625D01*
X427080Y158621D01*
X427109D01*
X427197Y158629D01*
X427272Y158646D01*
X427343Y158667D01*
X427401Y158696D01*
X427447Y158721D01*
X427484Y158746D01*
X427505Y158762D01*
X427514Y158766D01*
X427568Y158829D01*
X427613Y158900D01*
X427651Y158975D01*
X427680Y159050D01*
X427697Y159112D01*
X427705Y159141D01*
X427713Y159166D01*
X427718Y159187D01*
Y159204D01*
X427722Y159212D01*
Y159216D01*
X428134Y159187D01*
X428126Y159112D01*
X428109Y159042D01*
X428092Y158979D01*
X428068Y158917D01*
X428047Y158858D01*
X428018Y158804D01*
X427993Y158754D01*
X427963Y158712D01*
X427938Y158671D01*
X427909Y158637D01*
X427888Y158608D01*
X427863Y158583D01*
X427847Y158562D01*
X427834Y158550D01*
X427826Y158542D01*
X427822Y158537D01*
X427768Y158496D01*
X427713Y158458D01*
X427655Y158425D01*
X427593Y158400D01*
X427534Y158375D01*
X427476Y158354D01*
X427364Y158325D01*
X427309Y158317D01*
X427264Y158308D01*
X427218Y158304D01*
X427180Y158300D01*
X427151Y158296D01*
X427109D01*
X427014Y158300D01*
X426922Y158313D01*
X426834Y158333D01*
X426751Y158358D01*
X426676Y158387D01*
X426610Y158417D01*
X426547Y158454D01*
X426489Y158492D01*
X426439Y158525D01*
X426393Y158562D01*
X426356Y158592D01*
X426326Y158625D01*
X426301Y158646D01*
X426281Y158667D01*
X426272Y158679D01*
X426268Y158683D01*
X426222Y158746D01*
X426185Y158808D01*
X426151Y158871D01*
X426122Y158933D01*
X426097Y158996D01*
X426076Y159058D01*
X426047Y159179D01*
X426035Y159229D01*
X426026Y159279D01*
X426022Y159325D01*
X426018Y159362D01*
X426014Y159391D01*
Y159412D01*
Y159429D01*
Y159433D01*
X426018Y159516D01*
X426026Y159595D01*
X426039Y159670D01*
X426060Y159746D01*
X426081Y159812D01*
X426105Y159870D01*
X426130Y159929D01*
X426160Y159979D01*
X426185Y160025D01*
X426214Y160066D01*
X426239Y160100D01*
X426260Y160129D01*
X426281Y160154D01*
X426293Y160170D01*
X426301Y160179D01*
X426306Y160183D01*
X426360Y160233D01*
X426418Y160279D01*
X426476Y160316D01*
X426535Y160354D01*
X426597Y160379D01*
X426655Y160404D01*
X426710Y160424D01*
X426764Y160437D01*
X426818Y160449D01*
X426864Y160458D01*
X426905Y160466D01*
X426939Y160470D01*
X426968Y160474D01*
X427010D01*
X427068Y160470D01*
X427126Y160466D01*
X427239Y160441D01*
X427338Y160412D01*
X427430Y160375D01*
X427472Y160354D01*
X427505Y160337D01*
X427538Y160316D01*
X427564Y160304D01*
X427584Y160291D01*
X427601Y160279D01*
X427609Y160275D01*
X427613Y160270D01*
X427443Y161137D01*
X426164D01*
Y161512D01*
X427755D01*
X428063Y159866D01*
D02*
G37*
G36*
X437432Y161603D02*
X437544Y161591D01*
X437644Y161570D01*
X437732Y161553D01*
X437769Y161541D01*
X437803Y161532D01*
X437832Y161520D01*
X437857Y161512D01*
X437878Y161507D01*
X437890Y161499D01*
X437898Y161495D01*
X437902D01*
X437994Y161449D01*
X438078Y161399D01*
X438144Y161345D01*
X438202Y161295D01*
X438244Y161249D01*
X438277Y161208D01*
X438294Y161183D01*
X438302Y161178D01*
Y161174D01*
X438348Y161095D01*
X438382Y161016D01*
X438406Y160941D01*
X438423Y160870D01*
X438432Y160808D01*
X438436Y160762D01*
X438440Y160745D01*
Y160733D01*
Y160724D01*
Y160720D01*
X438436Y160641D01*
X438423Y160566D01*
X438406Y160495D01*
X438386Y160437D01*
X438365Y160387D01*
X438348Y160354D01*
X438336Y160329D01*
X438332Y160324D01*
Y160320D01*
X438286Y160258D01*
X438232Y160200D01*
X438173Y160149D01*
X438119Y160108D01*
X438069Y160070D01*
X438027Y160045D01*
X438011Y160037D01*
X437998Y160029D01*
X437994Y160025D01*
X437990D01*
X437952Y160008D01*
X437911Y159987D01*
X437819Y159954D01*
X437715Y159916D01*
X437615Y159887D01*
X437519Y159858D01*
X437482Y159850D01*
X437444Y159837D01*
X437415Y159833D01*
X437394Y159825D01*
X437378Y159820D01*
X437374D01*
X437294Y159800D01*
X437224Y159783D01*
X437157Y159766D01*
X437099Y159754D01*
X437044Y159737D01*
X436999Y159725D01*
X436957Y159716D01*
X436924Y159704D01*
X436890Y159696D01*
X436865Y159687D01*
X436844Y159683D01*
X436828Y159675D01*
X436811Y159670D01*
X436803Y159666D01*
X436732Y159637D01*
X436674Y159604D01*
X436624Y159575D01*
X436582Y159545D01*
X436553Y159521D01*
X436532Y159500D01*
X436520Y159483D01*
X436515Y159479D01*
X436486Y159437D01*
X436461Y159391D01*
X436445Y159346D01*
X436436Y159304D01*
X436428Y159271D01*
X436424Y159241D01*
Y159225D01*
Y159216D01*
X436428Y159162D01*
X436436Y159112D01*
X436453Y159066D01*
X436469Y159025D01*
X436486Y158991D01*
X436503Y158962D01*
X436511Y158946D01*
X436515Y158941D01*
X436553Y158896D01*
X436599Y158858D01*
X436645Y158825D01*
X436690Y158796D01*
X436732Y158775D01*
X436765Y158758D01*
X436786Y158750D01*
X436790Y158746D01*
X436795D01*
X436865Y158721D01*
X436936Y158704D01*
X437011Y158692D01*
X437074Y158683D01*
X437132Y158679D01*
X437178Y158675D01*
X437219D01*
X437319Y158679D01*
X437411Y158687D01*
X437494Y158704D01*
X437565Y158721D01*
X437628Y158737D01*
X437653Y158746D01*
X437673Y158754D01*
X437690Y158758D01*
X437703Y158762D01*
X437707Y158766D01*
X437711D01*
X437786Y158804D01*
X437853Y158846D01*
X437907Y158887D01*
X437952Y158929D01*
X437986Y158962D01*
X438011Y158991D01*
X438027Y159008D01*
X438032Y159017D01*
X438065Y159079D01*
X438094Y159146D01*
X438119Y159212D01*
X438136Y159275D01*
X438148Y159333D01*
X438157Y159375D01*
Y159391D01*
X438161Y159404D01*
Y159412D01*
Y159416D01*
X438561Y159383D01*
X438552Y159266D01*
X438531Y159154D01*
X438502Y159058D01*
X438469Y158971D01*
X438452Y158933D01*
X438440Y158900D01*
X438423Y158875D01*
X438411Y158850D01*
X438402Y158829D01*
X438394Y158816D01*
X438386Y158808D01*
Y158804D01*
X438319Y158716D01*
X438244Y158637D01*
X438169Y158571D01*
X438094Y158517D01*
X438027Y158475D01*
X437998Y158458D01*
X437977Y158446D01*
X437957Y158433D01*
X437940Y158425D01*
X437932Y158421D01*
X437928D01*
X437811Y158379D01*
X437690Y158350D01*
X437565Y158325D01*
X437453Y158313D01*
X437398Y158308D01*
X437353Y158304D01*
X437307Y158300D01*
X437269D01*
X437240Y158296D01*
X437198D01*
X437074Y158300D01*
X436957Y158317D01*
X436853Y158337D01*
X436765Y158358D01*
X436724Y158371D01*
X436690Y158383D01*
X436661Y158392D01*
X436632Y158400D01*
X436615Y158408D01*
X436599Y158417D01*
X436590Y158421D01*
X436586D01*
X436490Y158471D01*
X436403Y158529D01*
X436332Y158587D01*
X436274Y158642D01*
X436228Y158692D01*
X436190Y158733D01*
X436182Y158750D01*
X436174Y158762D01*
X436165Y158766D01*
Y158771D01*
X436115Y158854D01*
X436078Y158941D01*
X436053Y159021D01*
X436032Y159096D01*
X436024Y159158D01*
X436020Y159183D01*
Y159208D01*
X436016Y159225D01*
Y159237D01*
Y159246D01*
Y159250D01*
X436020Y159346D01*
X436036Y159429D01*
X436057Y159508D01*
X436082Y159575D01*
X436111Y159629D01*
X436132Y159670D01*
X436141Y159683D01*
X436149Y159696D01*
X436153Y159700D01*
Y159704D01*
X436207Y159775D01*
X436274Y159841D01*
X436340Y159895D01*
X436407Y159945D01*
X436469Y159983D01*
X436520Y160008D01*
X436540Y160020D01*
X436553Y160029D01*
X436561Y160033D01*
X436565D01*
X436603Y160049D01*
X436649Y160066D01*
X436703Y160083D01*
X436757Y160104D01*
X436874Y160137D01*
X436990Y160166D01*
X437049Y160183D01*
X437099Y160195D01*
X437149Y160208D01*
X437190Y160216D01*
X437224Y160224D01*
X437253Y160233D01*
X437269Y160237D01*
X437273D01*
X437365Y160258D01*
X437449Y160279D01*
X437523Y160299D01*
X437590Y160320D01*
X437648Y160341D01*
X437698Y160358D01*
X437744Y160379D01*
X437786Y160395D01*
X437815Y160408D01*
X437844Y160420D01*
X437865Y160433D01*
X437882Y160445D01*
X437894Y160449D01*
X437902Y160458D01*
X437911Y160462D01*
X437952Y160508D01*
X437982Y160554D01*
X438003Y160599D01*
X438015Y160645D01*
X438023Y160687D01*
X438032Y160716D01*
Y160737D01*
Y160745D01*
X438023Y160816D01*
X438003Y160883D01*
X437977Y160941D01*
X437944Y160991D01*
X437911Y161033D01*
X437886Y161062D01*
X437865Y161078D01*
X437857Y161087D01*
X437823Y161112D01*
X437782Y161133D01*
X437694Y161170D01*
X437603Y161195D01*
X437511Y161212D01*
X437428Y161220D01*
X437394Y161224D01*
X437361Y161228D01*
X437232D01*
X437169Y161220D01*
X437111Y161216D01*
X437057Y161203D01*
X437007Y161191D01*
X436961Y161178D01*
X436919Y161166D01*
X436882Y161153D01*
X436853Y161137D01*
X436824Y161124D01*
X436799Y161112D01*
X436778Y161099D01*
X436765Y161087D01*
X436753Y161083D01*
X436744Y161074D01*
X436678Y161012D01*
X436628Y160937D01*
X436590Y160862D01*
X436561Y160791D01*
X436540Y160724D01*
X436532Y160695D01*
X436528Y160670D01*
X436524Y160649D01*
X436520Y160633D01*
Y160624D01*
Y160620D01*
X436111Y160649D01*
X436120Y160749D01*
X436141Y160845D01*
X436165Y160928D01*
X436195Y161003D01*
X436224Y161066D01*
X436236Y161091D01*
X436245Y161112D01*
X436257Y161128D01*
X436261Y161141D01*
X436270Y161145D01*
Y161149D01*
X436328Y161228D01*
X436399Y161299D01*
X436465Y161357D01*
X436536Y161403D01*
X436595Y161441D01*
X436645Y161470D01*
X436665Y161478D01*
X436678Y161487D01*
X436686Y161491D01*
X436690D01*
X436795Y161528D01*
X436903Y161558D01*
X437007Y161578D01*
X437103Y161595D01*
X437149Y161599D01*
X437190Y161603D01*
X437224D01*
X437257Y161607D01*
X437315D01*
X437432Y161603D01*
D02*
G37*
G36*
X429705Y161558D02*
X429817Y161537D01*
X429917Y161507D01*
X430000Y161474D01*
X430038Y161453D01*
X430067Y161437D01*
X430096Y161420D01*
X430117Y161408D01*
X430134Y161395D01*
X430146Y161387D01*
X430154Y161383D01*
X430159Y161378D01*
X430238Y161303D01*
X430309Y161216D01*
X430367Y161124D01*
X430417Y161041D01*
X430454Y160962D01*
X430471Y160928D01*
X430484Y160899D01*
X430492Y160874D01*
X430500Y160858D01*
X430504Y160845D01*
Y160841D01*
X430525Y160774D01*
X430542Y160704D01*
X430571Y160554D01*
X430592Y160399D01*
X430604Y160254D01*
X430613Y160187D01*
Y160124D01*
X430617Y160070D01*
X430621Y160025D01*
Y159983D01*
Y159954D01*
Y159937D01*
Y159929D01*
X430617Y159766D01*
X430608Y159612D01*
X430592Y159475D01*
X430571Y159346D01*
X430550Y159225D01*
X430521Y159121D01*
X430492Y159025D01*
X430463Y158937D01*
X430434Y158862D01*
X430409Y158800D01*
X430379Y158746D01*
X430359Y158700D01*
X430338Y158667D01*
X430321Y158646D01*
X430313Y158629D01*
X430309Y158625D01*
X430255Y158567D01*
X430200Y158517D01*
X430142Y158471D01*
X430084Y158433D01*
X430021Y158404D01*
X429959Y158375D01*
X429900Y158354D01*
X429842Y158337D01*
X429788Y158325D01*
X429738Y158313D01*
X429696Y158304D01*
X429655Y158300D01*
X429626D01*
X429600Y158296D01*
X429580D01*
X429517Y158300D01*
X429455Y158304D01*
X429342Y158325D01*
X429242Y158354D01*
X429159Y158392D01*
X429121Y158408D01*
X429092Y158425D01*
X429063Y158442D01*
X429042Y158454D01*
X429026Y158467D01*
X429009Y158475D01*
X429005Y158483D01*
X429001D01*
X428917Y158558D01*
X428847Y158646D01*
X428788Y158733D01*
X428738Y158821D01*
X428701Y158896D01*
X428684Y158929D01*
X428671Y158958D01*
X428663Y158983D01*
X428655Y159000D01*
X428651Y159012D01*
Y159017D01*
X428630Y159083D01*
X428613Y159154D01*
X428584Y159304D01*
X428563Y159458D01*
X428547Y159604D01*
X428542Y159670D01*
X428538Y159733D01*
Y159787D01*
X428534Y159833D01*
Y159875D01*
Y159904D01*
Y159920D01*
Y159929D01*
Y160016D01*
X428538Y160100D01*
X428542Y160175D01*
X428547Y160245D01*
X428551Y160316D01*
X428559Y160375D01*
X428563Y160433D01*
X428572Y160483D01*
X428580Y160529D01*
X428584Y160570D01*
X428592Y160604D01*
X428597Y160633D01*
X428601Y160654D01*
X428605Y160670D01*
X428609Y160679D01*
Y160683D01*
X428638Y160783D01*
X428667Y160879D01*
X428701Y160958D01*
X428734Y161028D01*
X428763Y161087D01*
X428784Y161128D01*
X428792Y161141D01*
X428801Y161153D01*
X428805Y161158D01*
Y161162D01*
X428855Y161233D01*
X428909Y161291D01*
X428963Y161341D01*
X429013Y161387D01*
X429059Y161420D01*
X429092Y161441D01*
X429117Y161458D01*
X429121Y161462D01*
X429126D01*
X429201Y161495D01*
X429280Y161520D01*
X429355Y161541D01*
X429426Y161553D01*
X429488Y161562D01*
X429513D01*
X429538Y161566D01*
X429642D01*
X429705Y161558D01*
D02*
G37*
%LPC*%
G36*
X517609Y161241D02*
X517584D01*
X517534Y161237D01*
X517484Y161228D01*
X517438Y161216D01*
X517396Y161199D01*
X517317Y161158D01*
X517251Y161112D01*
X517196Y161062D01*
X517159Y161020D01*
X517142Y161003D01*
X517134Y160991D01*
X517126Y160983D01*
Y160979D01*
X517092Y160924D01*
X517063Y160858D01*
X517038Y160787D01*
X517017Y160708D01*
X517001Y160620D01*
X516984Y160533D01*
X516963Y160358D01*
X516955Y160275D01*
X516946Y160191D01*
X516942Y160120D01*
Y160058D01*
X516938Y160004D01*
Y159962D01*
Y159937D01*
Y159933D01*
Y159929D01*
Y159787D01*
X516946Y159658D01*
X516955Y159541D01*
X516967Y159433D01*
X516980Y159337D01*
X516996Y159250D01*
X517013Y159175D01*
X517030Y159108D01*
X517051Y159050D01*
X517067Y159004D01*
X517084Y158962D01*
X517096Y158933D01*
X517109Y158908D01*
X517117Y158891D01*
X517121Y158883D01*
X517126Y158879D01*
X517159Y158833D01*
X517196Y158796D01*
X517234Y158758D01*
X517276Y158729D01*
X517313Y158704D01*
X517351Y158683D01*
X517421Y158654D01*
X517484Y158633D01*
X517513Y158629D01*
X517534Y158625D01*
X517555Y158621D01*
X517580D01*
X517630Y158625D01*
X517675Y158633D01*
X517721Y158646D01*
X517763Y158662D01*
X517842Y158704D01*
X517909Y158750D01*
X517963Y158796D01*
X518000Y158837D01*
X518013Y158854D01*
X518025Y158867D01*
X518030Y158875D01*
X518034Y158879D01*
X518067Y158933D01*
X518092Y159000D01*
X518117Y159071D01*
X518138Y159154D01*
X518159Y159237D01*
X518171Y159325D01*
X518192Y159500D01*
X518200Y159587D01*
X518209Y159666D01*
X518213Y159737D01*
Y159800D01*
X518217Y159854D01*
Y159895D01*
Y159920D01*
Y159925D01*
Y159929D01*
X518213Y160070D01*
X518209Y160200D01*
X518200Y160320D01*
X518184Y160429D01*
X518171Y160529D01*
X518154Y160616D01*
X518134Y160695D01*
X518117Y160762D01*
X518096Y160824D01*
X518079Y160874D01*
X518063Y160916D01*
X518046Y160949D01*
X518034Y160974D01*
X518025Y160995D01*
X518021Y161003D01*
X518017Y161008D01*
X517984Y161049D01*
X517950Y161087D01*
X517917Y161116D01*
X517879Y161141D01*
X517809Y161183D01*
X517738Y161212D01*
X517680Y161228D01*
X517630Y161237D01*
X517609Y161241D01*
D02*
G37*
G36*
X516521Y165174D02*
Y163729D01*
X517530D01*
X516521Y165174D01*
D02*
G37*
G36*
X473609Y161241D02*
X473584D01*
X473534Y161237D01*
X473484Y161228D01*
X473438Y161216D01*
X473396Y161199D01*
X473317Y161158D01*
X473251Y161112D01*
X473196Y161062D01*
X473159Y161020D01*
X473142Y161003D01*
X473134Y160991D01*
X473126Y160983D01*
Y160979D01*
X473092Y160924D01*
X473063Y160858D01*
X473038Y160787D01*
X473017Y160708D01*
X473001Y160620D01*
X472984Y160533D01*
X472963Y160358D01*
X472955Y160275D01*
X472947Y160191D01*
X472942Y160120D01*
Y160058D01*
X472938Y160004D01*
Y159962D01*
Y159937D01*
Y159933D01*
Y159929D01*
Y159787D01*
X472947Y159658D01*
X472955Y159541D01*
X472967Y159433D01*
X472980Y159337D01*
X472996Y159250D01*
X473013Y159175D01*
X473030Y159108D01*
X473051Y159050D01*
X473067Y159004D01*
X473084Y158962D01*
X473096Y158933D01*
X473109Y158908D01*
X473117Y158891D01*
X473121Y158883D01*
X473126Y158879D01*
X473159Y158833D01*
X473196Y158796D01*
X473234Y158758D01*
X473275Y158729D01*
X473313Y158704D01*
X473350Y158683D01*
X473421Y158654D01*
X473484Y158633D01*
X473513Y158629D01*
X473534Y158625D01*
X473555Y158621D01*
X473580D01*
X473630Y158625D01*
X473675Y158633D01*
X473721Y158646D01*
X473763Y158662D01*
X473842Y158704D01*
X473909Y158750D01*
X473963Y158796D01*
X474000Y158837D01*
X474013Y158854D01*
X474025Y158867D01*
X474030Y158875D01*
X474034Y158879D01*
X474067Y158933D01*
X474092Y159000D01*
X474117Y159071D01*
X474138Y159154D01*
X474159Y159237D01*
X474171Y159325D01*
X474192Y159500D01*
X474200Y159587D01*
X474209Y159666D01*
X474213Y159737D01*
Y159800D01*
X474217Y159854D01*
Y159895D01*
Y159920D01*
Y159925D01*
Y159929D01*
X474213Y160070D01*
X474209Y160200D01*
X474200Y160320D01*
X474184Y160429D01*
X474171Y160529D01*
X474155Y160616D01*
X474134Y160695D01*
X474117Y160762D01*
X474096Y160824D01*
X474080Y160874D01*
X474063Y160916D01*
X474046Y160949D01*
X474034Y160974D01*
X474025Y160995D01*
X474021Y161003D01*
X474017Y161008D01*
X473984Y161049D01*
X473950Y161087D01*
X473917Y161116D01*
X473880Y161141D01*
X473809Y161183D01*
X473738Y161212D01*
X473680Y161228D01*
X473630Y161237D01*
X473609Y161241D01*
D02*
G37*
G36*
X429609D02*
X429584D01*
X429534Y161237D01*
X429484Y161228D01*
X429438Y161216D01*
X429396Y161199D01*
X429317Y161158D01*
X429251Y161112D01*
X429196Y161062D01*
X429159Y161020D01*
X429142Y161003D01*
X429134Y160991D01*
X429126Y160983D01*
Y160979D01*
X429092Y160924D01*
X429063Y160858D01*
X429038Y160787D01*
X429017Y160708D01*
X429001Y160620D01*
X428984Y160533D01*
X428963Y160358D01*
X428955Y160275D01*
X428946Y160191D01*
X428942Y160120D01*
Y160058D01*
X428938Y160004D01*
Y159962D01*
Y159937D01*
Y159933D01*
Y159929D01*
Y159787D01*
X428946Y159658D01*
X428955Y159541D01*
X428967Y159433D01*
X428980Y159337D01*
X428996Y159250D01*
X429013Y159175D01*
X429030Y159108D01*
X429051Y159050D01*
X429067Y159004D01*
X429084Y158962D01*
X429096Y158933D01*
X429109Y158908D01*
X429117Y158891D01*
X429121Y158883D01*
X429126Y158879D01*
X429159Y158833D01*
X429196Y158796D01*
X429234Y158758D01*
X429276Y158729D01*
X429313Y158704D01*
X429351Y158683D01*
X429421Y158654D01*
X429484Y158633D01*
X429513Y158629D01*
X429534Y158625D01*
X429555Y158621D01*
X429580D01*
X429630Y158625D01*
X429675Y158633D01*
X429721Y158646D01*
X429763Y158662D01*
X429842Y158704D01*
X429909Y158750D01*
X429963Y158796D01*
X430000Y158837D01*
X430013Y158854D01*
X430025Y158867D01*
X430029Y158875D01*
X430034Y158879D01*
X430067Y158933D01*
X430092Y159000D01*
X430117Y159071D01*
X430138Y159154D01*
X430159Y159237D01*
X430171Y159325D01*
X430192Y159500D01*
X430200Y159587D01*
X430209Y159666D01*
X430213Y159737D01*
Y159800D01*
X430217Y159854D01*
Y159895D01*
Y159920D01*
Y159925D01*
Y159929D01*
X430213Y160070D01*
X430209Y160200D01*
X430200Y160320D01*
X430184Y160429D01*
X430171Y160529D01*
X430154Y160616D01*
X430134Y160695D01*
X430117Y160762D01*
X430096Y160824D01*
X430079Y160874D01*
X430063Y160916D01*
X430046Y160949D01*
X430034Y160974D01*
X430025Y160995D01*
X430021Y161003D01*
X430017Y161008D01*
X429984Y161049D01*
X429950Y161087D01*
X429917Y161116D01*
X429880Y161141D01*
X429809Y161183D01*
X429738Y161212D01*
X429680Y161228D01*
X429630Y161237D01*
X429609Y161241D01*
D02*
G37*
%LPD*%
D15*
X501561Y142100D02*
Y167600D01*
X527561Y142100D02*
Y167600D01*
X501561D02*
X527561D01*
X501561Y142100D02*
X527561D01*
X369561D02*
X395561D01*
X369561Y167600D02*
X395561D01*
Y142100D02*
Y167600D01*
X369561Y142100D02*
Y167600D01*
X457561Y142100D02*
Y167600D01*
X483561Y142100D02*
Y167600D01*
X457561D02*
X483561D01*
X457561Y142100D02*
X483561D01*
X413561D02*
X439561D01*
X413561Y167600D02*
X439561D01*
Y142100D02*
Y167600D01*
X413561Y142100D02*
Y167600D01*
D73*
X514561Y168850D02*
D03*
X523811Y141100D02*
D03*
X505311D02*
D03*
X373310Y141101D02*
D03*
X391810D02*
D03*
X382560Y168851D02*
D03*
X470560Y168850D02*
D03*
X479810Y141100D02*
D03*
X461310D02*
D03*
X417310Y141100D02*
D03*
X435811D02*
D03*
X426561Y168850D02*
D03*
M02*
