M48
;Layer_Color=9474304
;FILE_FORMAT=4:3
METRIC,TZ
;TYPE=PLATED
T01F00S00C0.200
T02F00S00C0.300
T03F00S00C0.762
T04F00S00C0.950
T05F00S00C3.180
%
T01
X260Y1115
X1613
X1238Y250
X2591
X2966Y1115
X4318
X3944Y250
X5297
X6650
X8002
X8548Y782
X8864Y1544
X9579Y1840
X11226
X12872
X14519
X16165
X17812
X1613Y2666
X260
Y4216
Y5766
Y7316
Y8867
Y10417
Y11967
Y13518
Y15068
Y16618
X19459Y1840
X21105
X22752
X24398
X26045
X27692
X29338
X30985
X32631
X34278
X35924
X37571
X39218
X40864
X42511
X44157
X45804
X47451
X49097
X50744
X52390
X54037
X55683
X57330
X58977
X60623
X62270
X63916
X65563
X67210
X68856
X70503
X72149
X73796
X75442
X77089
X78736
X80382
X81300Y1310
X81623Y407
X82670Y230
X84317
X85963
X86457Y1161
X88103
X87610Y230
X88780Y240
X89750Y1161
Y2712
Y4262
Y5812
Y7363
Y8913
Y10463
Y12014
Y13564
Y15114
Y16664
X88103Y2712
X89750Y18215
Y19765
Y21315
Y22866
Y24416
Y25966
Y27516
Y29067
Y30617
Y32167
Y33718
X89101Y34624
X88272Y35043
X87850Y35910
X87835Y37013
Y38563
Y40113
Y41663
Y43214
Y44764
Y46314
Y47865
Y49415
Y50965
Y52515
Y54066
X88203Y54925
X89190Y55433
X89760Y56266
X1892Y54749
X2170Y53761
Y52400
Y51038
Y49676
X2177Y48314
X2170Y46952
X2177Y45591
Y44229
Y42867
Y41505
Y40144
Y38782
Y37420
Y36058
X1895Y35262
X1296Y34756
X574Y34431
X260Y33671
Y32121
Y30571
Y29021
Y27470
Y25920
Y24370
Y22819
Y21269
Y19719
Y18169
X784Y55422
X260Y56184
Y57734
Y59285
Y60835
Y62385
Y63936
Y65486
Y67036
Y68587
Y70137
Y71687
Y73237
Y74788
Y76338
Y77888
Y79439
Y80989
Y82539
Y84089
Y85640
X1144
Y87010
X260Y87190
Y88740
X540Y89500
X1144Y89750
Y88380
X2694Y88380
Y89750
X4244
Y88380
X5794
Y89750
X7345
X8895
X10445
X11996
X13546
X15096
X16646
X18197
X2694Y87010
Y85640
X19747Y89750
X21297
X22848
X24398
X25948
X27499
X29049
X30599
X32149
X33116Y89448
X33360Y88555
X33770Y87260
X34832Y86820
X36383
X37933
X39483
X41033
X42584
X44134
X45684
X47235
X48785
X50335
X51885
X52754
X53716Y87218
X54180Y88230
X54260Y89210
X55112Y89750
X56662
X58212
X59763
X61313
X62863
X64414
X65964
X67514
X69064
X70615
X72165
X73715
X75266
X76816
X78366
X79917
X81467
X83017
X83559Y88822
X85109
X84567Y89750
X86118
X86659Y88822
Y87272
Y85722
X88210
Y87272
Y88822
X87668Y89750
X89060Y89690
X89760Y88822
Y87272
Y85722
Y84171
Y82621
Y81071
Y79521
Y77970
Y76420
Y74870
Y73319
Y71769
Y70219
Y68668
Y67118
Y65568
Y64018
Y62467
Y60917
Y59367
Y57816
X85109Y87272
T02
X1440Y9140
Y10150
X2595
Y9140
X3750
X3750Y10150
X8680Y11950
Y12710
X13350Y16380
X14600Y4770
X17737Y3460
X18470
X19203
X20863
X21597
X22330
X27590Y5460
X26460Y9070
X27490Y11267
X27787Y15390
X29314
X30840
X34428Y15480
X35954
X37481
X39007
X41706Y14740
X43596Y15630
X44439
X45680
X47344Y15710
X48870
X50396
X51923
X52390Y13490
X51850Y12080
Y10554
Y9027
X50324
X48797
Y10554
X50324
Y12080
X50506Y12830
X48797Y12080
X47670Y12110
X45230Y12080
X44050
X42060
X40660Y11000
Y10330
X40710Y7140
X41800Y5790
X43326
X44853
X46379
X47906
X49432
X50959
X52485
X54011
X55370Y5128
X56320
X56280Y7387
X55370Y9335
Y10370
X53376Y10554
Y9027
Y12080
X48910Y14140
X48975Y3690
X50501
X47449
X45922
X44396
X42869
X41343
X39816
X38290
X32270Y3950
Y3305
Y2660
X29680Y8200
X35791Y12180
X37317
X38844
X26261Y15390
X24734
X23208
X21681
X20155
X18750Y17080
X55520Y2686
X57046
X58573
X60099
X61626
X63152
X64679
X66205
X67731
X69258
X70784
X72311
X73837
X75364
X76890
X78004Y3324
X79530
Y4850
Y6376
Y7903
Y9429
X78004
Y7903
Y6376
Y4850
X76428Y9172
Y10140
X77350Y11510
X78520
X75310Y13230
X74713Y14377
X74117Y15523
X73520Y16670
X72390Y13230
X71000Y10900
X68970Y14590
X66734Y14150
X65207
X63681
X62154
X60628
X59101
X59380Y11197
X67911Y5075
X87800Y15351
Y16906
Y18461
Y20016
Y21571
Y23126
X85433Y29760
X80170Y32063
Y32797
Y33530
X78940Y37889
X76650Y38040
Y37480
X76437Y41100
X77580Y43710
X79999Y43467
X80110Y46683
Y47417
Y48150
X78940Y52436
X76600Y52020
Y52880
X72200Y55940
X67860Y55100
Y54240
X67840Y53230
Y52370
X64500Y52560
Y53540
X69200Y48130
Y47397
Y46663
X69037Y43790
X69770
X72204Y43000
X74550Y44220
X63670
X58900Y44000
X59337Y41150
X64410Y38450
X65470
X67990Y38840
Y39730
X69270Y33550
Y32817
Y32083
X69287Y29240
X70020
X71260Y26190
X74553Y29760
X77580Y29220
X79540Y28060
X79530Y27070
X78750Y23510
X76900Y24150
Y22870
X63673Y29760
X59080Y29030
X85433Y44220
X81300Y55860
X57320Y52436
X54760Y52860
Y52000
X58350Y47377
Y46643
X58167Y44000
X55790Y43740
X52790Y44220
X50427Y43030
X47930Y43840
X47197
X47460Y46653
Y47387
Y48120
X44330Y48578
Y46901
Y45223
Y43546
X41910Y44220
X42430Y41210
X43290
X43740Y38513
X42500Y38240
Y37380
X45470Y38513
X47470Y33580
Y32847
Y32113
X47600Y29130
X46867
X46600Y26880
X44990
X43380
X41770
X41913Y29760
X37560Y29070
X36827
X36960Y26870
X32800Y26100
Y25240
X33500Y24410
X34340Y22790
X34327Y19160
X24440Y19180
Y20640
Y22100
Y23560
Y25020
X24290Y26530
X26710Y27250
X26690Y25770
X29697Y25590
X31033Y29760
X34050Y29100
X36590Y32123
Y32857
X35630Y37889
X33150Y37900
Y38760
X34050Y43830
X31030Y44220
X26660Y43900
X25927
X25700Y46663
Y47397
Y48130
X23070Y47842
Y49486
Y51130
Y52774
Y56061
Y46198
Y44554
X20150Y44220
X23070Y41200
X22400Y38580
X23940
X25480
X26560Y41291
X28691
X20860Y38580
Y36670
Y34790
X20153Y29760
X26017Y29090
X26750
X25680Y32143
Y32877
X37547Y43420
X38280
X36560Y46653
Y47387
Y48120
X35630Y52436
X32950Y52770
Y51910
X44330Y51933
Y50255
Y53610
X54770Y38500
Y37640
X57320Y37889
X58350Y33560
Y32827
Y32093
X58347Y29030
X58160Y27320
X55790Y29440
X52793Y29760
X51810Y25880
X50869Y25508
X48210Y26880
X48240Y21780
Y20920
X47090
X47100Y21610
X18610Y20280
X18550Y19000
Y18370
X14440Y29070
X12270Y29180
X9273Y29760
X7980Y28830
X5580Y29030
Y28300
X3317Y27251
Y25783
Y24316
Y22849
Y21381
Y19914
X3980Y32837
X4820Y33610
X4857Y41365
Y42520
Y43698
X2970Y43900
Y42833
Y41817
Y40800
X6931Y41365
X9273Y44220
X12270Y43770
X15390Y43540
X16090
X14810Y46673
Y47407
Y48140
X13800Y52436
X11260Y52740
Y51880
X3920Y48160
Y47427
Y46693
X11230Y38280
Y37420
X13800Y37889
X14780Y32610
X15430Y32070
X15687Y58060
X16420
X12270Y58540
X9273Y58810
X7240Y57950
X6507
X3940Y61223
Y61957
Y62690
X6920Y70400
X6597Y72540
X7330
X9273Y73390
X12270Y73220
X15227Y72610
X15960
X15990Y70360
X13800Y66982
X11260Y66650
X14810Y62660
Y61927
Y61193
X14820Y76507
Y77240
X15439Y79620
X16965
X18491
X13912
X12386
X10859
X9333
X7806
X6280
X3980Y77200
Y76467
X14600Y83624
Y85150
X16126
X17653
Y83624
X16126
Y86676
X17653
X14600
X19179
Y85150
X20706
Y83624
X22232
X23759
X25285
Y85150
Y86676
X26811
X28338
X29864
X31391
Y85150
X32917
Y83624
X34444
X35970
X37496
Y85150
X39023
X40549
X42076
X43602
X45129
X46655
X48181
X49708
X51234
X52761
X54287
X55814
X57340
Y86676
X55814
Y83624
X57340
X54287
X52761
X51234
X49708
X48181
X46655
X45129
X43602
X42076
X40549
X39023
X35970Y85150
X34444
X29864
X28338
X26811
Y83624
X28338
X29864
X31391
X23759Y85150
Y86676
X22232
Y85150
X20706Y86676
X19179Y83624
X20150Y73390
X23100Y73500
X23110Y72400
X28357Y72610
X29090
X28684Y70459
X31030Y73390
X34050Y73300
X37547Y72570
X38280
X37750Y70320
X35630Y66982
X33090Y66560
X36590Y62670
Y61937
Y61203
X37507Y57930
X38240
X41910Y58810
X44660Y58566
Y61619
Y63145
Y64671
Y66198
X47440Y62700
Y61967
Y61233
X49847Y58010
X50580
X52790Y58810
X55790Y58610
X58330Y61233
Y61967
Y62700
X57320Y66982
X54800Y66430
X55790Y73300
X58407Y73200
X58320Y76527
Y77260
X52790Y73390
X50438Y70448
X44950Y72284
Y73810
X41910Y73390
X36600Y76447
Y77180
X47500Y77200
Y76467
X25720Y76497
Y77230
X23070Y65924
Y64280
Y62637
Y60993
X25700Y61203
Y61937
Y62670
X28697Y58090
X29430
X31030Y58810
X34050Y58630
X23070Y57705
X20150Y58810
X59057Y58010
X59790
X63670Y58810
X69107Y58540
X69840
X69190Y61243
Y61977
Y62710
X66730Y63315
Y64841
Y66368
Y67894
Y61789
X74550Y58810
X77580Y58380
X80377Y58070
X81110
X80110Y61203
Y61937
X78940Y66982
X76590Y66780
Y67640
X73620Y68270
X74550Y73390
X77580Y73160
X80287Y73200
X81020
X80100Y75763
Y76497
Y77230
X85433Y73390
X86740Y71110
X87470Y70450
X88170Y71750
X88940Y72420
X86020Y69120
X85320Y69760
X84340Y68480
X85433Y58810
X69870Y73100
X69137
X66730Y74000
X63670Y73390
X59140Y73200
X59516Y70479
X58866Y83624
Y85150
Y86676
X60393
X61919
X63446
X64972
X66499
X68025
X69551
X71078
Y85150
Y83624
X69551
X68025
X66499
Y85150
X68025
X69551
X72604
Y83624
X74131
Y85150
Y86676
X72604
X64972Y85150
X63446
X61919
X60393
Y83624
X61919
X63446
X64972
X69210Y77240
Y76507
T03
X3294Y3464
X4910Y2794
X6526Y3464
X7196Y5080
X6526Y6696
X4910Y7366
X3294Y6696
X2624Y5080
X82634
X83304Y3464
X84920Y2794
X86536Y3464
X87206Y5080
X86536Y6696
X84920Y7366
X83304Y6696
X9236Y83304
X7620Y82634
X6004Y83304
X5334Y84920
X6004Y86536
X7620Y87206
X9236Y86536
X9906Y84920
X78824
X79494Y83304
X81110Y82634
X82726Y83304
X83396Y84920
X82726Y86536
X81110Y87206
X79494Y86536
T04
X10350Y6620
Y11400
X24850Y11380
Y6620
T05
X4910Y5080
X84920
X7620Y84920
X81110
M30
